<?xml version="1.0" encoding="utf-8"?>
<!-- Generator: Adobe Illustrator 21.1.0, SVG Export Plug-In . SVG Version: 6.00 Build 0)  -->
<svg version="1.1" id="圖層_1" xmlns="http://www.w3.org/2000/svg" xmlns:xlink="http://www.w3.org/1999/xlink" x="0px" y="0px"
	 viewBox="0 0 53.3 53.3" style="enable-background:new 0 0 53.3 53.3;" xml:space="preserve">
<style type="text/css">
	.st0{fill:#15275C;}
	.st1{fill:none;}
</style>
<g id="Grid_Template">
</g>
<g id="COPYRIGHT__x40_CASGRAPHIC">
	<g id="BOOTSTRAP__Grid_options">
	</g>
</g>
<g id="圖層_6">
</g>
<g>
	<g>
		<path class="st0" d="M17,33.3c0-0.1,0-0.2,0-0.2v-0.7c0-0.3,0-0.6,0.1-0.9c0,0,1.5-2.2,2.2-4.9c-0.8-1.8-1.5-4.1-1.5-6.4
			c0-0.5,0-1,0.1-1.5c-1-1.2-2.4-1.9-3.9-1.9c-3.2,0-5.7,2.8-5.7,7.3c0,3.5,2.6,7.4,2.6,7.4C11,31.7,11,32,11,32.4V33
			c0,0.8-0.4,1.6-1.1,2l-4.1,1.9c-1,0.5-1.6,1.5-1.8,2.6l-0.1,1c0,0.5,0.1,1,0.4,1.4s0.8,0.6,1.2,0.6h6.8l0.3-3.9v-0.1
			c0.3-2.1,1.6-3.8,3.3-4.7L17,33.3z"/>
		<path class="st0" d="M49.4,39.5c-0.2-1.2-0.9-2.1-1.8-2.6L43.4,35c-0.7-0.3-1.1-1.1-1.1-2v-0.7c0-0.3,0-0.6,0.1-0.9
			c0,0,2.6-3.8,2.6-7.4c0-4.4-2.6-7.3-5.7-7.3c-1.5,0-2.9,0.7-3.9,1.9c0.1,0.5,0.1,1,0.1,1.5c0,2.3-0.7,4.5-1.5,6.4
			c0.7,2.6,2.2,4.9,2.2,4.9c0.1,0.3,0.1,0.6,0.1,0.9V33c0,0.1,0,0.2,0,0.2l1,0.5c1.8,0.9,3,2.7,3.4,4.7v0.1l0.3,3.9h6.8
			c0.5,0,0.9-0.2,1.2-0.6c0.3-0.4,0.5-0.9,0.4-1.4L49.4,39.5z"/>
		<path class="st0" d="M36.6,35.7l-5-2.3C30.8,33,30.2,32,30.2,31v-0.8c0-0.4,0.1-0.8,0.2-1.1c0,0,3.1-4.6,3.1-8.9
			c0-5.4-3.1-8.8-6.9-8.8s-6.9,3.4-6.9,8.8c0,4.3,3.1,8.9,3.1,8.9c0.1,0.4,0.2,0.7,0.2,1.1V31c0,1-0.5,1.9-1.4,2.4l-5,2.3
			c-1.2,0.6-2,1.8-2.2,3.2l-0.3,3.7h12.4h12.4l-0.3-3.7C38.6,37.5,37.8,36.3,36.6,35.7z"/>
	</g>
</g>
<rect y="0.3" class="st1" width="53.3" height="53.3"/>
<g id="圖層_5">
</g>
</svg>
