<?xml version="1.0" encoding="utf-8"?>
<!-- Generator: Adobe Illustrator 21.1.0, SVG Export Plug-In . SVG Version: 6.00 Build 0)  -->
<svg version="1.1" id="圖層_1" xmlns="http://www.w3.org/2000/svg" xmlns:xlink="http://www.w3.org/1999/xlink" x="0px" y="0px"
	 viewBox="0 0 53.3 53.3" style="enable-background:new 0 0 53.3 53.3;" xml:space="preserve">
<style type="text/css">
	.st0{fill:#15275C;}
	.st1{fill:none;}
</style>
<g id="Grid_Template">
</g>
<g id="COPYRIGHT__x40_CASGRAPHIC">
	<g id="BOOTSTRAP__Grid_options">
	</g>
</g>
<g id="圖層_6">
</g>
<g>
	<path class="st0" d="M48.5,17.3c-0.9-0.4-2.1-0.1-4.9,1.1l-9.4,4l-16.1-7c-0.4-0.2-0.9-0.2-1.1-0.1l-3.4,1.4
		c-0.2,0.1-0.1,0.4,0.3,0.7L25.8,26l-12.7,5.4l-8.9-5.2C3.9,26,3.5,26,3.3,26.1l-2.6,1.1c-0.2,0.1-0.3,0.4,0,0.7l5.5,6.5L4.7,35
		c-1.3,0.5-0.5,2.6,1,3s13.1,0.1,14.4-0.5l26.7-11.3c3.8-1.6,6.7-4.9,5.8-6.9C52.1,18.2,49.4,17.7,48.5,17.3z"/>
</g>
<rect class="st1" width="53.3" height="53.3"/>
</svg>
