<?xml version="1.0" encoding="utf-8"?>
<!-- Generator: Adobe Illustrator 21.1.0, SVG Export Plug-In . SVG Version: 6.00 Build 0)  -->
<svg version="1.1" xmlns="http://www.w3.org/2000/svg" xmlns:xlink="http://www.w3.org/1999/xlink" x="0px" y="0px"
	 viewBox="0 0 53.3 53.3" style="enable-background:new 0 0 53.3 53.3;" xml:space="preserve">
<style type="text/css">
	.st0{fill:#15275C;}
	.st1{fill:none;}
</style>
<g id="Grid_Template">
</g>
<g id="COPYRIGHT__x40_CASGRAPHIC">
	<g id="BOOTSTRAP__Grid_options">
	</g>
</g>
<g id="圖層_6">
</g>
<g id="圖層_4">
	<g>
		<g>
			<path class="st0" d="M17-56.6c0-0.1,0-0.2,0-0.2v-0.7c0-0.3,0-0.6,0.1-0.9c0,0,1.5-2.2,2.2-4.9c-0.8-1.8-1.5-4.1-1.5-6.4
				c0-0.5,0-1,0.1-1.5c-1-1.2-2.4-1.9-3.9-1.9c-3.2,0-5.7,2.8-5.7,7.3c0,3.5,2.6,7.4,2.6,7.4c0.1,0.3,0.1,0.6,0.1,0.9v0.7
				c0,0.8-0.4,1.6-1.1,2L5.7-53c-1,0.5-1.6,1.5-1.8,2.6l-0.1,1c0,0.5,0.1,1,0.4,1.4c0.3,0.4,0.8,0.6,1.2,0.6h6.8l0.3-3.9l0-0.1
				c0.3-2.1,1.6-3.8,3.3-4.7L17-56.6z"/>
			<path class="st0" d="M49.4-50.4c-0.2-1.2-0.9-2.1-1.8-2.6l-4.1-1.9c-0.7-0.3-1.1-1.1-1.1-2v-0.7c0-0.3,0-0.6,0.1-0.9
				c0,0,2.6-3.8,2.6-7.4c0-4.4-2.6-7.3-5.7-7.3c-1.5,0-2.9,0.7-3.9,1.9c0.1,0.5,0.1,1,0.1,1.5c0,2.3-0.7,4.5-1.5,6.4
				c0.7,2.6,2.2,4.9,2.2,4.9c0.1,0.3,0.1,0.6,0.1,0.9v0.7c0,0.1,0,0.2,0,0.2l1,0.5c1.8,0.9,3,2.7,3.4,4.7l0,0.1l0.3,3.9h6.8
				c0.5,0,0.9-0.2,1.2-0.6c0.3-0.4,0.5-0.9,0.4-1.4L49.4-50.4z"/>
			<path class="st0" d="M36.6-54.2l-5-2.3c-0.8-0.4-1.4-1.4-1.4-2.4v-0.8c0-0.4,0.1-0.8,0.2-1.1c0,0,3.1-4.6,3.1-8.9
				c0-5.4-3.1-8.8-6.9-8.8c-3.8,0-6.9,3.4-6.9,8.8c0,4.3,3.1,8.9,3.1,8.9c0.1,0.4,0.2,0.7,0.2,1.1v0.8c0,1-0.5,1.9-1.4,2.4l-5,2.3
				c-1.2,0.6-2,1.8-2.2,3.2l-0.3,3.7h12.4h12.4L38.8-51C38.6-52.4,37.8-53.6,36.6-54.2z"/>
		</g>
	</g>
	<rect y="-89.6" class="st1" width="53.3" height="53.3"/>
	<g>
		<path class="st0" d="M48.5,17.3c-0.9-0.4-2.1-0.1-4.9,1.1l-9.4,4l-16.1-7c-0.4-0.2-0.9-0.2-1.1-0.1l-3.4,1.4
			c-0.2,0.1-0.1,0.4,0.3,0.7l11.9,8.6l-12.7,5.4l-8.9-5.2c-0.3-0.2-0.7-0.2-0.9-0.1l-2.6,1.1c-0.2,0.1-0.3,0.4,0,0.7l5.5,6.5
			l-1.5,0.6c-1.3,0.5-0.5,2.6,1,3c1.5,0.4,13.1,0.1,14.4-0.5l26.7-11.3c3.8-1.6,6.7-4.9,5.8-6.9C52.1,18.2,49.4,17.7,48.5,17.3z"/>
	</g>
	<rect y="0" class="st1" width="53.3" height="53.3"/>
	<g>
		<path class="st0" d="M48.5,108.4c-0.9-0.4-2.1-0.1-4.9,1.1l-9.4,4l-16.1-7c-0.4-0.2-0.9-0.2-1.1-0.1l-3.4,1.4
			c-0.2,0.1-0.1,0.4,0.3,0.7l11.9,8.6l-12.7,5.4l-8.9-5.2c-0.3-0.2-0.7-0.2-0.9-0.1l-2.6,1.1c-0.2,0.1-0.3,0.4,0,0.7l5.5,6.5
			L4.7,126c-1.3,0.5-0.5,2.6,1,3c1.5,0.4,13.1,0.1,14.4-0.5l26.7-11.3c3.8-1.6,6.7-4.9,5.8-6.9C52.1,109.3,49.4,108.8,48.5,108.4z"
			/>
	</g>
	<rect y="91.1" class="st1" width="53.3" height="53.3"/>
	<path class="st0" d="M43.9,195.3H33.7v-2.1c0-1.8-1.4-3.2-3.2-3.2h-7.8c-1.8,0-3.2,1.4-3.2,3.2v2.1H9.7c-1.1,0-1.8,0.7-1.8,1.8v24
		c0,1.1,0.7,1.8,1.8,1.8h33.8c1.1,0,1.8-0.7,1.8-1.8v-24C45.3,196,44.6,195.3,43.9,195.3z M22.4,193.2c0-0.4,0.4-0.4,0.4-0.4h7.8
		c0.4,0,0.4,0.4,0.4,0.4v2.2h-8.5V193.2z"/>
	<rect x="0" y="179.8" class="st1" width="53.3" height="53.3"/>
	<g>
		<path class="st0" d="M26.5,288.5c-0.6,1.8-1.2,3.6-1.8,5.3l-0.8,2.2h5.3l-0.8-2.2C27.8,292.1,27.2,290.3,26.5,288.5L26.5,288.5z"
			/>
		<path class="st0" d="M44.9,291.7c-1.9-9.2-11.7-15.2-21.8-13.5C13,280,6.5,288.9,8.4,298.1c1.2,5.7,5.4,10.1,10.7,12.3l0.1,4.3
			l3.4-3.2c2.5,0.5,5,0.6,7.7,0.1C40.4,309.8,46.9,300.9,44.9,291.7z M31.3,302.5l-1.6-4.5h-6.4l-1.6,4.5h-2.6l5.9-15.9h3.1l6,15.9
			H31.3z"/>
	</g>
	<rect y="269.6" class="st1" width="53.3" height="53.3"/>
	<g>
		<g>
			<path class="st0" d="M17,392.5c0-0.1,0-0.2,0-0.2v-0.7c0-0.3,0-0.6,0.1-0.9c0,0,1.5-2.2,2.2-4.9c-0.8-1.8-1.5-4.1-1.5-6.4
				c0-0.5,0-1,0.1-1.5c-1-1.2-2.4-1.9-3.9-1.9c-3.2,0-5.7,2.8-5.7,7.3c0,3.5,2.6,7.4,2.6,7.4c0.1,0.3,0.1,0.6,0.1,0.9v0.7
				c0,0.8-0.4,1.6-1.1,2l-4.1,1.9c-1,0.5-1.6,1.5-1.8,2.6l-0.1,1c0,0.5,0.1,1,0.4,1.4c0.3,0.4,0.8,0.6,1.2,0.6h6.8l0.3-3.9l0-0.1
				c0.3-2.1,1.6-3.8,3.3-4.7L17,392.5z"/>
			<path class="st0" d="M49.4,398.7c-0.2-1.2-0.9-2.1-1.8-2.6l-4.1-1.9c-0.7-0.3-1.1-1.1-1.1-2v-0.7c0-0.3,0-0.6,0.1-0.9
				c0,0,2.6-3.8,2.6-7.4c0-4.4-2.6-7.3-5.7-7.3c-1.5,0-2.9,0.7-3.9,1.9c0.1,0.5,0.1,1,0.1,1.5c0,2.3-0.7,4.5-1.5,6.4
				c0.7,2.6,2.2,4.9,2.2,4.9c0.1,0.3,0.1,0.6,0.1,0.9v0.7c0,0.1,0,0.2,0,0.2l1,0.5c1.8,0.9,3,2.7,3.4,4.7l0,0.1l0.3,3.9h6.8
				c0.5,0,0.9-0.2,1.2-0.6c0.3-0.4,0.5-0.9,0.4-1.4L49.4,398.7z"/>
			<path class="st0" d="M36.6,394.9l-5-2.3c-0.8-0.4-1.4-1.4-1.4-2.4v-0.8c0-0.4,0.1-0.8,0.2-1.1c0,0,3.1-4.6,3.1-8.9
				c0-5.4-3.1-8.8-6.9-8.8c-3.8,0-6.9,3.4-6.9,8.8c0,4.3,3.1,8.9,3.1,8.9c0.1,0.4,0.2,0.7,0.2,1.1v0.8c0,1-0.5,1.9-1.4,2.4l-5,2.3
				c-1.2,0.6-2,1.8-2.2,3.2l-0.3,3.7h12.4h12.4l-0.3-3.7C38.6,396.7,37.8,395.5,36.6,394.9z"/>
		</g>
	</g>
	<rect x="0" y="359.5" class="st1" width="53.3" height="53.3"/>
	<g>
		<path class="st0" d="M44.1,474.4c-0.4-4.2-2.3-8-5.1-10.8c-2.8-2.8-6.6-4.7-10.8-5.1v-4.1H25v4.1c-4.2,0.4-8,2.3-10.8,5.1
			c-2.8,2.8-4.7,6.6-5.1,10.8H5v3.3h4.1c0.4,4.2,2.3,8,5.1,10.8c2.8,2.8,6.6,4.7,10.8,5.1v4.1h3.3v-4.1c4.2-0.4,8-2.3,10.8-5.1
			c2.8-2.8,4.7-6.6,5.1-10.8h4.1v-3.3L44.1,474.4L44.1,474.4z M40.7,477.7c-0.4,3.3-1.9,6.2-4.1,8.4c-2.2,2.2-5.1,3.7-8.4,4.1v-5.8
			H25v5.8c-3.3-0.4-6.2-1.8-8.4-4.1c-2.2-2.2-3.7-5.1-4.1-8.4h5.8v-3.3h-5.8c0.4-3.3,1.8-6.2,4.1-8.4c2.2-2.2,5.1-3.7,8.4-4.1v5.8
			h3.3V462c3.3,0.4,6.2,1.9,8.4,4.1c2.2,2.2,3.7,5.1,4.1,8.4h-5.8v3.3H40.7z"/>
		<path class="st0" d="M26.6,471.3c-2.6,0-4.8,2.1-4.8,4.8s2.1,4.8,4.8,4.8c2.6,0,4.8-2.1,4.8-4.8C31.4,473.4,29.2,471.3,26.6,471.3
			z"/>
	</g>
	<rect x="0" y="449.4" class="st1" width="53.3" height="53.3"/>
</g>
<g id="圖層_5">
</g>
</svg>
