<?xml version="1.0" encoding="utf-8"?>
<!-- Generator: Adobe Illustrator 21.1.0, SVG Export Plug-In . SVG Version: 6.00 Build 0)  -->
<svg version="1.1" id="圖層_1" xmlns="http://www.w3.org/2000/svg" xmlns:xlink="http://www.w3.org/1999/xlink" x="0px" y="0px"
	 viewBox="0 0 53.3 53.3" style="enable-background:new 0 0 53.3 53.3;" xml:space="preserve">
<style type="text/css">
	.st0{fill:#15275C;}
	.st1{fill:none;}
</style>
<g id="Grid_Template">
</g>
<g id="COPYRIGHT__x40_CASGRAPHIC">
	<g id="BOOTSTRAP__Grid_options">
	</g>
</g>
<g id="圖層_6">
</g>
<path class="st0" d="M43.9,15.5H33.7v-2.1c0-1.8-1.4-3.2-3.2-3.2h-7.8c-1.8,0-3.2,1.4-3.2,3.2v2.1H9.7c-1.1,0-1.8,0.7-1.8,1.8v24
	c0,1.1,0.7,1.8,1.8,1.8h33.8c1.1,0,1.8-0.7,1.8-1.8v-24C45.3,16.2,44.6,15.5,43.9,15.5z M22.4,13.4c0-0.4,0.4-0.4,0.4-0.4h7.8
	c0.4,0,0.4,0.4,0.4,0.4v2.2h-8.5L22.4,13.4L22.4,13.4z"/>
<rect class="st1" width="53.3" height="53.3"/>
</svg>
