<?xml version="1.0" encoding="utf-8"?>
<!-- Generator: Adobe Illustrator 21.1.0, SVG Export Plug-In . SVG Version: 6.00 Build 0)  -->
<svg version="1.1" xmlns="http://www.w3.org/2000/svg" xmlns:xlink="http://www.w3.org/1999/xlink" x="0px" y="0px"
	 viewBox="0 0 53.3 53.3" style="enable-background:new 0 0 53.3 53.3;" xml:space="preserve">
<style type="text/css">
	.st0{fill:#15275C;}
	.st1{fill:none;}
</style>
<g id="Grid_Template">
</g>
<g id="COPYRIGHT__x40_CASGRAPHIC">
	<g id="BOOTSTRAP__Grid_options">
	</g>
</g>
<g id="圖層_6">
</g>
<g id="圖層_4">
	<g>
		<g>
			<path class="st0" d="M16.9-236.4c0-0.1,0-0.2,0-0.2v-0.7c0-0.3,0-0.6,0.1-0.9c0,0,1.5-2.2,2.2-4.9c-0.8-1.8-1.5-4.1-1.5-6.4
				c0-0.5,0-1,0.1-1.5c-1-1.2-2.4-1.9-3.9-1.9c-3.2,0-5.7,2.8-5.7,7.3c0,3.5,2.6,7.4,2.6,7.4c0.1,0.3,0.1,0.6,0.1,0.9v0.7
				c0,0.8-0.4,1.6-1.1,2l-4.1,1.9c-1,0.5-1.6,1.5-1.8,2.6l-0.1,1c0,0.5,0.1,1,0.4,1.4c0.3,0.4,0.8,0.6,1.2,0.6h6.8l0.3-3.9l0-0.1
				c0.3-2.1,1.6-3.8,3.3-4.7L16.9-236.4z"/>
			<path class="st0" d="M49.3-230.2c-0.2-1.2-0.9-2.1-1.8-2.6l-4.1-1.9c-0.7-0.3-1.1-1.1-1.1-2v-0.7c0-0.3,0-0.6,0.1-0.9
				c0,0,2.6-3.8,2.6-7.4c0-4.4-2.6-7.3-5.7-7.3c-1.5,0-2.9,0.7-3.9,1.9c0.1,0.5,0.1,1,0.1,1.5c0,2.3-0.7,4.5-1.5,6.4
				c0.7,2.6,2.2,4.9,2.2,4.9c0.1,0.3,0.1,0.6,0.1,0.9v0.7c0,0.1,0,0.2,0,0.2l1,0.5c1.8,0.9,3,2.7,3.4,4.7l0,0.1l0.3,3.9h6.8
				c0.5,0,0.9-0.2,1.2-0.6c0.3-0.4,0.5-0.9,0.4-1.4L49.3-230.2z"/>
			<path class="st0" d="M36.6-234l-5-2.3c-0.8-0.4-1.4-1.4-1.4-2.4v-0.8c0-0.4,0.1-0.8,0.2-1.1c0,0,3.1-4.6,3.1-8.9
				c0-5.4-3.1-8.8-6.9-8.8c-3.8,0-6.9,3.4-6.9,8.8c0,4.3,3.1,8.9,3.1,8.9c0.1,0.4,0.2,0.7,0.2,1.1v0.8c0,1-0.5,1.9-1.4,2.4l-5,2.3
				c-1.2,0.6-2,1.8-2.2,3.2l-0.3,3.7h12.4H39l-0.3-3.7C38.6-232.2,37.7-233.4,36.6-234z"/>
		</g>
	</g>
	<rect x="0" y="-269.3" class="st1" width="53.3" height="53.3"/>
	<g>
		<path class="st0" d="M48.4-162.5c-0.9-0.4-2.1-0.1-4.9,1.1l-9.4,4l-16.1-7c-0.4-0.2-0.9-0.2-1.1-0.1l-3.4,1.4
			c-0.2,0.1-0.1,0.4,0.3,0.7l11.9,8.6l-12.7,5.4l-8.9-5.2c-0.3-0.2-0.7-0.2-0.9-0.1l-2.6,1.1c-0.2,0.1-0.3,0.4,0,0.7l5.5,6.5
			l-1.5,0.6c-1.3,0.5-0.5,2.6,1,3c1.5,0.4,13.1,0.1,14.4-0.5l26.7-11.3c3.8-1.6,6.7-4.9,5.8-6.9C52.1-161.6,49.4-162,48.4-162.5z"/>
	</g>
	<rect x="0" y="-179.8" class="st1" width="53.3" height="53.3"/>
	<g>
		<path class="st0" d="M48.4-72.6c-0.9-0.4-2.1-0.1-4.9,1.1l-9.4,4l-16.1-7c-0.4-0.2-0.9-0.2-1.1-0.1l-3.4,1.4
			c-0.2,0.1-0.1,0.4,0.3,0.7l11.9,8.6l-12.7,5.4l-8.9-5.2c-0.3-0.2-0.7-0.2-0.9-0.1l-2.6,1.1c-0.2,0.1-0.3,0.4,0,0.7l5.5,6.5L4.6-55
			c-1.3,0.5-0.5,2.6,1,3c1.5,0.4,13.1,0.1,14.4-0.5l26.7-11.3c3.8-1.6,6.7-4.9,5.8-6.9C52.1-71.7,49.4-72.2,48.4-72.6z"/>
	</g>
	<rect x="0" y="-89.9" class="st1" width="53.3" height="53.3"/>
	<path class="st0" d="M43.9,15.5H33.7v-2.1c0-1.8-1.4-3.2-3.2-3.2h-7.8c-1.8,0-3.2,1.4-3.2,3.2v2.1H9.7c-1.1,0-1.8,0.7-1.8,1.8v24
		c0,1.1,0.7,1.8,1.8,1.8h33.8c1.1,0,1.8-0.7,1.8-1.8v-24C45.3,16.2,44.6,15.5,43.9,15.5z M22.4,13.4c0-0.4,0.4-0.4,0.4-0.4h7.8
		c0.4,0,0.4,0.4,0.4,0.4v2.2h-8.5V13.4z"/>
	<rect x="0" class="st1" width="53.3" height="53.3"/>
	<g>
		<path class="st0" d="M26.5,108.7c-0.6,1.8-1.2,3.6-1.8,5.3l-0.8,2.2h5.3l-0.8-2.2C27.8,112.3,27.2,110.5,26.5,108.7L26.5,108.7z"
			/>
		<path class="st0" d="M44.9,112c-1.9-9.2-11.7-15.2-21.8-13.5C13,100.2,6.4,109.1,8.4,118.3c1.2,5.7,5.4,10.1,10.7,12.3l0.1,4.3
			l3.4-3.2c2.5,0.5,5,0.6,7.7,0.1C40.3,130.1,46.9,121.1,44.9,112z M31.3,122.7l-1.6-4.5h-6.4l-1.6,4.5h-2.6l5.9-15.9h3.1l6,15.9
			H31.3z"/>
	</g>
	<rect x="0" y="89.9" class="st1" width="53.3" height="53.3"/>
	<g>
		<g>
			<path class="st0" d="M16.9,212.7c0-0.1,0-0.2,0-0.2v-0.7c0-0.3,0-0.6,0.1-0.9c0,0,1.5-2.2,2.2-4.9c-0.8-1.8-1.5-4.1-1.5-6.4
				c0-0.5,0-1,0.1-1.5c-1-1.2-2.4-1.9-3.9-1.9c-3.2,0-5.7,2.8-5.7,7.3c0,3.5,2.6,7.4,2.6,7.4c0.1,0.3,0.1,0.6,0.1,0.9v0.7
				c0,0.8-0.4,1.6-1.1,2l-4.1,1.9c-1,0.5-1.6,1.5-1.8,2.6l-0.1,1c0,0.5,0.1,1,0.4,1.4c0.3,0.4,0.8,0.6,1.2,0.6h6.8l0.3-3.9l0-0.1
				c0.3-2.1,1.6-3.8,3.3-4.7L16.9,212.7z"/>
			<path class="st0" d="M49.3,218.9c-0.2-1.2-0.9-2.1-1.8-2.6l-4.1-1.9c-0.7-0.3-1.1-1.1-1.1-2v-0.7c0-0.3,0-0.6,0.1-0.9
				c0,0,2.6-3.8,2.6-7.4c0-4.4-2.6-7.3-5.7-7.3c-1.5,0-2.9,0.7-3.9,1.9c0.1,0.5,0.1,1,0.1,1.5c0,2.3-0.7,4.5-1.5,6.4
				c0.7,2.6,2.2,4.9,2.2,4.9c0.1,0.3,0.1,0.6,0.1,0.9v0.7c0,0.1,0,0.2,0,0.2l1,0.5c1.8,0.9,3,2.7,3.4,4.7l0,0.1l0.3,3.9h6.8
				c0.5,0,0.9-0.2,1.2-0.6c0.3-0.4,0.5-0.9,0.4-1.4L49.3,218.9z"/>
			<path class="st0" d="M36.5,215.1l-5-2.3c-0.8-0.4-1.4-1.4-1.4-2.4v-0.8c0-0.4,0.1-0.8,0.2-1.1c0,0,3.1-4.6,3.1-8.9
				c0-5.4-3.1-8.8-6.9-8.8c-3.8,0-6.9,3.4-6.9,8.8c0,4.3,3.1,8.9,3.1,8.9c0.1,0.4,0.2,0.7,0.2,1.1v0.8c0,1-0.5,1.9-1.4,2.4l-5,2.3
				c-1.2,0.6-2,1.8-2.2,3.2l-0.3,3.7h12.4H39l-0.3-3.7C38.5,216.9,37.7,215.7,36.5,215.1z"/>
		</g>
	</g>
	<rect x="-0.1" y="179.8" class="st1" width="53.3" height="53.3"/>
	<g>
		<path class="st0" d="M44,294.6c-0.4-4.2-2.3-8-5.1-10.8c-2.8-2.8-6.6-4.7-10.8-5.1v-4.1h-3.3v4.1c-4.2,0.4-8,2.3-10.8,5.1
			c-2.8,2.8-4.7,6.6-5.1,10.8H5v3.3h4.1c0.4,4.2,2.3,8,5.1,10.8c2.8,2.8,6.6,4.7,10.8,5.1v4.1h3.3v-4.1c4.2-0.4,8-2.3,10.8-5.1
			c2.8-2.8,4.7-6.6,5.1-10.8h4.1v-3.3L44,294.6L44,294.6z M40.6,297.9c-0.4,3.3-1.9,6.2-4.1,8.4c-2.2,2.2-5.1,3.7-8.4,4.1v-5.8h-3.3
			v5.8c-3.3-0.4-6.2-1.8-8.4-4.1c-2.2-2.2-3.7-5.1-4.1-8.4h5.8v-3.3h-5.8c0.4-3.3,1.8-6.2,4.1-8.4c2.2-2.2,5.1-3.7,8.4-4.1v5.8h3.3
			v-5.8c3.3,0.4,6.2,1.9,8.4,4.1c2.2,2.2,3.7,5.1,4.1,8.4h-5.8v3.3H40.6z"/>
		<path class="st0" d="M26.6,291.5c-2.6,0-4.8,2.1-4.8,4.8s2.1,4.8,4.8,4.8c2.6,0,4.8-2.1,4.8-4.8C31.3,293.6,29.2,291.5,26.6,291.5
			z"/>
	</g>
	<rect x="-0.1" y="269.6" class="st1" width="53.3" height="53.3"/>
</g>
<g id="圖層_5">
</g>
</svg>
