<?xml version="1.0" encoding="utf-8"?>
<!-- Generator: Adobe Illustrator 21.1.0, SVG Export Plug-In . SVG Version: 6.00 Build 0)  -->
<svg version="1.1" id="圖層_1" xmlns="http://www.w3.org/2000/svg" xmlns:xlink="http://www.w3.org/1999/xlink" x="0px" y="0px"
	 viewBox="0 0 53.3 53.3" style="enable-background:new 0 0 53.3 53.3;" xml:space="preserve">
<style type="text/css">
	.st0{fill:none;}
	.st1{fill:#15275C;}
</style>
<g id="Grid_Template">
</g>
<g id="COPYRIGHT__x40_CASGRAPHIC">
	<g id="BOOTSTRAP__Grid_options">
	</g>
</g>
<g id="圖層_6">
</g>
<g>
	<rect class="st0" width="53.3" height="53.3"/>
	<path class="st1" d="M44.9,22c-2-9.2-11.7-15.2-21.8-13.5C12.9,10.3,6.4,19.2,8.3,28.4c1.2,5.7,5.4,10.1,10.7,12.3l0.1,4.3l3.4-3.2
		c2.5,0.5,5,0.6,7.7,0.1C40.3,40.1,46.8,31.2,44.9,22z M24,24.8l-0.3,1.6h-5.1l-0.8,4h6l-0.3,1.6h-7.9l2.6-12.8h7.8l-0.3,1.6h-5.9
		l-0.8,3.9H24z M35.1,32.1h-1.6l-3.9-9.2l-1.9,9.2h-1.9l2.6-12.8h1.6l3.9,9.2l1.8-9.2h1.9L35.1,32.1z"/>
</g>
</svg>
