<?xml version="1.0" encoding="utf-8"?>
<!-- Generator: Adobe Illustrator 21.1.0, SVG Export Plug-In . SVG Version: 6.00 Build 0)  -->
<svg version="1.1" id="圖層_1" xmlns="http://www.w3.org/2000/svg" xmlns:xlink="http://www.w3.org/1999/xlink" x="0px" y="0px"
	 viewBox="0 0 53.3 53.3" style="enable-background:new 0 0 53.3 53.3;" xml:space="preserve">
<style type="text/css">
	.st0{fill:#15275C;}
	.st1{fill:none;}
</style>
<g id="Grid_Template">
</g>
<g id="COPYRIGHT__x40_CASGRAPHIC">
	<g id="BOOTSTRAP__Grid_options">
	</g>
</g>
<g id="圖層_6">
</g>
<g>
	<g>
		<path class="st0" d="M17-416.1c0-0.1,0-0.2,0-0.2v-0.7c0-0.3,0-0.6,0.1-0.9c0,0,1.5-2.2,2.2-4.9c-0.8-1.8-1.5-4.1-1.5-6.4
			c0-0.5,0-1,0.1-1.5c-1-1.2-2.4-1.9-3.9-1.9c-3.2,0-5.7,2.8-5.7,7.3c0,3.5,2.6,7.4,2.6,7.4c0.1,0.3,0.1,0.6,0.1,0.9v0.7
			c0,0.8-0.4,1.6-1.1,2l-4.1,1.9c-1,0.5-1.6,1.5-1.8,2.6l-0.1,1c0,0.5,0.1,1,0.4,1.4s0.8,0.6,1.2,0.6h6.8l0.3-3.9v-0.1
			c0.3-2.1,1.6-3.8,3.3-4.7L17-416.1z"/>
		<path class="st0" d="M49.4-409.9c-0.2-1.2-0.9-2.1-1.8-2.6l-4.1-1.9c-0.7-0.3-1.1-1.1-1.1-2v-0.7c0-0.3,0-0.6,0.1-0.9
			c0,0,2.6-3.8,2.6-7.4c0-4.4-2.6-7.3-5.7-7.3c-1.5,0-2.9,0.7-3.9,1.9c0.1,0.5,0.1,1,0.1,1.5c0,2.3-0.7,4.5-1.5,6.4
			c0.7,2.6,2.2,4.9,2.2,4.9c0.1,0.3,0.1,0.6,0.1,0.9v0.7c0,0.1,0,0.2,0,0.2l1,0.5c1.8,0.9,3,2.7,3.4,4.7v0.1l0.3,3.9h6.8
			c0.5,0,0.9-0.2,1.2-0.6s0.5-0.9,0.4-1.4L49.4-409.9z"/>
		<path class="st0" d="M36.6-413.7l-5-2.3c-0.8-0.4-1.4-1.4-1.4-2.4v-0.8c0-0.4,0.1-0.8,0.2-1.1c0,0,3.1-4.6,3.1-8.9
			c0-5.4-3.1-8.8-6.9-8.8s-6.9,3.4-6.9,8.8c0,4.3,3.1,8.9,3.1,8.9c0.1,0.4,0.2,0.7,0.2,1.1v0.8c0,1-0.5,1.9-1.4,2.4l-5,2.3
			c-1.2,0.6-2,1.8-2.2,3.2l-0.3,3.7h12.4h12.4l-0.3-3.7C38.6-411.9,37.8-413.1,36.6-413.7z"/>
	</g>
</g>
<rect y="-449.1" class="st1" width="53.3" height="53.3"/>
<g>
	<path class="st0" d="M48.5-342.2c-0.9-0.4-2.1-0.1-4.9,1.1l-9.4,4l-16.1-7c-0.4-0.2-0.9-0.2-1.1-0.1l-3.4,1.4
		c-0.2,0.1-0.1,0.4,0.3,0.7l11.9,8.6l-12.7,5.4l-8.9-5.2c-0.3-0.2-0.7-0.2-0.9-0.1l-2.6,1.1c-0.2,0.1-0.3,0.4,0,0.7l5.5,6.5
		l-1.5,0.6c-1.3,0.5-0.5,2.6,1,3s13.1,0.1,14.4-0.5l26.7-11.3c3.8-1.6,6.7-4.9,5.8-6.9C52.1-341.3,49.4-341.8,48.5-342.2z"/>
</g>
<rect y="-359.5" class="st1" width="53.3" height="53.3"/>
<g>
	<path class="st0" d="M48.5-252.3c-0.9-0.4-2.1-0.1-4.9,1.1l-9.4,4l-16.1-7c-0.4-0.2-0.9-0.2-1.1-0.1l-3.4,1.4
		c-0.2,0.1-0.1,0.4,0.3,0.7l11.9,8.6l-12.7,5.4l-8.9-5.2c-0.3-0.2-0.7-0.2-0.9-0.1l-2.6,1.1c-0.2,0.1-0.3,0.4,0,0.7l5.5,6.5
		l-1.5,0.6c-1.3,0.5-0.5,2.6,1,3s13.1,0.1,14.4-0.5l26.7-11.3c3.8-1.6,6.7-4.9,5.8-6.9C52.1-251.4,49.4-251.9,48.5-252.3z"/>
</g>
<rect y="-269.6" class="st1" width="53.3" height="53.3"/>
<path class="st0" d="M43.9-164.2H33.7v-2.1c0-1.8-1.4-3.2-3.2-3.2h-7.8c-1.8,0-3.2,1.4-3.2,3.2v2.1H9.7c-1.1,0-1.8,0.7-1.8,1.8v24
	c0,1.1,0.7,1.8,1.8,1.8h33.8c1.1,0,1.8-0.7,1.8-1.8v-24C45.4-163.5,44.6-164.2,43.9-164.2z M22.4-166.3c0-0.4,0.4-0.4,0.4-0.4h7.8
	c0.4,0,0.4,0.4,0.4,0.4v2.2h-8.5L22.4-166.3L22.4-166.3z"/>
<rect y="-179.8" class="st1" width="53.3" height="53.3"/>
<g>
	<path class="st0" d="M26.5-71c-0.6,1.8-1.2,3.6-1.8,5.3l-0.8,2.2h5.3l-0.8-2.2C27.8-67.5,27.2-69.2,26.5-71L26.5-71z"/>
	<path class="st0" d="M45-67.8C43-77,33.3-83,23.2-81.3C13-79.5,6.5-70.6,8.4-61.4c1.2,5.7,5.4,10.1,10.7,12.3l0.1,4.3l3.4-3.2
		c2.5,0.5,5,0.6,7.7,0.1C40.4-49.7,46.9-58.6,45-67.8z M31.4-57.1l-1.6-4.5h-6.4l-1.6,4.5h-2.6L25-72.9h3.1l6,15.9L31.4-57.1
		L31.4-57.1z"/>
</g>
<rect y="-89.9" class="st1" width="53.3" height="53.3"/>
<g>
	<g>
		<path class="st0" d="M17,33c0-0.1,0-0.2,0-0.2v-0.7c0-0.3,0-0.6,0.1-0.9c0,0,1.5-2.2,2.2-4.9c-0.8-1.8-1.5-4.1-1.5-6.4
			c0-0.5,0-1,0.1-1.5c-1-1.2-2.4-1.9-3.9-1.9c-3.2,0-5.7,2.8-5.7,7.3c0,3.5,2.6,7.4,2.6,7.4c0.1,0.3,0.1,0.6,0.1,0.9v0.7
			c0,0.8-0.4,1.6-1.1,2l-4.1,1.9c-1,0.5-1.6,1.5-1.8,2.6l-0.1,1c0,0.5,0.1,1,0.4,1.4s0.8,0.6,1.2,0.6h6.8l0.3-3.9v-0.1
			c0.3-2.1,1.6-3.8,3.3-4.7L17,33z"/>
		<path class="st0" d="M49.4,39.2c-0.2-1.2-0.9-2.1-1.8-2.6l-4.1-1.9c-0.7-0.3-1.1-1.1-1.1-2V32c0-0.3,0-0.6,0.1-0.9
			c0,0,2.6-3.8,2.6-7.4c0-4.4-2.6-7.3-5.7-7.3c-1.5,0-2.9,0.7-3.9,1.9c0.1,0.5,0.1,1,0.1,1.5c0,2.3-0.7,4.5-1.5,6.4
			c0.7,2.6,2.2,4.9,2.2,4.9c0.1,0.3,0.1,0.6,0.1,0.9v0.7c0,0.1,0,0.2,0,0.2l1,0.5c1.8,0.9,3,2.7,3.4,4.7v0.1l0.3,3.9h6.8
			c0.5,0,0.9-0.2,1.2-0.6c0.3-0.4,0.5-0.9,0.4-1.4L49.4,39.2z"/>
		<path class="st0" d="M36.6,35.4l-5-2.3c-0.8-0.4-1.4-1.4-1.4-2.4v-0.8c0-0.4,0.1-0.8,0.2-1.1c0,0,3.1-4.6,3.1-8.9
			c0-5.4-3.1-8.8-6.9-8.8s-6.9,3.4-6.9,8.8c0,4.3,3.1,8.9,3.1,8.9c0.1,0.4,0.2,0.7,0.2,1.1v0.8c0,1-0.5,1.9-1.4,2.4l-5,2.3
			c-1.2,0.6-2,1.8-2.2,3.2l-0.3,3.7h12.4h12.4l-0.3-3.7C38.6,37.2,37.8,36,36.6,35.4z"/>
	</g>
</g>
<rect class="st1" width="53.3" height="53.3"/>
<g>
	<path class="st0" d="M44.1,114.9c-0.4-4.2-2.3-8-5.1-10.8s-6.6-4.7-10.8-5.1v-4.1H25V99c-4.2,0.4-8,2.3-10.8,5.1
		c-2.8,2.8-4.7,6.6-5.1,10.8H5v3.3h4.1c0.4,4.2,2.3,8,5.1,10.8c2.8,2.8,6.6,4.7,10.8,5.1v4.1h3.3V134c4.2-0.4,8-2.3,10.8-5.1
		s4.7-6.6,5.1-10.8h4.1v-3.3L44.1,114.9L44.1,114.9z M40.7,118.2c-0.4,3.3-1.9,6.2-4.1,8.4c-2.2,2.2-5.1,3.7-8.4,4.1v-5.8H25v5.8
		c-3.3-0.4-6.2-1.8-8.4-4.1c-2.2-2.2-3.7-5.1-4.1-8.4h5.8v-3.3h-5.8c0.4-3.3,1.8-6.2,4.1-8.4c2.2-2.2,5.1-3.7,8.4-4.1v5.8h3.3v-5.8
		c3.3,0.4,6.2,1.9,8.4,4.1s3.7,5.1,4.1,8.4H35v3.3H40.7z"/>
	<path class="st0" d="M26.6,111.8c-2.6,0-4.8,2.1-4.8,4.8c0,2.6,2.1,4.8,4.8,4.8c2.6,0,4.8-2.1,4.8-4.8
		C31.4,113.9,29.3,111.8,26.6,111.8z"/>
</g>
<rect y="89.9" class="st1" width="53.3" height="53.3"/>
<g id="圖層_5">
</g>
<path class="st0" d="M105.3-67.8c-2-9.2-11.7-15.2-21.8-13.5c-10.2,1.8-16.7,10.7-14.8,19.9c1.2,5.7,5.4,10.1,10.7,12.3l0.1,4.3
	l3.4-3.2c2.5,0.5,5,0.6,7.7,0.1C100.7-49.7,107.2-58.6,105.3-67.8z"/>
<rect x="74.6" y="-73.9" class="st1" width="36.8" height="17.4"/>
<text transform="matrix(1 0 0 1 74.6247 -58.4668)" style="fill:#A6A6A6; font-family:'DIN-MediumItalic'; font-size:18px;">EN</text>
</svg>
