<?xml version="1.0" encoding="utf-8"?>
<!-- Generator: Adobe Illustrator 21.1.0, SVG Export Plug-In . SVG Version: 6.00 Build 0)  -->
<svg version="1.1" id="圖層_1" xmlns="http://www.w3.org/2000/svg" xmlns:xlink="http://www.w3.org/1999/xlink" x="0px" y="0px"
	 viewBox="0 0 53.3 53.3" style="enable-background:new 0 0 53.3 53.3;" xml:space="preserve">
<style type="text/css">
	.st0{fill:none;}
	.st1{fill:#15275C;}
</style>
<g id="Grid_Template">
</g>
<g id="COPYRIGHT__x40_CASGRAPHIC">
	<g id="BOOTSTRAP__Grid_options">
	</g>
</g>
<g id="圖層_6">
</g>
<rect class="st0" width="53.3" height="53.3"/>
<g id="圖層_5">
</g>
<image style="overflow:visible;" width="450" height="470" xlink:href="C:\Users\chaiyupung\Desktop\教育特刊\icon特色大學\stock-vector-target-icon-darts-icon-604195979.jpg"  transform="matrix(0.24 0 0 0.24 183.25 -12)">
</image>
<g>
	<path class="st1" d="M27.1,30.5c-0.6,0.6-1.3,0.9-2.1,0.9c-0.8,0-1.5-0.3-2.1-0.9c-1.2-1.2-1.2-3,0-4.2l5.5-5.5
		c-1.2-0.5-2.5-0.8-3.9-0.8c-5.3,0-9.6,4.3-9.6,9.6c0,5.3,4.3,9.6,9.6,9.6c5.3,0,9.6-4.3,9.6-9.6c0-1.7-0.5-3.4-1.3-4.8L27.1,30.5z"
		/>
	<path class="st1" d="M49.2,6.6L26.3,29.5c-0.7,0.7-1.8,0.7-2.5,0l0,0c-0.7-0.7-0.7-1.8,0-2.5L46.7,4.1c0.7-0.7,1.8-0.7,2.5,0l0,0
		C49.9,4.8,49.9,5.9,49.2,6.6z"/>
	<path class="st1" d="M36.1,21.5c1.6,2.3,2.6,5.1,2.6,8.1c0,7.8-6.3,14.1-14.1,14.1s-14.1-6.3-14.1-14.1s6.3-14.1,14.1-14.1
		c2.6,0,5.1,0.7,7.2,2l3.9-3.9c-3.2-2.2-7-3.5-11.1-3.5C13.7,10.1,5,18.9,5,29.6s8.8,19.5,19.5,19.5S44,40.4,44,29.6
		c0-4.5-1.5-8.6-4.1-11.9L36.1,21.5z"/>
	<polygon class="st1" points="45.3,17.7 39.5,14.1 35.9,8.3 43.3,1 46.8,6.8 52.6,10.4 	"/>
</g>
</svg>
