<?xml version="1.0" encoding="utf-8"?>
<!-- Generator: Adobe Illustrator 21.1.0, SVG Export Plug-In . SVG Version: 6.00 Build 0)  -->
<svg version="1.1" id="圖層_1" xmlns="http://www.w3.org/2000/svg" xmlns:xlink="http://www.w3.org/1999/xlink" x="0px" y="0px"
	 viewBox="0 0 200 200" style="enable-background:new 0 0 200 200;" xml:space="preserve">
<style type="text/css">
	.st0{fill:#FFFFFF;stroke:#15275C;stroke-width:4;stroke-linecap:round;stroke-linejoin:round;stroke-miterlimit:10;}
	.st1{fill:#15275C;stroke:#15275C;stroke-width:4;stroke-linecap:round;stroke-linejoin:round;stroke-miterlimit:10;}
	.st2{fill:#FC6222;}
	.st3{fill:#FFD23E;}
	.st4{fill:#FFFFFF;}
	.st5{fill:none;stroke:#15275C;stroke-width:4;stroke-linecap:round;stroke-linejoin:round;stroke-miterlimit:10;}
	.st6{fill:none;}
</style>
<g>
	<g>
		<g>
			<path class="st0" d="M120.9,43.8c17,1.8,29.4,17.1,27.5,34.1c-1.1,10.5-7.3,19.2-15.9,23.9l0.6,7.8l-6.1-5.4
				c-4,1.3-8.3,1.8-12.7,1.3c-17-1.8-29.4-17.1-27.5-34.1C88.7,54.4,103.8,41.9,120.9,43.8z"/>
			<path class="st1" d="M64.1,46.2C48.3,49.5,38.3,65,41.6,80.7c2,9.7,8.7,17.2,17.1,20.8l0.2,7.3l5.2-5.6c3.9,0.8,7.9,0.9,12,0
				c15.8-3.3,25.8-18.8,22.5-34.5S79.9,42.9,64.1,46.2z"/>
			<g>
				<path class="st2" d="M139,114.8c0,0,8.5,0,10.7,7.8c2.1,7.8-2.1,21.3-10.7,21.3h-0.2c-8.6,0-12.8-13.5-10.7-21.3
					s10.7-7.8,10.7-7.8H139z"/>
				<path class="st2" d="M134.2,140.4c0,0,1.4,6.4-2.8,7.1s-13.5,3.6-14.2,7.1c-0.7,3.6-0.7,9.2-0.7,9.2h44.3c0,0,0-5.7-0.7-9.2
					c-0.7-3.6-9.9-6.4-14.2-7.1c-4.3-0.7-2.8-7.1-2.8-7.1"/>
			</g>
			<g>
				<path class="st3" d="M57.8,117.3c0,0,7.9,0,9.9,7.3s-2,19.8-9.9,19.8h-0.2c-7.9,0-11.9-12.5-9.9-19.8s9.9-7.3,9.9-7.3H57.8z"/>
				<path class="st3" d="M53.4,142.1c0,0,1.3,5.9-2.6,6.6c-4,0.7-12.5,3.3-13.2,6.6s-0.7,8.6-0.7,8.6H78c0,0,0-5.3-0.7-8.6
					s-9.2-5.9-13.2-6.6c-4-0.7-2.6-6.6-2.6-6.6"/>
			</g>
			<g>
				<circle class="st4" cx="84.2" cy="75.8" r="3.3"/>
				<circle class="st4" cx="70" cy="75.8" r="3.3"/>
				<circle class="st4" cx="55.7" cy="75.8" r="3.3"/>
			</g>
		</g>
		<path class="st5" d="M160.5,72.8c0,0,4,21-14,32"/>
		<path class="st5" d="M167.5,88.8c0,0-1,14-14,20"/>
		<path class="st5" d="M57.6,36.2c0,0-21.1,3.7-25,24.4"/>
	</g>
	<rect class="st6" width="200" height="200"/>
</g>
</svg>
