<?xml version="1.0" encoding="utf-8"?>
<!-- Generator: Adobe Illustrator 21.1.0, SVG Export Plug-In . SVG Version: 6.00 Build 0)  -->
<svg version="1.1" id="圖層_1" xmlns="http://www.w3.org/2000/svg" xmlns:xlink="http://www.w3.org/1999/xlink" x="0px" y="0px"
	 viewBox="0 0 200 200" style="enable-background:new 0 0 200 200;" xml:space="preserve">
<style type="text/css">
	.st0{fill:#FFFFFF;}
	.st1{fill:#15275C;}
	
		.st2{fill:none;stroke:#15275C;stroke-width:3;stroke-linecap:round;stroke-linejoin:round;stroke-miterlimit:10;stroke-dasharray:4,9;}
	.st3{fill:#FFD23E;}
	.st4{fill:#FC6222;}
	.st5{fill:none;}
</style>
<g>
	<g>
		<path class="st0" d="M100.8,165.5L100.8,165.5c-31.9,0-58-26.1-58-58l0,0c0-31.9,26.1-58,58-58l0,0c31.9,0,58,26.1,58,58l0,0
			C158.8,139.4,132.7,165.5,100.8,165.5z"/>
		<g>
			<path class="st1" d="M158.3,86.4c-1.1-2.9-2.4-5.7-3.8-8.4c-2.8-5.1-6.3-9.7-10.3-13.7c-0.1-0.1-0.2-0.2-0.3-0.3l0,0
				c-0.1-0.1-0.2-0.2-0.3-0.3l0,0c-0.3-0.3-0.7-0.7-1.1-1c-10.9-10.1-25.6-16.3-41.7-16.3c-9.3,0-18.2,2.1-26.1,5.8
				c-0.5,0.3-1.1,0.5-1.6,0.8c-5.8,2.9-11.1,6.8-15.6,11.4c-6.7,6.7-11.8,14.8-14.8,24c-0.2,0.5-0.3,0.9-0.4,1.4v0.1
				c-0.1,0.3-0.2,0.6-0.3,1c-0.2,0.8-0.4,1.5-0.6,2.3c-0.1,0.3-0.1,0.5-0.2,0.8c-1,4.4-1.6,9.1-1.6,13.8c0,16.9,6.9,32.3,18,43.4
				c6.2,6.2,13.8,11.1,22.3,14.3c0.3,0.1,0.5,0.2,0.8,0.3c1.6,0.6,3.3,1.1,4.9,1.5c0.3,0.1,0.6,0.1,0.9,0.2
				c4.6,1.1,9.5,1.7,14.4,1.7c16.9,0,32.3-6.9,43.4-18c2-2,3.9-4.2,5.6-6.5c7.7-10.3,12.3-23,12.3-36.9
				C162.1,100.2,160.8,93,158.3,86.4z M62.1,146.3c-9.9-9.9-16-23.5-16-38.6c0-2.8,0.2-5.5,0.6-8.2c1.9,1.3,5.3,3.1,5.3,3.1
				c0.1,0,0.3,0.1,0.5,0.1c0.3,0,0.6,0,0.9-0.1c0.4-0.1,0.7-0.1,1-0.1c0.1,0,0.2,0,0.2,0c0.1,0.1,0.3,0.5,0.4,0.8
				c0.2,0.5,0.5,1.1,0.9,1.3c0.4,0.2,1.4,0.3,2.8,0.5c0.5,0.1,0.9,0.1,1.2,0.1c0.1,0.2,0.2,0.6,0.3,0.9c0.2,0.8,0.4,1.6,1,2
				c0.5,0.3,2.2,1.9,3.1,2.8c0.1,0.1,0.3,0.2,0.4,0.2c0.1,0,0.2,0,0.3-0.1c0.1,0,1.7-1,2.2-1.3c0.1,0,0.3,0.2,0.5,0.3
				c0,0.9,0.1,3.8,0.1,4.4c-0.1,0.4-1.3,1.6-2.7,2.8c-0.1,0.1-0.2,0.3-0.2,0.4c0,0.2-0.2,4,0,5.6s2.7,4.6,3.4,5.4
				c0.3,0.8,1.1,2.9,1.4,3.4s3.4,2.8,5.4,4.3v9.2c0,1,0.4,1.7,0.7,2.2c0.2,0.3,0.3,0.6,0.3,0.8v6.4c0,0.8,0.2,1.5,0.6,2.1
				C71.5,154.2,66.5,150.6,62.1,146.3z M148.1,85.1c-1.1-0.8-2.7-1.1-2.7-1.1l-1.2-0.2c-0.6-1.2-0.3-4-2.4-3.4s-9.2,1.8-10.7,2.1
				c-1.5,0.3-3.4,2.7-4.6,4.6c-1.2,1.8-4.6,7.6-5.2,8.5s-0.9,6.7-0.9,8.2s6.7,7.9,8.9,8.2c2.1,0.3,7.9-1.2,9.5-1.5
				c1.5-0.3,2.4,1.8,3.7,1.8c1.2,0,2.7,0.6,1.5,2.4s-1.2,2.7,0,4c1.2,1.2,3.7,5.8,2.1,9.5c-1.5,3.7-0.3,5.5,0.6,7
				c0.2,0.3,0.4,0.7,0.6,1.2c-2.2,3.5-4.8,6.8-7.7,9.7c-9.9,9.9-23.5,16-38.6,16c-5,0-9.9-0.7-14.6-2c0-0.1,0-0.2,0.1-0.2
				c0.1-0.6-0.2-1-0.4-1.3c0.3-0.2,0.6-0.4,0.8-0.8c0.3-0.5,0.3-1.2,0.3-1.7h0.3c0.7,0,1.6-0.1,2.3-0.5c1.1-0.8,1.1-2.4,0.9-3.5
				c0.1,0,0.2,0.1,0.2,0.1c0.1,0,0.2,0,0.3,0c1,0,2.1-1.8,2.3-2.9c0.1-0.4,0.5-1.4,0.9-2.3c0.9-2.2,1.5-3.5,1.4-4.2
				c0-0.4,1.7-1.8,3.2-2.1c1.8-0.4,2.4-1,3.1-3.2c0.6-2.1,0.9-5.5,0.8-7c0-0.5,1-1.9,1.7-2.9c1.1-1.6,1.8-2.6,1.8-3.4
				c0-1.8-1.6-3.1-2.7-3.9c-1.2-0.8-3.2-1-4.5-1.1c-0.4,0-0.7-0.1-0.9-0.1c-0.1,0-0.4-0.3-0.6-0.5c-0.4-0.5-1-1.1-1.9-1.2
				c-0.1,0-0.2,0-0.3,0c-0.6,0-1.1,0.2-1.6,0.4c-0.5,0.2-0.9,0.3-1.3,0.3c-0.1,0-0.3,0-0.4,0c-0.2,0-0.3-0.1-0.3-0.1
				c0-0.1,0.2-0.4,0.7-0.8c0.5-0.3,0.9-1,0.4-2.5c-0.4-1.1-1-2.2-1.3-2.6c-1-1.4-2.7-1.4-3.3-1.4c-0.5,0-1,0.1-1.6,0.1h-0.1
				c-0.5,0-0.8-0.5-1.4-1.5c-0.3-0.6-0.7-1.2-1.3-1.8c-1.2-1.4-2.8-1.6-4.2-1.6c-0.2,0-0.4,0-0.6,0s-0.3,0-0.4,0c-0.2,0-0.4,0-0.5,0
				c-0.5-0.1-1.3-0.5-2-0.8c-0.8-0.4-1.5-0.8-2.1-0.9H74c-0.9,0-1.9,1-3.3,2.6c-0.3,0.4-0.8,0.9-1,1.1c0-0.1-0.1-0.1-0.2-0.2
				c-0.3-0.3-0.6-0.8-1.2-1c-0.1,0-0.3-0.1-0.4-0.1c-0.5,0-0.8,0.3-1.2,0.5c-0.3,0.2-0.5,0.4-0.8,0.4c-0.2,0-0.4-0.1-0.6-0.2
				c-0.8-0.5-0.6-2.2-0.3-3.6c0.1-0.7,0.2-1.3,0.2-1.8c0-1.2-0.7-1.3-1-1.3s-0.6,0.1-0.9,0.2c-0.4,0.1-0.8,0.3-1.2,0.3
				c-0.2,0-0.4,0-0.6-0.1c-0.3-0.1-0.5-0.2-0.5-0.3c-0.1-0.2,0.4-0.9,0.7-1.4c0.2-0.2,0.3-0.5,0.5-0.7c0.6-1.1,1-1.8,0.6-2.4
				c-0.2-0.4-0.6-0.5-1.1-0.5c-0.2,0-0.5,0-0.7,0.1c-0.2,0-0.4,0.1-0.6,0.1c-0.3,0-0.5,0-0.6-0.1c-0.2,0-0.3-0.1-0.4-0.1
				c-0.8,0-0.9,0.8-1,1.2c-0.2,1.3-0.9,1.9-2.3,1.9c-0.1,0-0.2,0-0.3,0c-1.4-0.1-2-1.1-2-3.4c0-1,0.2-1.2,0.6-2
				c0.2-0.4,0.5-0.8,0.8-1.5c0.8-1.5,1.4-1.8,2.1-2.1c0.2-0.1,0.5-0.2,0.7-0.4c0.2-0.1,0.3-0.2,0.4-0.2s0.2,0,0.3,0.1
				c0.2,0.1,0.5,0.2,0.8,0.2c0.1,0,0.2,0,0.3,0c1.1-0.2,1.4-0.9,1.6-1.4c0-0.1,0-0.1,0.1-0.2c0.1,0,0.1,0,0.2,0
				c0.5,0.1,1.3,0.4,2.6,0.4c0.4,0,0.8,0,1,0c-0.2,0.8-0.2,2.4,1.5,4.3c0.5,0.6,1,0.9,1.5,0.9c1.6,0,1.7-2.6,1.7-5.6
				c0-1.8,0.7-2.3,2.7-3.7l0.1-0.1c1.1-0.8,1.7-1.7,2.3-2.6c0.7-0.9,1.3-1.8,2.5-2.6c1.1-0.7,2.9-1.5,4.5-2.2
				c1.9-0.9,3.8-1.7,4.6-2.4c1-0.8,0.8-2,0.6-3c-0.2-1.3-0.1-1.6,0.4-1.7c0.9-0.2,1.8-0.4,2.7-0.5c1.4-0.2,2.8-0.4,4.3-1
				s1.9-1.4,1.9-2c0.1-1-0.8-1.8-1.6-2.2c-0.3-0.2-0.4-1-0.4-1.7c0-0.9-0.1-1.9-0.7-2.4c-0.3-0.3-0.8-0.5-1.3-0.5
				c-0.6,0-1.3,0.3-2.1,0.6c-0.5,0.2-1.1,0.5-1.8,0.6c-0.1,0-0.1,0-0.2,0c-0.2,0-0.4-0.5-0.6-1.2c-0.3-1-0.8-2.6-2.5-2.6
				c-0.2,0-0.4,0-0.6,0.1c-2.2,0.4-2.7,2.7-3,4.4c-0.1,0.6-0.3,1.5-0.5,1.6c-1.3,0-1.7,0.8-2.1,1.6c-0.3,0.5-0.5,1.1-1.1,1.6
				c-0.3,0.3-0.6,0.4-0.6,0.4c-0.1-0.1-0.3-0.8,0.4-2.2c0.3-0.6,0.6-1.4,0.2-2c-0.5-0.8-1.5-0.8-2.8-0.9c-0.5,0-1,0-1.5-0.1
				c-1-0.1-1.3-0.4-1.3-0.4s0-0.2,0.3-0.5c8.2-4.9,17.7-7.6,27.9-7.6c12.4,0,23.7,4.1,32.9,11c-0.1,0.6-0.6,1.4-1,2.1
				c-0.6,1.1-0.3,1.7-0.3,1.7s2.9-0.5,3.5-0.8c0.2-0.1,0.4-0.4,0.6-0.8c0.3,0.3,0.6,0.5,0.9,0.8c-0.7,0.7-1.5,1.3-1.8,1.5
				c-0.5,0.3-2,0.8-2.6,1.1c-0.6,0.3,1.8,1.4,1.8,1.8c0,0.5,0,2.6-0.9,2.7c-0.9,0.2-5.2,0.2-5.2,0.2s-1.4,4.9-1.1,5.3
				c0.3,0.5,2.3,1.5,3.5,1.4c1.2-0.2,4-1.5,4-1.5l1.2-2.7l2.4-2.6c0,0,1.8,0.8,2.4,0.2c0.6-0.6,1.8-1.2,1.8-1.2s1.2,2.3,2,2.6
				l0.1,0.1l0,0c0.9,1.2,1.7,2.5,2.5,3.8l0,0l0,0l0,0c0,0.1,0.1,0.2,0.1,0.2c1.3,2.1,2.4,4.3,3.3,6.6
				C150.1,86.4,149,85.7,148.1,85.1z"/>
		</g>
		<path class="st2" d="M53.4,84c0,0,2.2-46.3,37.7-50.6s48.7,29.1,48.7,29.1"/>
		<path class="st3" d="M67.2,38.7C61,28.5,46.1,28.4,40,38.8c-3.1,5.4-2.6,10.5,0,15.7c2.3,4.5,4.4,9.1,6.7,13.7l5,10.3
			c0.4,0.8,1.2,2.4,1.6,3.3H54c0.2-1.1,12.9-26.5,13.3-27.3C70,49.2,70.4,44,67.2,38.7z M53.5,53.4c-3.2,0-5.9-2.6-5.9-5.9
			c0-3.2,2.6-5.9,5.9-5.9c3.2,0,5.9,2.6,5.9,5.9C59.3,50.8,56.7,53.4,53.5,53.4z"/>
		<g>
			<path class="st4" d="M151,41.3c-3.6-6-12.5-6.1-16,0.1c-1.8,3.2-1.6,6.2,0,9.3c1.3,2.7,2.6,5.4,4,8.1l3,6.1
				c0.2,0.5,0.7,1.4,0.9,2h0.4c0.1-0.6,7.6-15.6,7.9-16.1C152.7,47.5,152.9,44.5,151,41.3z M142.8,49.3c-1.8,0-3.3-1.5-3.3-3.3
				s1.5-3.3,3.3-3.3s3.3,1.5,3.3,3.3S144.6,49.3,142.8,49.3z"/>
			<path class="st4" d="M143.2,66.8L143.2,66.8L143.2,66.8z"/>
		</g>
	</g>
	<rect class="st5" width="200" height="200"/>
</g>
</svg>
