<?xml version="1.0" encoding="utf-8"?>
<!-- Generator: Adobe Illustrator 21.1.0, SVG Export Plug-In . SVG Version: 6.00 Build 0)  -->
<svg version="1.1" id="圖層_1" xmlns="http://www.w3.org/2000/svg" xmlns:xlink="http://www.w3.org/1999/xlink" x="0px" y="0px"
	 viewBox="0 0 200 200" style="enable-background:new 0 0 200 200;" xml:space="preserve">
<style type="text/css">
	.st0{fill:#FFFFFF;stroke:#15275C;stroke-width:4;stroke-linecap:square;stroke-linejoin:bevel;stroke-miterlimit:10;}
	.st1{fill:#FFD23E;}
	
		.st2{fill:none;stroke:#15275C;stroke-width:3;stroke-linecap:round;stroke-linejoin:round;stroke-miterlimit:10;stroke-dasharray:4,9;}
	.st3{fill:#15275C;}
	.st4{fill:#15275C;stroke:#15275C;stroke-width:4;stroke-linecap:square;stroke-linejoin:bevel;stroke-miterlimit:10;}
	.st5{fill:#FC6222;}
	.st6{fill:none;stroke:#FFFFFF;stroke-width:3;stroke-linecap:round;stroke-linejoin:round;stroke-miterlimit:10;}
	.st7{fill:none;}
</style>
<g>
	<g>
		<g>
			<path class="st0" d="M125.3,156.5l60-38.1c7.2-2.3,12.7,12.1,8.2,14.6l-58.3,38.3c-3.3,2.2-8.2-2.8-9.8-8.5
				C124.5,159.9,125.3,156.5,125.3,156.5z"/>
		</g>
		<path class="st1" d="M164.5,129.7c5.7-0.4,12.3,12.9,10.4,17.4l-8.6,5.5c0.4-6.5-5.9-16.4-11.7-16.4L164.5,129.7L164.5,129.7z"/>
		<path class="st1" d="M187.4,152.9l-13-6.2l-8.4,6l12,9.2l0.3-8L187.4,152.9L187.4,152.9z"/>
		<path class="st2" d="M45.8,145.8c-15.6-42.9,6.4-90.3,49.3-106c5.2-1.9,10.4-3.2,15.7-4"/>
		<g>
			<path class="st3" d="M171.4,32.7c-0.7-0.9-2.2-1.2-5.7-1.5l-12-0.8l-13.1-16c-0.3-0.4-0.8-0.7-1.1-0.7l-4.3-0.3
				c-0.3,0-0.4,0.4-0.1,0.9l7.9,15.3l-16.2-1.1l-6.5-10.2c-0.2-0.3-0.6-0.6-0.9-0.6l-3.3-0.2c-0.3,0-0.5,0.3-0.4,0.7L118,28
				l-1.9-0.1c-1.6-0.1-1.9,2.5-0.6,3.7c1.4,1.2,13.6,7.1,15.3,7.2l33.9,2.4c4.8,0.3,9.6-1.5,9.7-4.1
				C174.7,35.5,172.1,33.6,171.4,32.7z"/>
		</g>
		<g>
			<path class="st4" d="M126.7,106.6l4.9,21C116.1,152.5,83.2,161.8,58,155c-5.4-1.5-10.5-3.7-15-6.7l-4.8-20.8l45,3.6L126.7,106.6
				L126.7,106.6L126.7,106.6z"/>
			<path class="st4" d="M4.9,123.8L72.2,82l78.7,9.1l-67.8,39.7L4.9,123.8z"/>
			<path class="st1" d="M77.2,100.4l-46.1,24.3c-0.5,0.2-0.7,0.5-0.5,1l4.6,21.9c1.7,0.3,3.2,1.6,3.7,3.5c0.5,2.4-0.9,4.8-3.1,5.3
				s-4.6-1.1-5.1-3.5c-0.4-1.8,0.2-3.5,1.5-4.6l-5.1-24c-0.2-0.7,0-1.4,0.8-1.9L74.7,98C76.4,97.2,78.7,98.8,77.2,100.4L77.2,100.4
				L77.2,100.4z M35.9,150.3L35.9,150.3L35.9,150.3L35.9,150.3L35.9,150.3L35.9,150.3L35.9,150.3L35.9,150.3L35.9,150.3l-0.1-0.1
				l0,0l0,0l0,0l0,0l0,0l0,0l0,0l0,0l0,0l0,0l0,0l0,0l0,0l0,0l0,0l0,0l0,0l0,0l0,0l0,0l0,0l0,0l0,0l0,0l0,0l0,0l0,0l0,0l0,0l0,0l0,0
				l0,0l0,0l0,0l0,0l0,0l0,0l0,0l0,0l0,0l0,0l0,0l0,0l0,0l0,0l0,0l0,0l0,0l0,0l0,0l0,0l0,0l0,0l0,0l0,0l0,0l0,0l0,0l0,0l0,0l0,0l0,0
				l0,0l0,0l0,0l0,0l0,0l0,0l0,0l0,0l0,0l0,0l0,0l0,0l0,0l0,0l0,0l0,0l0,0l0,0l0,0l0,0l0,0l0,0l0,0l0,0l0,0l0,0l0,0l0,0l0,0l0,0l0,0
				l0,0l0,0l0,0l0,0l0,0l0,0l0,0l0,0l0,0l0,0l0,0l0,0l0,0l0,0l0,0l0,0l0,0l0,0l0,0l0,0l0,0l0,0l0,0l0,0l0,0l0,0l0,0l0,0l0,0l0,0l0,0
				l0,0l0,0l0,0l0,0l0,0l0,0l0,0l0,0l0,0l0,0l0,0l0,0l0,0l0,0l0,0l0,0l0,0l0,0l0,0l0,0l0,0l0,0l0,0l0,0l0,0l0,0l0,0l0,0l0,0l0,0l0,0
				l0,0l0,0l0,0l0,0l0,0l0,0l0,0l0,0l0,0l0,0l0,0l0,0l0,0l0,0l0,0l0,0l0,0l0,0l0,0l0,0l0,0l0,0l0,0l0,0l0,0l0,0l0,0l0,0l0,0l0,0l0,0
				l0,0l0,0l0,0l0,0l0,0l0,0l0,0l0,0c-0.1,0.3-0.1,0.6,0,0.9c0.3,1.1,1.3,1.9,2.4,1.6c1.1-0.2,1.7-1.3,1.5-2.5
				C36.6,151,36.3,150.6,35.9,150.3L35.9,150.3z"/>
			<path class="st5" d="M33.7,149.2l2.4,36.9c0,0.6,2.2,0.9,2.8-0.4c1.6,1.2,3,0.2,3.3-0.9c0.8,0.9,2.4,1.1,3.1-0.6
				c1.2,1,3.1-0.3,2.7-1.3L34.7,149C34.5,148.5,33.7,148.8,33.7,149.2L33.7,149.2z"/>
			<ellipse transform="matrix(0.9758 -0.2187 0.2187 0.9758 -32.349 11.3513)" class="st1" cx="35.1" cy="151.8" rx="4" ry="4"/>
		</g>
		<path class="st6" d="M38.6,142.2c0,0,22,17,53,8c24-7,37-20,43-33"/>
		<polyline class="st6" points="33.6,130.2 83.6,134.2 132.6,106.2 		"/>
	</g>
	<rect class="st7" width="200" height="200"/>
</g>
</svg>
