<?xml version="1.0" encoding="utf-8"?>
<!-- Generator: Adobe Illustrator 21.1.0, SVG Export Plug-In . SVG Version: 6.00 Build 0)  -->
<svg version="1.1" id="圖層_1" xmlns="http://www.w3.org/2000/svg" xmlns:xlink="http://www.w3.org/1999/xlink" x="0px" y="0px"
	 viewBox="0 0 200 200" style="enable-background:new 0 0 200 200;" xml:space="preserve">
<style type="text/css">
	.st0{fill:#FFD15C;}
	.st1{fill:#FC6222;}
	.st2{fill:#15275C;stroke:#15275C;stroke-width:4;stroke-linecap:square;stroke-miterlimit:10;}
	.st3{fill:#FFFFFF;stroke:#15275C;stroke-width:4;stroke-linecap:round;stroke-linejoin:round;stroke-miterlimit:10;}
	.st4{fill:#15275C;stroke:#15275C;stroke-width:4;stroke-linecap:round;stroke-linejoin:bevel;stroke-miterlimit:10;}
	.st5{fill:#15275C;stroke:#15275C;stroke-width:4;stroke-linecap:round;stroke-miterlimit:10;}
	.st6{fill:#FFD23E;}
	.st7{fill:#FFFFFF;}
	.st8{fill:none;}
</style>
<g>
	<g>
		<path class="st0" d="M35.4,128.7c5.6-2.5,12,0.4,14.5,6s-0.4,12-6,14.5c-5.6,2.1-30,0.4-30,0.4S29.8,130.9,35.4,128.7z"/>
		<g>
			<path class="st1" d="M43.8,132.5c2.8-1.1,5.6,0,7.1,2.8c1.1,2.8,0,5.6-2.8,7.1c-2.8,1.1-14.5,0.4-14.5,0.4S40.9,133.9,43.8,132.5
				z"/>
			<path class="st2" d="M50.6,117.4l22.9-10.6c-9.5-12-27.2-14.8-39.9-6c-3.5,2.5-6.4,5.6-8.5,9.2C34.4,108.3,43.9,111.1,50.6,117.4
				z"/>
			<path class="st2" d="M64,146.4l22.9-10.6c2.8,15.2-6.4,30-21.5,34.2c-4.2,1.1-8.5,1.4-12.4,0.7C60.1,164.8,64.4,155.9,64,146.4z"
				/>
		</g>
		<path class="st3" d="M47.4,117.1l14.8,32.1c56.6-16.2,72-17.3,100.2-44.2c-0.4-13.8-6.9-25.3-17.1-35.2
			C106.8,73.7,96.5,85,47.4,117.1z"/>
		<path class="st4" d="M145.3,69.8c9.9,9.9,16.6,21.5,16.9,35.3l24-32.5L145.3,69.8z"/>
		<path class="st3" d="M41.8,117.8L58,153.1c1.4-1.1,2.8-2.5,4.2-3.9l-14.8-32.1C45.7,117.1,43.6,117.4,41.8,117.8z"/>
		<circle class="st5" cx="127.1" cy="97.3" r="10.8"/>
		<path class="st6" d="M125.2,41.9L87.3,56.7c-2.2-0.9-4.2-0.9-4.2-0.9l1.8-2.4c0.6,0.2,1.2,0.3,1.9,0.3h0.1
			c7.3,0,10.9-11.5,9.1-18.1C94.2,29,86.9,29,86.9,29h-0.1c0,0-7.2,0-9.1,6.6c-1.2,4.5,0,11.1,3.1,14.9L77,54.7
			c-0.4,0-0.8,0.1-1.2,0.3L57.1,65.4c-0.7,0.4-1.2,1.2-1.3,2v0.3l-4.4,21.9c-0.2,1,0.4,1.9,1.3,2.2c1.1,0.4,2.2-0.3,2.5-1.3l5-18.4
			c0.1-0.1,0.1-0.2,0.2-0.4c0.2-0.6,0.6-1.1,1.2-1.4l11.1-5.6l-6.5,23c-0.2,0.2-0.3,0.4-0.3,0.7c-1.5,9.4,2.6,12.3,3.6,12.9
			c0.1,0.1,0.3,0.1,0.5,0.2l31.3,4.7c-5.5,8-11.7,19.5-14.1,26c-0.7,1.9,0,2.8,0.8,3.2s1.8,0.2,2.4-0.5c3.9-4.8,22.2-27.2,22.2-30.4
			c0-2.3-1.9-4.1-3.3-5.1c-0.2-0.4-0.4-0.7-0.8-0.8L83.4,87.2c-0.1-0.1-0.2-0.1-0.4-0.1c2.3-6.7,5.7-17.6,6.8-24l37.1-17
			c0.8-0.4,1.3-1.2,1.3-2.1C128.4,42.4,126.7,41.3,125.2,41.9z"/>
		<path class="st1" d="M142.7,51.2h-10.2V49c0-1.8-1.4-3.2-3.2-3.2h-7.8c-1.8,0-3.2,1.4-3.2,3.2v2.1h-9.9c-1.1,0-1.8,0.7-1.8,1.8v24
			c0,1.1,0.7,1.8,1.8,1.8h33.8c1.1,0,1.8-0.7,1.8-1.8v-24C144.1,51.9,143.4,51.2,142.7,51.2z M121.2,49.1c0-0.4,0.4-0.4,0.4-0.4h7.8
			c0.4,0,0.4,0.4,0.4,0.4v2.2h-8.5L121.2,49.1L121.2,49.1z"/>
		<rect x="111.6" y="51.2" class="st7" width="4.2" height="27.5"/>
		<rect x="134.9" y="51.2" class="st7" width="4.2" height="27.5"/>
	</g>
	<rect class="st8" width="200" height="200"/>
</g>
</svg>
