<?xml version="1.0" encoding="utf-8"?>
<!-- Generator: Adobe Illustrator 21.1.0, SVG Export Plug-In . SVG Version: 6.00 Build 0)  -->
<svg version="1.1" id="圖層_1" xmlns="http://www.w3.org/2000/svg" xmlns:xlink="http://www.w3.org/1999/xlink" x="0px" y="0px"
	 viewBox="0 0 200 200" style="enable-background:new 0 0 200 200;" xml:space="preserve">
<style type="text/css">
	.st0{fill:#FFFFFF;stroke:#15275C;stroke-width:4;stroke-linecap:square;stroke-linejoin:bevel;stroke-miterlimit:10;}
	.st1{fill:#FFD23E;}
	
		.st2{fill:none;stroke:#15275C;stroke-width:3;stroke-linecap:round;stroke-linejoin:round;stroke-miterlimit:10;stroke-dasharray:4,9;}
	.st3{fill:#15275C;}
	.st4{fill:#15275C;stroke:#15275C;stroke-width:4;stroke-linecap:square;stroke-linejoin:bevel;stroke-miterlimit:10;}
	.st5{fill:#FC6222;}
	.st6{fill:none;stroke:#FFFFFF;stroke-width:3;stroke-linecap:round;stroke-linejoin:round;stroke-miterlimit:10;}
	.st7{fill:none;}
	.st8{fill:#FFD15C;}
	.st9{fill:#15275C;stroke:#15275C;stroke-width:4;stroke-linecap:square;stroke-miterlimit:10;}
	.st10{fill:#FFFFFF;stroke:#15275C;stroke-width:4;stroke-linecap:round;stroke-linejoin:round;stroke-miterlimit:10;}
	.st11{fill:#15275C;stroke:#15275C;stroke-width:4;stroke-linecap:round;stroke-linejoin:bevel;stroke-miterlimit:10;}
	.st12{fill:#15275C;stroke:#15275C;stroke-width:4;stroke-linecap:round;stroke-miterlimit:10;}
	.st13{fill:#FFFFFF;}
	.st14{fill:#15275C;stroke:#15275C;stroke-width:4;stroke-linecap:round;stroke-linejoin:round;stroke-miterlimit:10;}
	.st15{fill:none;stroke:#15275C;stroke-width:4;stroke-linecap:round;stroke-linejoin:round;stroke-miterlimit:10;}
</style>
<g>
	<g>
		<g>
			<path class="st0" d="M-747.2,156.5l60-38.1c7.2-2.3,12.7,12.1,8.2,14.6l-58.3,38.3c-3.3,2.2-8.2-2.8-9.8-8.5
				C-748,159.9-747.2,156.5-747.2,156.5z"/>
		</g>
		<path class="st1" d="M-708,129.7c5.7-0.4,12.3,12.9,10.4,17.4l-8.6,5.5c0.4-6.5-5.9-16.4-11.7-16.4L-708,129.7L-708,129.7z"/>
		<path class="st1" d="M-685.1,152.9l-13-6.2l-8.4,6l12,9.2l0.3-8L-685.1,152.9L-685.1,152.9z"/>
		<path class="st2" d="M-826.7,145.8c-15.6-42.9,6.4-90.3,49.3-106c5.2-1.9,10.4-3.2,15.7-4"/>
		<g>
			<path class="st3" d="M-701.1,32.7c-0.7-0.9-2.2-1.2-5.7-1.5l-12-0.8l-13.1-16c-0.3-0.4-0.8-0.7-1.1-0.7l-4.3-0.3
				c-0.3,0-0.4,0.4-0.1,0.9l7.9,15.3l-16.2-1.1l-6.5-10.2c-0.2-0.3-0.6-0.6-0.9-0.6l-3.3-0.2c-0.3,0-0.5,0.3-0.4,0.7l2.3,9.8
				l-1.9-0.1c-1.6-0.1-1.9,2.5-0.6,3.7c1.4,1.2,13.6,7.1,15.3,7.2l33.9,2.4c4.8,0.3,9.6-1.5,9.7-4.1
				C-697.8,35.5-700.4,33.6-701.1,32.7z"/>
		</g>
		<g>
			<path class="st4" d="M-745.8,106.6l4.9,21c-15.5,24.9-48.4,34.2-73.6,27.4c-5.4-1.5-10.5-3.7-15-6.7l-4.8-20.8l45,3.6
				L-745.8,106.6L-745.8,106.6L-745.8,106.6z"/>
			<path class="st4" d="M-867.6,123.8l67.3-41.8l78.7,9.1l-67.8,39.7L-867.6,123.8z"/>
			<path class="st1" d="M-795.3,100.4l-46.1,24.3c-0.5,0.2-0.7,0.5-0.5,1l4.6,21.9c1.7,0.3,3.2,1.6,3.7,3.5c0.5,2.4-0.9,4.8-3.1,5.3
				s-4.6-1.1-5.1-3.5c-0.4-1.8,0.2-3.5,1.5-4.6l-5.1-24c-0.2-0.7,0-1.4,0.8-1.9l46.8-24.4C-796.1,97.2-793.8,98.8-795.3,100.4
				L-795.3,100.4L-795.3,100.4z M-836.6,150.3L-836.6,150.3L-836.6,150.3L-836.6,150.3L-836.6,150.3L-836.6,150.3L-836.6,150.3
				L-836.6,150.3L-836.6,150.3l-0.1-0.1l0,0l0,0l0,0l0,0l0,0l0,0l0,0l0,0l0,0l0,0l0,0l0,0l0,0l0,0l0,0l0,0l0,0l0,0l0,0l0,0l0,0l0,0
				l0,0l0,0l0,0l0,0l0,0l0,0l0,0l0,0l0,0l0,0l0,0l0,0l0,0l0,0l0,0l0,0l0,0l0,0l0,0l0,0l0,0l0,0l0,0l0,0l0,0l0,0l0,0l0,0l0,0l0,0l0,0
				l0,0l0,0l0,0l0,0l0,0l0,0l0,0l0,0l0,0l0,0l0,0l0,0l0,0l0,0l0,0l0,0l0,0l0,0l0,0l0,0l0,0l0,0l0,0l0,0l0,0l0,0l0,0l0,0l0,0l0,0l0,0
				l0,0l0,0l0,0l0,0l0,0l0,0l0,0l0,0l0,0l0,0l0,0l0,0l0,0l0,0l0,0l0,0l0,0l0,0l0,0l0,0l0,0l0,0l0,0l0,0l0,0l0,0l0,0l0,0l0,0l0,0l0,0
				l0,0l0,0l0,0l0,0l0,0l0,0l0,0l0,0l0,0l0,0l0,0l0,0l0,0l0,0l0,0l0,0l0,0l0,0l0,0l0,0l0,0l0,0l0,0l0,0l0,0l0,0l0,0l0,0l0,0l0,0l0,0
				l0,0l0,0l0,0l0,0l0,0l0,0l0,0l0,0l0,0l0,0l0,0l0,0l0,0l0,0l0,0l0,0l0,0l0,0l0,0l0,0l0,0l0,0l0,0l0,0l0,0l0,0l0,0l0,0l0,0l0,0l0,0
				l0,0l0,0l0,0l0,0l0,0l0,0l0,0l0,0l0,0l0,0l0,0l0,0l0,0l0,0l0,0l0,0l0,0c-0.1,0.3-0.1,0.6,0,0.9c0.3,1.1,1.3,1.9,2.4,1.6
				c1.1-0.2,1.7-1.3,1.5-2.5C-835.9,151-836.2,150.6-836.6,150.3L-836.6,150.3z"/>
			<path class="st5" d="M-838.8,149.2l2.4,36.9c0,0.6,2.2,0.9,2.8-0.4c1.6,1.2,3,0.2,3.3-0.9c0.8,0.9,2.4,1.1,3.1-0.6
				c1.2,1,3.1-0.3,2.7-1.3l-13.3-33.9C-838,148.5-838.8,148.8-838.8,149.2L-838.8,149.2z"/>
			
				<ellipse transform="matrix(0.9758 -0.2187 0.2187 0.9758 -53.4703 -179.4628)" class="st1" cx="-837.4" cy="151.8" rx="4" ry="4"/>
		</g>
		<path class="st6" d="M-833.9,142.2c0,0,22,17,53,8c24-7,37-20,43-33"/>
		<polyline class="st6" points="-838.9,130.2 -788.9,134.2 -739.9,106.2 		"/>
	</g>
	<rect x="-872.5" class="st7" width="200" height="200"/>
</g>
<g>
	<g>
		<path class="st8" d="M-530.9,128.7c5.6-2.5,12,0.4,14.5,6s-0.4,12-6,14.5c-5.6,2.1-30,0.4-30,0.4S-536.5,130.9-530.9,128.7z"/>
		<g>
			<path class="st5" d="M-522.5,132.5c2.8-1.1,5.6,0,7.1,2.8c1.1,2.8,0,5.6-2.8,7.1c-2.8,1.1-14.5,0.4-14.5,0.4
				S-525.4,133.9-522.5,132.5z"/>
			<path class="st9" d="M-515.7,117.4l22.9-10.6c-9.5-12-27.2-14.8-39.9-6c-3.5,2.5-6.4,5.6-8.5,9.2
				C-531.9,108.3-522.4,111.1-515.7,117.4z"/>
			<path class="st9" d="M-502.3,146.4l22.9-10.6c2.8,15.2-6.4,30-21.5,34.2c-4.2,1.1-8.5,1.4-12.4,0.7
				C-506.2,164.8-501.9,155.9-502.3,146.4z"/>
		</g>
		<path class="st10" d="M-518.9,117.1l14.8,32.1c56.6-16.2,72-17.3,100.2-44.2c-0.4-13.8-6.9-25.3-17.1-35.2
			C-459.5,73.7-469.8,85-518.9,117.1z"/>
		<path class="st11" d="M-421,69.8c9.9,9.9,16.6,21.5,16.9,35.3l24-32.5L-421,69.8z"/>
		<path class="st10" d="M-524.5,117.8l16.2,35.3c1.4-1.1,2.8-2.5,4.2-3.9l-14.8-32.1C-520.6,117.1-522.7,117.4-524.5,117.8z"/>
		<circle class="st12" cx="-439.2" cy="97.3" r="10.8"/>
		<path class="st1" d="M-441.1,41.9L-479,56.7c-2.2-0.9-4.2-0.9-4.2-0.9l1.8-2.4c0.6,0.2,1.2,0.3,1.9,0.3h0.1
			c7.3,0,10.9-11.5,9.1-18.1s-9.1-6.6-9.1-6.6h-0.1c0,0-7.2,0-9.1,6.6c-1.2,4.5,0,11.1,3.1,14.9l-3.8,4.2c-0.4,0-0.8,0.1-1.2,0.3
			l-18.7,10.4c-0.7,0.4-1.2,1.2-1.3,2v0.3l-4.4,21.9c-0.2,1,0.4,1.9,1.3,2.2c1.1,0.4,2.2-0.3,2.5-1.3l5-18.4
			c0.1-0.1,0.1-0.2,0.2-0.4c0.2-0.6,0.6-1.1,1.2-1.4l11.1-5.6l-6.5,23c-0.2,0.2-0.3,0.4-0.3,0.7c-1.5,9.4,2.6,12.3,3.6,12.9
			c0.1,0.1,0.3,0.1,0.5,0.2l31.3,4.7c-5.5,8-11.7,19.5-14.1,26c-0.7,1.9,0,2.8,0.8,3.2s1.8,0.2,2.4-0.5c3.9-4.8,22.2-27.2,22.2-30.4
			c0-2.3-1.9-4.1-3.3-5.1c-0.2-0.4-0.4-0.7-0.8-0.8l-25.1-11.4c-0.1-0.1-0.2-0.1-0.4-0.1c2.3-6.7,5.7-17.6,6.8-24l37.1-17
			c0.8-0.4,1.3-1.2,1.3-2.1C-437.9,42.4-439.6,41.3-441.1,41.9z"/>
		<path class="st5" d="M-423.6,51.2h-10.2V49c0-1.8-1.4-3.2-3.2-3.2h-7.8c-1.8,0-3.2,1.4-3.2,3.2v2.1h-9.9c-1.1,0-1.8,0.7-1.8,1.8
			v24c0,1.1,0.7,1.8,1.8,1.8h33.8c1.1,0,1.8-0.7,1.8-1.8v-24C-422.2,51.9-422.9,51.2-423.6,51.2z M-445.1,49.1
			c0-0.4,0.4-0.4,0.4-0.4h7.8c0.4,0,0.4,0.4,0.4,0.4v2.2h-8.5L-445.1,49.1L-445.1,49.1z"/>
		<rect x="-454.7" y="51.2" class="st13" width="4.2" height="27.5"/>
		<rect x="-431.4" y="51.2" class="st13" width="4.2" height="27.5"/>
	</g>
	<rect x="-566.3" class="st7" width="200" height="200"/>
</g>
<g>
	<g>
		<path class="st13" d="M-180.1,165.5L-180.1,165.5c-31.9,0-58-26.1-58-58l0,0c0-31.9,26.1-58,58-58l0,0c31.9,0,58,26.1,58,58l0,0
			C-122.1,139.4-148.2,165.5-180.1,165.5z"/>
		<g>
			<path class="st3" d="M-122.6,86.4c-1.1-2.9-2.4-5.7-3.8-8.4c-2.8-5.1-6.3-9.7-10.3-13.7c-0.1-0.1-0.2-0.2-0.3-0.3l0,0
				c-0.1-0.1-0.2-0.2-0.3-0.3l0,0c-0.3-0.3-0.7-0.7-1.1-1c-10.9-10.1-25.6-16.3-41.7-16.3c-9.3,0-18.2,2.1-26.1,5.8
				c-0.5,0.3-1.1,0.5-1.6,0.8c-5.8,2.9-11.1,6.8-15.6,11.4c-6.7,6.7-11.8,14.8-14.8,24c-0.2,0.5-0.3,0.9-0.4,1.4v0.1
				c-0.1,0.3-0.2,0.6-0.3,1c-0.2,0.8-0.4,1.5-0.6,2.3c-0.1,0.3-0.1,0.5-0.2,0.8c-1,4.4-1.6,9.1-1.6,13.8c0,16.9,6.9,32.3,18,43.4
				c6.2,6.2,13.8,11.1,22.3,14.3c0.3,0.1,0.5,0.2,0.8,0.3c1.6,0.6,3.3,1.1,4.9,1.5c0.3,0.1,0.6,0.1,0.9,0.2
				c4.6,1.1,9.5,1.7,14.4,1.7c16.9,0,32.3-6.9,43.4-18c2-2,3.9-4.2,5.6-6.5c7.7-10.3,12.3-23,12.3-36.9
				C-118.8,100.2-120.1,93-122.6,86.4z M-218.8,146.3c-9.9-9.9-16-23.5-16-38.6c0-2.8,0.2-5.5,0.6-8.2c1.9,1.3,5.3,3.1,5.3,3.1
				c0.1,0,0.3,0.1,0.5,0.1c0.3,0,0.6,0,0.9-0.1c0.4-0.1,0.7-0.1,1-0.1c0.1,0,0.2,0,0.2,0c0.1,0.1,0.3,0.5,0.4,0.8
				c0.2,0.5,0.5,1.1,0.9,1.3c0.4,0.2,1.4,0.3,2.8,0.5c0.5,0.1,0.9,0.1,1.2,0.1c0.1,0.2,0.2,0.6,0.3,0.9c0.2,0.8,0.4,1.6,1,2
				c0.5,0.3,2.2,1.9,3.1,2.8c0.1,0.1,0.3,0.2,0.4,0.2c0.1,0,0.2,0,0.3-0.1c0.1,0,1.7-1,2.2-1.3c0.1,0,0.3,0.2,0.5,0.3
				c0,0.9,0.1,3.8,0.1,4.4c-0.1,0.4-1.3,1.6-2.7,2.8c-0.1,0.1-0.2,0.3-0.2,0.4c0,0.2-0.2,4,0,5.6s2.7,4.6,3.4,5.4
				c0.3,0.8,1.1,2.9,1.4,3.4c0.3,0.5,3.4,2.8,5.4,4.3v9.2c0,1,0.4,1.7,0.7,2.2c0.2,0.3,0.3,0.6,0.3,0.8v6.4c0,0.8,0.2,1.5,0.6,2.1
				C-209.4,154.2-214.4,150.6-218.8,146.3z M-132.8,85.1c-1.1-0.8-2.7-1.1-2.7-1.1l-1.2-0.2c-0.6-1.2-0.3-4-2.4-3.4
				c-2.1,0.6-9.2,1.8-10.7,2.1c-1.5,0.3-3.4,2.7-4.6,4.6c-1.2,1.8-4.6,7.6-5.2,8.5c-0.6,0.9-0.9,6.7-0.9,8.2s6.7,7.9,8.9,8.2
				c2.1,0.3,7.9-1.2,9.5-1.5c1.5-0.3,2.4,1.8,3.7,1.8c1.2,0,2.7,0.6,1.5,2.4s-1.2,2.7,0,4c1.2,1.2,3.7,5.8,2.1,9.5
				c-1.5,3.7-0.3,5.5,0.6,7c0.2,0.3,0.4,0.7,0.6,1.2c-2.2,3.5-4.8,6.8-7.7,9.7c-9.9,9.9-23.5,16-38.6,16c-5,0-9.9-0.7-14.6-2
				c0-0.1,0-0.2,0.1-0.2c0.1-0.6-0.2-1-0.4-1.3c0.3-0.2,0.6-0.4,0.8-0.8c0.3-0.5,0.3-1.2,0.3-1.7h0.3c0.7,0,1.6-0.1,2.3-0.5
				c1.1-0.8,1.1-2.4,0.9-3.5c0.1,0,0.2,0.1,0.2,0.1c0.1,0,0.2,0,0.3,0c1,0,2.1-1.8,2.3-2.9c0.1-0.4,0.5-1.4,0.9-2.3
				c0.9-2.2,1.5-3.5,1.4-4.2c0-0.4,1.7-1.8,3.2-2.1c1.8-0.4,2.4-1,3.1-3.2c0.6-2.1,0.9-5.5,0.8-7c0-0.5,1-1.9,1.7-2.9
				c1.1-1.6,1.8-2.6,1.8-3.4c0-1.8-1.6-3.1-2.7-3.9c-1.2-0.8-3.2-1-4.5-1.1c-0.4,0-0.7-0.1-0.9-0.1c-0.1,0-0.4-0.3-0.6-0.5
				c-0.4-0.5-1-1.1-1.9-1.2c-0.1,0-0.2,0-0.3,0c-0.6,0-1.1,0.2-1.6,0.4c-0.5,0.2-0.9,0.3-1.3,0.3c-0.1,0-0.3,0-0.4,0
				c-0.2,0-0.3-0.1-0.3-0.1c0-0.1,0.2-0.4,0.7-0.8c0.5-0.3,0.9-1,0.4-2.5c-0.4-1.1-1-2.2-1.3-2.6c-1-1.4-2.7-1.4-3.3-1.4
				c-0.5,0-1,0.1-1.6,0.1h-0.1c-0.5,0-0.8-0.5-1.4-1.5c-0.3-0.6-0.7-1.2-1.3-1.8c-1.2-1.4-2.8-1.6-4.2-1.6c-0.2,0-0.4,0-0.6,0
				c-0.2,0-0.3,0-0.4,0c-0.2,0-0.4,0-0.5,0c-0.5-0.1-1.3-0.5-2-0.8c-0.8-0.4-1.5-0.8-2.1-0.9h-0.2c-0.9,0-1.9,1-3.3,2.6
				c-0.3,0.4-0.8,0.9-1,1.1c0-0.1-0.1-0.1-0.2-0.2c-0.3-0.3-0.6-0.8-1.2-1c-0.1,0-0.3-0.1-0.4-0.1c-0.5,0-0.8,0.3-1.2,0.5
				c-0.3,0.2-0.5,0.4-0.8,0.4c-0.2,0-0.4-0.1-0.6-0.2c-0.8-0.5-0.6-2.2-0.3-3.6c0.1-0.7,0.2-1.3,0.2-1.8c0-1.2-0.7-1.3-1-1.3
				s-0.6,0.1-0.9,0.2c-0.4,0.1-0.8,0.3-1.2,0.3c-0.2,0-0.4,0-0.6-0.1c-0.3-0.1-0.5-0.2-0.5-0.3c-0.1-0.2,0.4-0.9,0.7-1.4
				c0.2-0.2,0.3-0.5,0.5-0.7c0.6-1.1,1-1.8,0.6-2.4c-0.2-0.4-0.6-0.5-1.1-0.5c-0.2,0-0.5,0-0.7,0.1c-0.2,0-0.4,0.1-0.6,0.1
				c-0.3,0-0.5,0-0.6-0.1c-0.2,0-0.3-0.1-0.4-0.1c-0.8,0-0.9,0.8-1,1.2c-0.2,1.3-0.9,1.9-2.3,1.9c-0.1,0-0.2,0-0.3,0
				c-1.4-0.1-2-1.1-2-3.4c0-1,0.2-1.2,0.6-2c0.2-0.4,0.5-0.8,0.8-1.5c0.8-1.5,1.4-1.8,2.1-2.1c0.2-0.1,0.5-0.2,0.7-0.4
				c0.2-0.1,0.3-0.2,0.4-0.2c0.1,0,0.2,0,0.3,0.1c0.2,0.1,0.5,0.2,0.8,0.2c0.1,0,0.2,0,0.3,0c1.1-0.2,1.4-0.9,1.6-1.4
				c0-0.1,0-0.1,0.1-0.2c0.1,0,0.1,0,0.2,0c0.5,0.1,1.3,0.4,2.6,0.4c0.4,0,0.8,0,1,0c-0.2,0.8-0.2,2.4,1.5,4.3
				c0.5,0.6,1,0.9,1.5,0.9c1.6,0,1.7-2.6,1.7-5.6c0-1.8,0.7-2.3,2.7-3.7l0.1-0.1c1.1-0.8,1.7-1.7,2.3-2.6c0.7-0.9,1.3-1.8,2.5-2.6
				c1.1-0.7,2.9-1.5,4.5-2.2c1.9-0.9,3.8-1.7,4.6-2.4c1-0.8,0.8-2,0.6-3c-0.2-1.3-0.1-1.6,0.4-1.7c0.9-0.2,1.8-0.4,2.7-0.5
				c1.4-0.2,2.8-0.4,4.3-1s1.9-1.4,1.9-2c0.1-1-0.8-1.8-1.6-2.2c-0.3-0.2-0.4-1-0.4-1.7c0-0.9-0.1-1.9-0.7-2.4
				c-0.3-0.3-0.8-0.5-1.3-0.5c-0.6,0-1.3,0.3-2.1,0.6c-0.5,0.2-1.1,0.5-1.8,0.6c-0.1,0-0.1,0-0.2,0c-0.2,0-0.4-0.5-0.6-1.2
				c-0.3-1-0.8-2.6-2.5-2.6c-0.2,0-0.4,0-0.6,0.1c-2.2,0.4-2.7,2.7-3,4.4c-0.1,0.6-0.3,1.5-0.5,1.6c-1.3,0-1.7,0.8-2.1,1.6
				c-0.3,0.5-0.5,1.1-1.1,1.6c-0.3,0.3-0.6,0.4-0.6,0.4c-0.1-0.1-0.3-0.8,0.4-2.2c0.3-0.6,0.6-1.4,0.2-2c-0.5-0.8-1.5-0.8-2.8-0.9
				c-0.5,0-1,0-1.5-0.1c-1-0.1-1.3-0.4-1.3-0.4s0-0.2,0.3-0.5c8.2-4.9,17.7-7.6,27.9-7.6c12.4,0,23.7,4.1,32.9,11
				c-0.1,0.6-0.6,1.4-1,2.1c-0.6,1.1-0.3,1.7-0.3,1.7s2.9-0.5,3.5-0.8c0.2-0.1,0.4-0.4,0.6-0.8c0.3,0.3,0.6,0.5,0.9,0.8
				c-0.7,0.7-1.5,1.3-1.8,1.5c-0.5,0.3-2,0.8-2.6,1.1c-0.6,0.3,1.8,1.4,1.8,1.8c0,0.5,0,2.6-0.9,2.7c-0.9,0.2-5.2,0.2-5.2,0.2
				s-1.4,4.9-1.1,5.3c0.3,0.5,2.3,1.5,3.5,1.4c1.2-0.2,4-1.5,4-1.5l1.2-2.7l2.4-2.6c0,0,1.8,0.8,2.4,0.2c0.6-0.6,1.8-1.2,1.8-1.2
				s1.2,2.3,2,2.6l0.1,0.1l0,0c0.9,1.2,1.7,2.5,2.5,3.8l0,0l0,0l0,0c0,0.1,0.1,0.2,0.1,0.2c1.3,2.1,2.4,4.3,3.3,6.6
				C-130.8,86.4-131.9,85.7-132.8,85.1z"/>
		</g>
		<path class="st2" d="M-227.5,84c0,0,2.2-46.3,37.7-50.6s48.7,29.1,48.7,29.1"/>
		<path class="st1" d="M-213.7,38.7c-6.2-10.2-21.1-10.3-27.2,0.1c-3.1,5.4-2.6,10.5,0,15.7c2.3,4.5,4.4,9.1,6.7,13.7l5,10.3
			c0.4,0.8,1.2,2.4,1.6,3.3h0.7c0.2-1.1,12.9-26.5,13.3-27.3C-210.9,49.2-210.5,44-213.7,38.7z M-227.4,53.4c-3.2,0-5.9-2.6-5.9-5.9
			c0-3.2,2.6-5.9,5.9-5.9c3.2,0,5.9,2.6,5.9,5.9C-221.6,50.8-224.2,53.4-227.4,53.4z"/>
		<g>
			<path class="st5" d="M-129.9,41.3c-3.6-6-12.5-6.1-16,0.1c-1.8,3.2-1.6,6.2,0,9.3c1.3,2.7,2.6,5.4,4,8.1l3,6.1
				c0.2,0.5,0.7,1.4,0.9,2h0.4c0.1-0.6,7.6-15.6,7.9-16.1C-128.2,47.5-128,44.5-129.9,41.3z M-138.1,49.3c-1.8,0-3.3-1.5-3.3-3.3
				s1.5-3.3,3.3-3.3s3.3,1.5,3.3,3.3S-136.3,49.3-138.1,49.3z"/>
			<polygon class="st5" points="-137.7,66.8 -137.7,66.8 -137.7,66.8 			"/>
		</g>
	</g>
	<rect x="-280.9" class="st7" width="200" height="200"/>
</g>
<g>
	<g>
		<g>
			<path class="st10" d="M120.9,43.8c17,1.8,29.4,17.1,27.5,34.1c-1.1,10.5-7.3,19.2-15.9,23.9l0.6,7.8l-6.1-5.4
				c-4,1.3-8.3,1.8-12.7,1.3c-17-1.8-29.4-17.1-27.5-34.1S103.8,41.9,120.9,43.8z"/>
			<path class="st14" d="M64.1,46.2C48.3,49.5,38.3,65,41.6,80.7c2,9.7,8.7,17.2,17.1,20.8l0.2,7.3l5.2-5.6c3.9,0.8,7.9,0.9,12,0
				c15.8-3.3,25.8-18.8,22.5-34.5S79.9,42.9,64.1,46.2z"/>
			<g>
				<path class="st5" d="M139,114.8c0,0,8.5,0,10.7,7.8c2.1,7.8-2.1,21.3-10.7,21.3h-0.2c-8.6,0-12.8-13.5-10.7-21.3
					s10.7-7.8,10.7-7.8H139z"/>
				<path class="st5" d="M134.2,140.4c0,0,1.4,6.4-2.8,7.1s-13.5,3.6-14.2,7.1c-0.7,3.6-0.7,9.2-0.7,9.2h44.3c0,0,0-5.7-0.7-9.2
					c-0.7-3.6-9.9-6.4-14.2-7.1s-2.8-7.1-2.8-7.1"/>
			</g>
			<g>
				<path class="st1" d="M57.8,117.3c0,0,7.9,0,9.9,7.3s-2,19.8-9.9,19.8h-0.2c-7.9,0-11.9-12.5-9.9-19.8s9.9-7.3,9.9-7.3H57.8z"/>
				<path class="st1" d="M53.4,142.1c0,0,1.3,5.9-2.6,6.6c-4,0.7-12.5,3.3-13.2,6.6s-0.7,8.6-0.7,8.6H78c0,0,0-5.3-0.7-8.6
					s-9.2-5.9-13.2-6.6c-4-0.7-2.6-6.6-2.6-6.6"/>
			</g>
			<g>
				<circle class="st13" cx="84.2" cy="75.8" r="3.3"/>
				<circle class="st13" cx="70" cy="75.8" r="3.3"/>
				<circle class="st13" cx="55.7" cy="75.8" r="3.3"/>
			</g>
		</g>
		<path class="st15" d="M160.5,72.8c0,0,4,21-14,32"/>
		<path class="st15" d="M167.5,88.8c0,0-1,14-14,20"/>
		<path class="st15" d="M57.6,36.2c0,0-21.1,3.7-25,24.4"/>
	</g>
	<rect class="st7" width="200" height="200"/>
</g>
</svg>
