<?xml version="1.0" encoding="utf-8"?>
<!-- Generator: Adobe Illustrator 21.1.0, SVG Export Plug-In . SVG Version: 6.00 Build 0)  -->
<svg version="1.1" id="圖層_1" xmlns="http://www.w3.org/2000/svg" xmlns:xlink="http://www.w3.org/1999/xlink" x="0px" y="0px"
	 viewBox="0 0 200 200" style="enable-background:new 0 0 200 200;" xml:space="preserve">
<style type="text/css">
	.st0{fill:#FFD15C;}
	.st1{fill:#F3705A;}
	.st2{fill:#E8EAE9;}
	.st3{fill:#415A6B;}
	.st4{fill:#CED6E0;}
	.st5{fill:#344A5E;}
	.st6{fill:#F3F3F3;}
	.st7{fill:#4ABAA5;}
	.st8{fill:#66C6B9;}
	.st9{fill:#FFD23E;}
	.st10{opacity:0.9;fill:#E8B118;enable-background:new    ;}
	.st11{fill:#FC6222;}
	.st12{fill:none;stroke:#15275C;stroke-width:4;stroke-linecap:round;stroke-linejoin:round;stroke-miterlimit:10;}
	.st13{fill:#FF5B62;}
	.st14{fill:#ED4C54;}
	.st15{fill:#21D0C3;}
	.st16{fill:#FFFFFF;}
	.st17{fill:#15BDB2;}
	.st18{fill:#C8CACC;}
	.st19{fill:#FF816F;}
	.st20{fill:#807D7D;}
	.st21{fill:#FFBA1B;}
	.st22{fill:#F5A209;}
	.st23{fill:#20D0C2;}
	.st24{fill:#15BDB1;}
	.st25{fill:#666666;}
	.st26{fill:#FFCA4F;}
	.st27{fill:#FF5B61;}
	.st28{fill:#FF4776;}
	.st29{opacity:0.9;fill:#FFC919;enable-background:new    ;}
	.st30{fill:#00D3AC;}
	.st31{opacity:0.9;fill:#DD51FF;enable-background:new    ;}
	.st32{fill:#15275C;}
	
		.st33{fill:none;stroke:#15275C;stroke-width:3;stroke-linecap:round;stroke-linejoin:round;stroke-miterlimit:10;stroke-dasharray:4,9;}
	.st34{fill:none;stroke:#15275C;stroke-width:4;stroke-linecap:square;stroke-linejoin:bevel;stroke-miterlimit:10;}
	.st35{fill:#15275C;stroke:#15275C;stroke-width:4;stroke-linecap:square;stroke-linejoin:bevel;stroke-miterlimit:10;}
	.st36{fill:none;stroke:#FFFFFF;stroke-width:3;stroke-linecap:round;stroke-linejoin:round;stroke-miterlimit:10;}
	.st37{fill:#15275C;stroke:#15275C;stroke-width:4;stroke-linecap:square;stroke-miterlimit:10;}
	.st38{fill:#FFFFFF;stroke:#15275C;stroke-width:4;stroke-linecap:round;stroke-linejoin:round;stroke-miterlimit:10;}
	.st39{fill:#15275C;stroke:#15275C;stroke-width:4;stroke-linecap:round;stroke-linejoin:bevel;stroke-miterlimit:10;}
	.st40{fill:#15275C;stroke:#15275C;stroke-width:4;stroke-linecap:round;stroke-miterlimit:10;}
	.st41{fill:#15275C;stroke:#15275C;stroke-width:4;stroke-linecap:round;stroke-linejoin:round;stroke-miterlimit:10;}
	.st42{fill:#FFFFFF;stroke:#15275C;stroke-width:4;stroke-linecap:square;stroke-linejoin:bevel;stroke-miterlimit:10;}
	.st43{fill:none;}
</style>
<path class="st0" d="M1643.6,517.1c8.6-3.8,18.3,0.5,22,9.1c3.8,8.6-0.5,18.3-9.1,22c-8.6,3.2-45.7,0.5-45.7,0.5
	S1635,520.3,1643.6,517.1z"/>
<g>
	<path class="st1" d="M1654.9,521.4c4.3-1.6,8.6,0,10.7,4.3c1.6,4.3,0,8.6-4.3,10.7c-4.3,1.6-22,0.5-22,0.5
		S1650.6,523.6,1654.9,521.4z"/>
	<path class="st1" d="M1662.4,499.9l34.9-16.1c-14.5-18.3-41.4-22.6-60.7-9.1c-5.4,3.8-9.7,8.6-12.9,14
		C1637.7,485.9,1652.2,490.2,1662.4,499.9z"/>
	<path class="st1" d="M1682.8,544l34.9-16.1c4.3,23.1-9.7,45.7-32.8,52.1c-6.4,1.6-12.9,2.2-18.8,1.1
		C1676.9,571.9,1683.4,558.5,1682.8,544z"/>
</g>
<path class="st2" d="M1832.3,481.6c-43,40.9-66.1,41.9-152.1,66.7l-22.6-48.9c74.7-48.9,90.8-65.6,149.4-71.5
	C1822.6,442.9,1831.7,460.7,1832.3,481.6z"/>
<path class="st1" d="M1807.5,427.3c15.1,15.1,24.2,32.8,24.7,53.8l36.5-49.5L1807.5,427.3z"/>
<path class="st3" d="M1649,500.4l24.7,53.8c2.2-1.6,4.3-3.8,6.5-5.9l-22.6-48.9C1654.9,499.4,1651.7,499.9,1649,500.4z"/>
<path class="st0" d="M1793,344c0,0,8.1-2.7,9.7-3.8s5.4-2.7,5.9-3.2s3.2-1.6,4.3-1.1c0.5,0.5,4.3,5.4,3.8,6.5s-1.1,1.1-1.1,1.1
	s1.1,1.6-0.5,2.7s-5.9,1.1-7.5,0.5c-1.6-0.5-3.8-1.1-3.8-1.1l-8.6,5.4L1793,344z"/>
<path class="st2" d="M1786.6,345.6l9.1-3.8c0,0,2.7,9.1,3.8,10.2l-8.6,4.3L1786.6,345.6z"/>
<path class="st4" d="M1735,513.9c0,0-0.5-5.4,4.3-9.7c5.4-4.3,5.4-9.1,5.4-9.1l-11.8,1.1c0,0-3.2,2.7-5.9,3.2
	c-2.2,0.5-2.2,0.5-2.2,0.5S1722.1,516.6,1735,513.9z"/>
<path class="st5" d="M1708.6,433.3c0,0-8.1,17.2,15.6,25.3c24.2,8.6,37.6,14,37.6,14s-14.5,10.7-21,16.1c-6.4,5.4-12.4,9.7-12.4,9.7
	s6.4,7.5,10.7,9.7c4.3,2.2,9.7,7,9.7,7l21-24.7c0,0,16.7-10.2,18.3-15.1c1.6-4.8-0.5-11.8-4.3-15.6c-4.3-3.8-28-21.5-28-21.5
	s-7.5-17.2-9.7-27.4s-4.8-16.7-4.8-16.7L1708.6,433.3z"/>
<g>
	<path class="st3" d="M1742.5,363.4c0,0,3.8-0.5,10.2-2.7c6.5-2.2,15.6-6.4,20.4-9.1c4.8-2.7,16.1-7,16.1-7s1.6,9.7,6.4,12.4
		c0,0-15.6,7-19.4,9.1s-27.4,13.4-31.2,14.5L1742.5,363.4z"/>
	<path class="st3" d="M1742,362.3c0,0,3.8,2.7,3.2,14.5c-0.5,11.8-1.1,12.4,0,19.9s10.2,38.7,10.2,40.9c0,2.2-0.5,0-0.5,0
		s-8.6-5.4-9.1-13.4c-0.5-8.1-7.5-26.3-6.4-31.7C1740.3,387,1742,362.3,1742,362.3z"/>
	<path class="st3" d="M1666.7,409.1c0,0-0.5,1.6-6.4-2.7c-5.9-4.3-6.4-5.4-6.4-5.4l7.5-0.5C1661.3,400.5,1667.2,403.2,1666.7,409.1z
		"/>
</g>
<path class="st0" d="M1738.7,368.8c1.1-6.4,2.7-10.7,4.8-10.2c9.1,1.6,9.7-3.2,9.7-3.8c0-0.5,0-1.1,0.5-2.2s-0.5-1.6-0.5-1.6
	c0.5,0,1.1-0.5,0.5-1.1c-0.5-1.1-0.5-1.6-0.5-1.6s1.6-0.5,2.2-0.5c0.5-0.5,0.5-0.5,0-1.6c-1.1-1.6-4.8-5.9-4.8-5.9s0.5,0,0-2.2
	s-4.8-8.1-4.8-8.1l-19.9,12.4l-2.7,12.4c0,0-4.3,11.3-5.4,14L1738.7,368.8L1738.7,368.8z"/>
<g>
	<polygon class="st6" points="1741.4,360.2 1737.6,362.8 1738.7,368.8 1741.4,363.9 	"/>
	<polygon class="st6" points="1726.4,351 1737.6,362.8 1732.8,368.2 1722.1,354.2 	"/>
</g>
<path class="st3" d="M1738.2,344.6l2.2-1.1c0,0-1.1-2.2-0.5-4.3c0.5-2.2,2.2-3.2,2.7-4.8c0.5-1.6,4.3-2.2,4.3-2.2s1.1-2.7-0.5-4.8
	c-1.1-3.2-6.4-2.7-12.4-1.6s-12.4,4.3-13.4,7c-1.6,2.7,1.1,15.6,2.2,18.8c1.1,3.2,8.6-2.2,9.1-4.8c0.5-2.7-0.5-3.2,1.6-4.8
	C1735.5,339.7,1738.2,344.6,1738.2,344.6z"/>
<ellipse transform="matrix(0.8825 -0.4703 0.4703 0.8825 42.2593 856.3399)" class="st0" cx="1735" cy="343.6" rx="2.7" ry="4.3"/>
<path class="st5" d="M1741.4,360.2c0,0-3.2,4.3-2.7,10.7c0.5,6.4,1.1,21,1.1,21s1.6-5.4,3.2-8.1c1.6-3.2,2.7-7,2.7-10.7
	c0-3.8-2.2-5.9-2.2-5.9l1.1-0.5C1744.6,366.6,1743,360.2,1741.4,360.2z"/>
<g>
	<path class="st7" d="M1681.7,430v36.5c0,1.6-1.1,2.7-2.7,2.7h-51.6c-1.6,0-2.7-1.1-2.7-2.7V430c0-1.6,1.1-2.7,2.7-2.7h52.1
		C1680.7,427.3,1681.7,428.4,1681.7,430z"/>
	<path class="st7" d="M1646.8,429v-4.8c0-0.5,0.5-0.5,0.5-0.5h11.8c0.5,0,0.5,0.5,0.5,0.5v4.8h4.3v-4.8c0-2.7-2.2-4.8-4.8-4.8h-11.8
		c-2.7,0-4.8,2.2-4.8,4.8v4.8H1646.8z"/>
</g>
<path class="st0" d="M1664,407.5c0,0-1.1,4.3-1.1,4.8s2.2,3.2,2.7,4.8c0.5,1.6-1.1,5.4-1.6,5.9c0,0-0.5-1.6-1.1-2.2
	c-0.5-0.5-1.1,0-2.2,1.1c-1.1,0.5-2.2,2.2-2.7,3.2c0,0.5-0.5,0.5-1.1,0.5c-0.5,0-1.6-0.5-1.6-1.1c0,0-2.2,0.5-2.7,0
	c0,0-2.7,0-3.2-0.5c0,0-2.2,0.5-2.2-1.6c0.5-1.6,2.2-5.4,3.2-7c1.1-2.7,2.7-6.5,4.3-8.6c3.8-6.4,7-6.4,7-6.4L1664,407.5z"/>
<path class="st2" d="M1654.9,405.3c0,0,8.6,1.6,9.1,5.4l5.4-8.1l-9.1-7L1654.9,405.3z"/>
<path class="st5" d="M1697.3,360.2c0,0-1.1,2.7-11.3,8.1s-16.1,15.1-21.5,20.4c-5.4,5.4-10.7,12.4-10.7,12.4s10.7,3.2,12.9,8.1
	c0,0,5.4-9.1,8.6-12.4s6.4-7,7-7.5c0.5-0.5,10.2-4.3,12.9-5.4s5.9-2.7,5.9-2.7S1705.4,362.3,1697.3,360.2z"/>
<path class="st3" d="M1722.1,351.6c0,0-2.2,2.2-5.9,2.2c-3.8,0.5-5.9-1.1-10.2-1.6s-8.1,5.4-8.6,7.5c-0.5,2.2,2.7,48.9,2.7,54.3
	s0.5,26.3,0.5,26.3s23.6,1.1,31.2-2.7c7.5-3.8,9.7-7.5,10.7-11.3c0.5-3.8-2.2-34.4-2.2-34.4s1.1-5.4-3.2-11.3
	C1732.8,374.7,1722.1,351.6,1722.1,351.6z"/>
<path class="st5" d="M1739.8,392.4c0,0,0-5.9-1.6-8.1c-1.6-2.7-4.3-3.8-5.4-5.9c-1.1-2.2-4.3-9.1-6.4-11.8c-2.2-2.7-4.8-8.6-4.8-8.6
	l1.6-1.6l-4.3-1.1l3.2-4.8c0,0.5,0.5,1.1,0.5,1.1c0.5,1.1,1.6,1.1,2.7,0.5c1.6,3.2,3.8,7,5.9,9.7c2.7,3.8,3.8,9.1,4.3,11.8
	c0,2.7,3.8,8.1,4.3,10.2C1740.3,386,1739.8,392.4,1739.8,392.4z"/>
<g>
	<rect x="1632.3" y="427.3" class="st8" width="6.4" height="41.9"/>
	<rect x="1667.8" y="427.3" class="st8" width="6.5" height="41.9"/>
</g>
<path class="st3" d="M1727.4,499.4c0,0-0.5,3.8,0.5,6.4c1.6,3.2,5.9,2.7,7.5,3.8c1.6,1.1-1.1,11.3,1.1,17.7c2.2,6.5,4.3,8.6,2.7,9.7
	c-1.6,1.1-4.3-1.1-7-4.3s-7.5-10.2-8.1-13.4c-0.5-3.8-1.6-5.4-1.6-5.4l-2.7,1.1l-5.9-9.7l3.8-2.2
	C1717.8,502.6,1722.1,496.1,1727.4,499.4z"/>
<path class="st9" d="M2574.1-452.8c-28.4,0-51.5,20.1-51.5,45c0,12.7,6,24.2,15.7,32.3c-11.7,9.8-23.2,8.9-23.2,8.9
	c10.8,8.4,28.3,4.2,39.1,0.2c6.1,2.2,12.8,3.5,19.9,3.5c28.4,0,51.5-20.1,51.5-45C2625.6-432.6,2602.5-452.8,2574.1-452.8z"/>
<path class="st10" d="M2574.1-452.8c-4.8,0-9.5,0.6-14,1.7c5.9,19.1,25.9,33.2,49.7,33.2c4.8,0,9.5-0.6,14-1.7
	C2617.9-438.7,2597.9-452.8,2574.1-452.8z"/>
<path class="st11" d="M2611.6-510.7c28.4,0,51.5,20.1,51.5,45c0,12.7-6,24.2-15.7,32.3c11.7,9.8,23.2,8.9,23.2,8.9
	c-10.8,8.4-28.3,4.2-39.1,0.2c-6.1,2.2-12.8,3.5-19.9,3.5c-28.4,0-51.5-20.1-51.5-45S2583.1-510.7,2611.6-510.7z"/>
<path class="st12" d="M2611.6-510.7c28.4,0,51.5,20.1,51.5,45c0,12.7-6,24.2-15.7,32.3c11.7,9.8,23.2,8.9,23.2,8.9
	c-10.8,8.4-28.3,4.2-39.1,0.2c-6.1,2.2-12.8,3.5-19.9,3.5c-28.4,0-51.5-20.1-51.5-45S2583.1-510.7,2611.6-510.7z"/>
<path class="st13" d="M2207.1,599.2c-28.4,0-51.5,20.1-51.5,45c0,12.7,6,24.2,15.7,32.3c-11.7,9.8-23.2,8.9-23.2,8.9
	c10.8,8.4,28.3,4.2,39.1,0.2c6.1,2.2,12.8,3.5,19.9,3.5c28.4,0,51.5-20.1,51.5-45S2235.5,599.2,2207.1,599.2z"/>
<path class="st14" d="M2207.1,599.2c-4.8,0-9.5,0.6-14,1.7c5.9,19.1,25.9,33.2,49.7,33.2c4.8,0,9.5-0.6,14-1.7
	C2250.9,613.3,2230.9,599.2,2207.1,599.2z"/>
<path class="st15" d="M2244.6,541.3c28.4,0,51.5,20.1,51.5,45c0,12.7-6,24.2-15.7,32.3c11.7,9.8,23.2,8.9,23.2,8.9
	c-10.8,8.4-28.3,4.2-39.1,0.2c-6.1,2.2-12.8,3.5-19.9,3.5c-28.4,0-51.5-20.1-51.5-45S2216.1,541.3,2244.6,541.3z"/>
<g>
	<path class="st16" d="M2217.1,574.2h51.4c2.3,0,2.3,3.5,0,3.5h-51.4C2214.8,577.7,2214.8,574.2,2217.1,574.2z M2216.4,596.9h30.5
		c1.4,0,1.4,3.5,0,3.5h-30.5C2215.1,600.4,2215.1,596.9,2216.4,596.9z M2217.1,585.6h51.4c2.3,0,2.3,3.5,0,3.5h-51.4
		C2214.8,589.1,2214.8,585.6,2217.1,585.6z"/>
	<path class="st16" d="M2181.2,638.8h51.4c2.3,0,2.3,3.5,0,3.5h-51.4C2178.9,642.3,2178.9,638.8,2181.2,638.8z M2180.5,661.5h30.5
		c1.4,0,1.4,3.5,0,3.5h-30.5C2179.1,665,2179.1,661.5,2180.5,661.5z M2181.2,650.2h51.4c2.3,0,2.3,3.5,0,3.5h-51.4
		C2178.9,653.7,2178.9,650.2,2181.2,650.2z"/>
</g>
<g>
	<g>
		<path d="M852.5-1025.7h-0.2c-2.6,0-4.7,2.1-4.7,4.7c0,2.6,2.1,4.7,4.7,4.7h0.2c2.6,0,4.7-2.1,4.7-4.7
			C857.2-1023.6,855.1-1025.7,852.5-1025.7z"/>
	</g>
</g>
<path class="st15" d="M1717.5,601h72.1c2.5,0,4.6,2.1,4.6,4.6v25.9h-11v-17.8c0-1.5-1.2-2.8-2.8-2.8h-53.8c-1.5,0-2.8,1.3-2.8,2.8
	v17.8h-10.9v-25.9C1712.9,603.1,1715,601,1717.5,601L1717.5,601L1717.5,601z"/>
<path class="st17" d="M1786.6,631.5h-3.4v-17.8c0-1.5-1.2-2.8-2.8-2.8h-53.9c-1.5,0-2.8,1.3-2.8,2.8v17.8h-3.4v-19.8
	c0-2.2,1.7-4.1,3.7-4.1h58.7c2.1,0,3.7,1.8,3.7,4.1L1786.6,631.5L1786.6,631.5z"/>
<path class="st13" d="M1664.6,627.1h177.9c4.1,0,7.4,3.3,7.4,7.4V750c0,4-3.3,7.4-7.4,7.4h-21.3v1.4c0,1.4-1.1,2.5-2.5,2.5h-20.1
	c-1.4,0-2.5-1.1-2.5-2.5v-1.4h-85v1.4c0,1.4-1.1,2.5-2.5,2.5h-20.1c-1.4,0-2.5-1.1-2.5-2.5v-1.4h-21.3c-4,0-7.4-3.3-7.4-7.4V634.5
	C1657.2,630.4,1660.5,627.1,1664.6,627.1z"/>
<path class="st14" d="M1849.6,752.2c-0.9,3-3.8,5.2-7,5.2h-21.3v1.4c0,1.4-1.1,2.5-2.5,2.5h-20.1c-1.4,0-2.5-1.1-2.5-2.5v-1.4h-85
	v1.4c0,1.4-1.1,2.5-2.5,2.5h-20.1c-1.4,0-2.5-1.1-2.5-2.5v-1.4h-21.3c-3.3,0-6.1-2.2-7-5.2H1849.6z"/>
<circle class="st16" cx="1833.5" cy="747.8" r="44.3"/>
<path class="st17" d="M1833.5,708.2c21.8,0,39.6,17.7,39.6,39.6s-17.7,39.6-39.6,39.6s-39.6-17.7-39.6-39.6
	S1811.6,708.2,1833.5,708.2z"/>
<path class="st15" d="M1833.5,708.2c15.7,0,29.2,9.1,35.6,22.3c1,3.6,1.5,7.4,1.5,11.2c0,23.9-19.3,43.2-43.2,43.2
	c-3.6,0-7-0.4-10.3-1.2c-13.6-6.2-23.1-20-23.1-36C1793.9,725.9,1811.6,708.2,1833.5,708.2z"/>
<path class="st16" d="M1858.2,716.9c7.4,5.9,12.6,14.4,14.2,24c-0.1-0.2-0.2-0.4-0.4-0.8c-0.8,0.3-0.8,0.3-1.7,0.4v0.1
	c-0.4,0.5,0,0.3-0.6,0.8c-0.8,0.6-1.3,1.5-2.1,2c-0.1,0.9,0.1,1.1-0.2,2.2c-0.1,0.4-0.5,1.5-1.1,1.4c-0.2,0-0.9-1.8-1-2.2
	c-0.3-0.8-0.6-1.4-0.8-2.3c-0.1-0.5-0.2-1.4-0.3-1.8c-0.5,0.1-0.5,0.4-1,0.1c-0.4-0.3-0.2-0.4-0.4-0.8c-0.4-0.4-0.9-0.8-1.3-1.2
	c-0.3-0.1-1.7,0.1-2.2,0c-1-0.1-1.1,0-1.7-0.8c-1.1,0.1-1,0.4-2-0.4c-0.7-0.6-0.5-1.5-1.5-1c0,0.8,0.4,1,0.7,1.4
	c0.3,0.3,0.6,0.5,0.7,0.9l0.1,0.4c0.9,0.1,1.2-0.4,1.7-0.8c0.5,0.5,0,0.6,0.7,0.9c0.6,0.3,0.5,0.1,0.8,0.6c0.2,0.6-1.3,2.4-1.8,2.7
	c-0.4,0.2-0.6,0.1-0.9,0.4c-0.5,0.4,0.1,0.4-0.8,0.7c-0.9,0.3-1.9,1.1-2.9,1.1c-0.2-0.6-0.4-1.2-0.6-1.8c-0.6-2-0.6-1.2-1.3-2.3
	c-0.3-0.5-0.2-0.8-0.4-1.2c-0.1-0.3-0.4-0.4-0.5-0.8c-0.3-0.6-0.6-1.5-1.3-1.4c-0.1,0.5,0.6,2,0.8,2.4s0.5,0.5,0.6,1.1
	c0.1,0.7,0,0.6,0.4,1.1c0.8,1,0,0.8,1.3,1.8c1,0.8,0.7,1,1.2,2c0.6,0.2,2.6-0.7,2.9-0.4c0.4,0.7-0.5,1.8-0.7,2.4
	c-0.7,2-1.9,2-2.9,3.6c-0.5,0.8-0.8,1-1.2,2c-0.5,1.1,1.1,4.3,0.1,5.6c-0.2,0.3-0.9,0.5-1.8,1.4c-0.9,1,0,0.8-0.3,2.5
	c-0.3,0.4-0.6,0.4-1,0.7c-0.1,0.4,0,0.7-0.2,1.2c-0.2,0.6-0.3,0.3-0.6,0.8c-0.2,0.4-0.2,0.5-0.5,0.9c-0.2,0.3-0.4,0.4-0.6,0.6
	c-1.1,1-3.5,1-3.7,0.9c-0.6-0.5-0.2-0.6-0.3-1.3c-0.1-0.6-0.4-1.1-0.7-1.5l0,0c-0.1-0.2-0.2-0.4-0.3-0.6c-0.5-1.4-0.3-2.5-1.1-4
	c-1-1.9,0.6-2.9,0.5-3.9c0-0.3-0.1-0.5-0.2-0.7c-0.2-1.2-0.3-2.2-1.1-3.2c-0.9-1-0.7-0.6-0.5-2.3c0.4-1.9-0.5-1.4-1.6-1.5
	c-0.6-1.7-1.6-0.9-2.7-0.4c-0.7,0.3-0.9-0.1-1.7,0c-1.7,0.2-0.4,1-2.7-0.9c-1-0.8-0.3-0.4-0.9-1.3c-0.2-0.3-0.8-0.8-1-1.1
	c-0.9-1.1,0.2-2.2,0-3.5c-0.3-2.3-0.6-0.3,0.7-3.1c0.7-1.5,1.7-1.5,2-2.2c0.2-0.6,0.1-1,0.5-1.6c0.4-0.4,0.9-0.4,1.1-1.1
	c0.3-0.9-0.3-1-0.9-1c-0.3-0.9-0.3-0.7-0.1-1.5c0.1-0.5,0-0.7,0.1-1.2c0.3-1.2,2.2,0,2.8-0.5c0.3-0.5,0.3-1,0-1.5s-0.7-0.4-0.9-0.9
	c0.5-0.3,0.1,0,0.5-0.1c0.5-0.1,0.4-0.3,1-0.4c0.5-0.1,0.8-0.6,1.4-0.9c0.7-0.5,0.4-0.9,1.3-1c1.4-0.2,0.5-0.2,0.6-1.5
	c0.2-0.1,0.4-0.2,0.6-0.3c0.4,0.6-0.1,0.3,0.4,0.7c0.1-0.1,0.3-0.2,0.5-0.2c-0.1-0.6-0.4-0.5-0.6-1.3c-0.7,0.1-0.9,0.7-1.5,0.5
	c-0.5-0.2-0.6-1-0.5-1.6c0.2-0.5,1.2-0.7,1.6-0.9c0.6-0.2,0.5-0.6,1.1-1.2c0.8-0.8,0.2,0,0.6-1c0.8,0,0.4-0.1,0.9-0.3l0,0h0.1
	c0.3-0.1,0.7-0.2,1.1-0.3c1.4-0.5,2-0.2,3,0.2c0.8,0.3,3.2,0.3,3.3,1.3c-0.6,0.6-1.1,0.2-1.9,0.2c0.2,0.8,0.2,0.8,0.9,1
	c0.1-0.4-0.1-0.2,0.1-0.5c0.2,0.1,0.5,0.1,0.7,0.1c0.2-0.8,0.5-0.7,1.3-0.8c-0.1-0.5-0.3-0.4,0-0.8c0.8,0.1,0.2,0,0.5,0.6
	c0.6-0.1,1.1-0.7,1.9-0.8c0.5-0.1,0.5,0.1,1.1,0.1c0.6-0.1,0.5-0.3,1.1,0c0.2-0.4,0-0.4,0.5-0.5c0.8-0.1,1.4,0.3,2.2,0.4
	c-0.5-0.7-1.1-0.5-0.4-1.7c0.8-0.2,0.9-0.1,1.3,0.6C1858,717.1,1858.1,716.9,1858.2,716.9L1858.2,716.9L1858.2,716.9L1858.2,716.9z
	 M1794.8,739.2c1.8-8.1,6-15.3,12-20.7c0.5,0.2,1.1,0.1,1.5,0c0.2-0.3,0.3-0.6,0.6-0.7c0.1,0,0.3-0.1,0.4,0c0,0.2,0.1,0.3,0.1,0.5
	v0.1v0.1c0.8-0.5,0.1-0.5,0.6-1.3c-0.7-0.1-0.6-0.1-1-0.5c0.4-0.4,1.2-0.6,1.8-0.6c0,0.4-0.2,0.4-0.1,0.7c0.5-0.3,0.8-1,1.5-0.9
	c0.1,0.1,0.3,0.2,0.5,0.3c-0.4,0.4-0.9,0.4-1.4,0.6c-0.2,2.2,0.7,0.4,0.4,1.9c0.5,0,1.1-0.4,1.3-0.8c-0.2-0.3-0.5-0.3-0.7-0.6
	c0.1-0.4,0.4-0.7,0.8-0.9c0.3-0.1,0.6-0.2,0.9-0.2c4,0,2.1,0.2,3.4,0.8c0.3,0.1,0.8,0.2,0.9,0.4c0.3,0.4,0,0.8,0.4,1.1
	s0.4,0,0.9,0.6c-0.1,0.3-0.3,0.7-0.8,0.7c-0.7,0-0.3-0.5-1-0.4c0,0.7,0.7,1,0.1,1.3c-0.6,0.3-0.2-0.1-0.6,0.1h-0.1l-0.1,0.1
	c-0.1,0.1-0.1,0.2-0.2,0.2c-1-0.3-0.8-0.2-1.4-0.8c-0.2-0.3-0.3-0.3-0.7-0.3c-0.3,0-0.6,0.1-0.8-0.1c0.5-0.6,0.7,0,1.5-0.4
	c0.1-0.1,0.9-0.7,1.1-0.8c-0.2-0.5,0-0.1-0.3-0.4c-0.7-0.7-0.9-0.5-1.9-0.5c-0.5,0.5-0.8,1.2-1.3,1.4c-0.3,0.2-0.6,0.2-1.1,0
	c0.2,0.9,0.8,0.2,0.8,1.3c-0.4-0.1-0.6-0.3-0.9-0.1c-0.8,0.3-0.1,0.3,0,0.4c0,0,0.4,0.1,0,0.2c-0.4,0.2-0.1-0.1-0.9-0.6
	c0.1-0.2,0.2-0.4,0.3-0.6c-0.7,0.2-1.5,0.5-2.3,0.9c-0.9,0.4-1.7,0.9-2.2,1.4c0,0.8,0.1,0.3,0.2,1.2c1.2,0.1,0.8,0.4,2,0.8
	c0.2,0.1,0.5,0.1,0.9,0.2c0,0.6-0.5,1-0.2,1.6c0.8,0.6,0.8-0.5,1.1-1.3c2.8-0.6,1.4-1.4,2.2-2.9c0.1-0.2,0.3-0.5,0.5-0.7
	c0.2,0,1.1,0.1,1.3,0.1c0.6,0.1,0.3,0.3,1,0.6c0,0.5-0.3,1.3,0.5,1.1c0.6-0.1,0.5-0.6,1.2-0.7c0.3,0.8,0.3,1.1,0.4,2.1
	c1.8,0.7,1,1.3,0.7,2.6c0.2,0.1,0.5,0.2,0.7,0.3c0,0.4,0,0.8,0,1.1c0,0-1.9-0.4-2.1-0.5c0.3-0.8,0.8-0.8,1.2-1.7
	c-0.7,0.1-0.6,0.3-1.1,0.5c-0.4,0.1-0.8,0-1.3,0.1c-0.2,0.5,0-0.5,0,0.2c0,0.3,0.2,0,0,0.3c-0.6-0.3-0.4-1-1.6-0.3
	c0.3,0.1,0.5,0.2,0.8,0.3c0,0.8-0.1,0.2-0.3,0.7c-0.4,1.3,1.1,0.5,1.5,0.4c-0.1,0.7-0.5,0.7-1.1,0.9c-0.7,0.2-0.9,0.5-1.4,0.6
	c0-0.8-0.1-0.1,0.2-0.7c-0.5,0.1-0.9,0.3-1.4,0.5h-0.1c-0.7,0.3-0.7,0.3-0.8,1.1c-0.6,0.2-1.2,0.4-1.6,0.8c-0.4,0.4-0.8,0.7-1.2,1.1
	l-0.1,0.1c0.1,1,0,1.1-0.6,1.5c-0.5,0.3-0.7,0.3-1.2,0.8c-1.6,1.4-0.8,0.8-0.7,3.2c-0.3-0.1-0.6-0.2-0.9-0.3
	c-0.2-1.6,0.1-1.1-1.2-1.5c-1.4-0.4-1.2,0.3-1.8,0.4c-0.6,0.1-1-0.6-1.9,0c-0.5,0.4-1,0.6-1.1,1.2c-0.2,0.8-0.5,1.3-0.4,2.2
	c0.1,2.3,2.2,2.4,2.7,1.3c0.4-0.7,0.3-1.1,1.4-0.9c0.1,0.6-0.1,1.1-0.2,1.5c-0.1,0.3-0.4,0.8-0.2,1.1c0.8,0.3,0.8-0.3,1.9,0.4
	c0.1,1.1-0.5,2.3,0.3,2.9c0.6,0.5,0.7,0.1,1.3-0.1c0.6-0.1,0.5,0.3,1.1,0.4c0.3-0.4,0.2-0.2,0.4-0.6c0.4-0.9,0.5-0.5,1.4-1
	c0.1-0.1,0.2-0.1,0.3-0.2c0.1,0.2,0.2,0.4,0.3,0.6c0.7-0.8,0.7,0,1.5,0.2c0.3,0.1,0.6,0.1,0.7,0.1c0.6,0,0.6-0.3,1.4,0
	c0.1,0,0.2,0.1,0.3,0.1h0.1c0,0,0.1,0,0.1,0.1c0.1,0.1,0.1,0.3,0.2,0.4c0.5,0.5,1,1,1.5,1.5c1,0.4,1-0.3,2.1,0.8
	c0.5,0.5,0.3,0.4,0.5,1c0,0.1,0.1,0.2,0.2,0.3c0.1,0.3,0.2,0.5,0.3,0.8c0.5,0.7,1.2,0.3,1.9,1c0.4,0.4,0.1,0.3,1,0.4
	c1.4,0.2,0.9,0.1,2,0.9c0.4,0.3,0.5,0.1,0.9,0.4c0.5,0.8,0.4,1.6-0.1,2.3c-1.4,2-0.9,1.7-1,3.3c-0.1,0.9-0.3,2.9-1.2,3.1
	c-3.2,0.9-1.3,1.5-2.2,3.1c-0.2,0.4-0.4,0.6-0.6,0.9c-0.6,1.5-0.2,2-2.1,1.6c0.2,0.3,0.1,0.1,0.2,0.4c0.6,0.9,0.6,1.5-0.5,1.7
	c-0.9,0.2-0.5,0-0.6,1.1c-0.4,0.2-0.5,0-0.8,0.2c0.3,0.6,0,0.1,0.6,0.4c-0.1,0.3-0.2,0.7-0.3,1c-0.2,0.8-0.3,0.1-0.4,1
	c0.3,0.2,0.6,0.1,0.8,0.5c0,0.3-0.3,1.1-0.4,1.6c0.5,0.7,0.8,1.4,1.8,1.5c0,0.6,0.1,0.5-0.4,0.6c-0.4,0.1-1.3-0.3-1.7-0.5
	c-0.7-0.4-1.3-0.8-1.7-1.5c-0.3-0.4-0.2-0.2-0.4-0.5c-0.5-0.6-0.3-0.9-0.4-1.3c-0.1-0.2-0.5-0.5-0.3-1.3c0-0.2,0.4-1.3,0-1.1
	s0.3,0.1-0.3,0.4c-0.1-0.4-0.3-1-0.3-1.4c-0.2-0.8-0.3-0.8-0.4-1.3c-0.2-1.1,0.3-1.2-0.2-3.1c-0.3-1.2-0.2-4.2-0.6-5.7
	c-0.1-0.2-0.1-0.4-0.2-0.6c-0.3-0.6-1.2-0.8-1.8-1.3h-0.1c-0.9-0.6-1.8-3.2-2.5-4.1c-0.3-0.5-0.6-0.3-0.7-1
	c-0.2-0.7,0.1-0.5,0.3-1.1c-1.1-2.1,1.5-2,0.9-4.5c-0.1-0.5-0.4-1.1-0.7-1.3c-0.5,0.2-0.3,0.4-0.6,0.8c-0.4-0.2-0.9-0.5-1.3-0.7
	c-1.3-1.3-0.6-0.3-1-1.2c-0.8-1.7-1.5-0.8-2.5-1.6c-0.4-0.4-0.5-0.9-1.2-0.8c-1.1,0.1-0.5,0.3-1.6-0.2c-0.9-0.4-1.9-0.9-2.5-1.5
	C1795.4,740.3,1795.8,740.4,1794.8,739.2L1794.8,739.2z M1807.2,718.2c0.2-0.2,0.5-0.4,0.7-0.6l0,0c0.1,0.1,0.1,0.1,0.1,0.3
	C1807.5,718,1807.5,718.1,1807.2,718.2L1807.2,718.2L1807.2,718.2z M1841.1,729.9c0.3,0.2,0.8,0.4,1,0.6c0.3,0.9-0.1,0.5,0.6,1.4
	c0.4,0.5,0.3,0.9,0.7,1.2c0.7-0.1,0.1,0.1,0.5-0.3c0.1-0.1,0.3-0.3,0.4-0.4c-0.2-0.3-0.4-0.4-0.6-0.7c0.8-1,1.1-0.4,1.3,0.2
	c0.5,1.9,1.3,1.4,1.9,1.3c0.6-0.1,0.1,0,0.7,0.2c0.6,0.1,0.3,0,0.7-0.1c1.3-0.3,0.3,2.3,0.2,2.5c-0.7,0.1-0.6-0.1-1.1-0.1
	c-1.1-0.1,0.1,0.6-2.4-0.2c-2.4-0.8-1.9-0.9-2.4,0.7c-0.5,0-0.5-0.1-1-0.3c-0.2-0.1-0.3-0.1-0.4-0.1l0,0c-0.2-0.1,0,0-0.4-0.4
	c-0.4-0.3-1.3-0.4-1.9-0.8c0-0.5,0.5-1-0.1-1.7c-0.2-0.1-2.9,0.1-3.3,0.2c-0.9,0.2-1,0.9-2.2,0.8c-0.7-0.1-0.4,0-0.6-0.4
	c0.2-0.2,0-0.1,0.4-0.2c0.1-0.1,0.2,0,0.3-0.1c1.9-0.3,0.9-1.3,2.2-2.2c1-0.8,0.2,0,0.8-1c0.7-0.1,0.6,0.3,1.2,0
	c0.5-0.2,0.3-0.5,1-0.5c0.6,0.6,0.5,1,1.5,1.4c0.4,0.2,0.6,0.3,0.9,0.6c0.5,0.6,0.1,0.4,0.2,0.9c0,0,0.1,0,0.1-0.1l0,0
	c0.5-0.3-0.3-0.3,0.6-1.1c-0.3-0.2-0.4-0.3-0.6-0.4l0,0c-0.7-0.4-0.4,0-1.3-1.1c-0.2-0.3-0.3-0.3-0.3-0.8c0.6-0.1,0.7,0.3,1.3,0.8
	C1840.9,729.8,1841,729.8,1841.1,729.9L1841.1,729.9L1841.1,729.9L1841.1,729.9z M1854.6,757.2c-0.6,0.3-0.6,0.9-1.1,1.3
	c-0.5,0.4-1.1,0.2-1.2,1c-0.2,1,0.4,0.7-0.3,1.9c-0.2,0.5-0.3,1.6,0.1,2c1.1,1.1,1.7-1.6,1.9-2.5c0.2-0.6,0.4-1.3,0.6-1.8
	C1854.9,758.5,1855.1,758,1854.6,757.2L1854.6,757.2L1854.6,757.2z M1852.8,728.9c0.1,1.2,0.8,1.7,1.3,2.3c-0.1,0.6-0.2,0.4-0.2,1.3
	c0.6,0.4,1.1,0.7,1.9,0.5c0.1-1-0.2-0.9-0.5-1.6c0.1-0.1,0.2-0.2,0.2-0.2c0.2-0.3,0.1,0.1,0.2-0.4c-0.6-0.2-1.6-0.8-1.6-1.6
	c0.3-0.2,0.2-0.1,0.4-0.2c0.5-0.3,0.1,0.2,0.4-0.4c-0.2-0.5-0.5-0.5-1.1-0.3C1853.6,728.3,1852.9,728.8,1852.8,728.9L1852.8,728.9
	L1852.8,728.9L1852.8,728.9z M1847.6,729.3c-0.4-0.5-0.4-0.8-1.1-0.8c-0.3,0.3-0.7,0.8-0.8,1.3c-0.3,0.8-0.1,0.2-0.1,1v0.1
	c0,0.5-0.1-0.1-0.1,0.4c0.6-0.1,0.1-0.1,0.6-0.3c0.4-0.1,1.7-0.5,2.1-0.4c0.9,0.2,1.6,0.9,2.6,0.2c-0.1-0.9-1.1-1.2-1.8-1.6
	c0-0.8,0.3-0.2,0.2-1c-0.3,0-0.4-0.1-0.6,0.1c-0.6,0.3-0.3,0.3-0.3,0.4c0,0.4,0.6-0.1,0,0.4C1848.1,729.2,1847.8,729.2,1847.6,729.3
	L1847.6,729.3L1847.6,729.3L1847.6,729.3z M1832.8,723.1c0,1.4,0.5,0.9,0.9,1.6c-0.2,0.6-0.3,0.1-0.5,0.7c-0.2,0.5,0.1,0.1-0.1,1
	c0.4,0,0.9-0.1,1.4-0.2c0.7-0.1,0.7-0.1,0.9-0.8c-0.4-0.5-0.8-0.9-1.2-1.4c-0.5-0.8,0-0.2-0.2-0.9c-0.1-0.2-0.2-0.4-0.3-0.7
	C1833.2,722.8,1833.3,722.7,1832.8,723.1L1832.8,723.1L1832.8,723.1z"/>
<path class="st18" d="M359.4-414.9l-0.5-1.2L479-529l164.8-3.1l0.5,1.2L525.9-414L359.4-414.9L359.4-414.9z"/>
<path class="st19" d="M426.5-288l-8.1,51.7c-0.1,0.8,2.7,2,4.1,0.3c1.8,2.1,4.1,1.3,4.8-0.2c0.9,1.5,3,2.3,4.5,0.1
	c1.4,1.7,4.4,0.5,4.2-0.9l-8-51C427.8-288.8,426.6-288.6,426.5-288L426.5-288z"/>
<path class="st20" d="M358.9-416.1l119.4-114.5l165.5-1.5L524.4-417.6L358.9-416.1L358.9-416.1z"/>
<path class="st16" d="M502.1-475.1c0.8-0.6,1.9-0.5,2.5,0.3s0.5,1.9-0.3,2.5l-80.4,64.9l5,119.5c0.4,0.9-0.1,1.9-1,2.3
	s-1.9-0.1-2.3-1l-5.4-120.7c-0.3-0.7-0.1-1.5,0.5-2L502.1-475.1L502.1-475.1z"/>
<path class="st21" d="M427.3-296.1c4.4,0,8,3.6,8,8s-3.6,8-8,8s-8-3.6-8-8S422.8-296.1,427.3-296.1z"/>
<path class="st22" d="M433.7-290.1c0,3.3-2.1,6.2-5.1,7.3c-0.8,0.3-1.7,0.5-2.6,0.5h-0.1c-2.6-0.1-4.9-1.4-6.3-3.5
	c0.8,2.8,3.1,5,6,5.6c0.6,0.1,1.1,0.2,1.7,0.2c0.6,0,1.2-0.1,1.8-0.2c3.6-0.8,6.2-4,6.2-7.8c0-2.3-1-4.3-2.5-5.8
	C433.4-292.8,433.7-291.5,433.7-290.1L433.7-290.1z"/>
<g>
	<path class="st23" d="M427.2-1013.8c81.8,0,148.2,66.3,148.2,148.2c0,81.8-66.3,148.2-148.2,148.2c-81.8,0-148.2-66.3-148.2-148.2
		S345.4-1013.8,427.2-1013.8z"/>
	<path class="st24" d="M545.7-954.6c18.6,24.8,29.7,55.6,29.7,89c0,81.8-66.3,148.2-148.2,148.2c-81.8,0-148.2-66.3-148.2-148.2
		c0-12.7,1.6-25.1,4.6-36.9c-1.2,7.4-1.8,15.1-1.8,22.8c0,78.7,63.8,142.6,142.6,142.6c78.7,0,142.6-63.8,142.6-142.6
		C567-907.1,559.2-932.8,545.7-954.6L545.7-954.6z"/>
	<path class="st16" d="M519.8-981.3c27.6,22.1,47.1,53.8,53.4,90c-0.4-0.7-0.9-1.6-1.4-2.9c-2.9,0.9-3,1-6.4,1.6l-0.1,0.2
		c-1.4,1.9,0.1,1.1-2.3,3.1c-2.8,2.4-4.7,5.7-7.9,7.6c-0.4,3.4,0.3,4.1-0.6,8.2c-0.3,1.5-2,5.5-3.9,5.2c-0.6-0.1-3.2-6.6-3.8-8.4
		c-1-3-2.2-5.3-3-8.8c-0.4-1.9-0.7-5.4-1.1-6.7c-2,0.3-1.9,1.6-3.9,0.2c-1.4-1-0.8-1.6-1.5-3.1c-1.6-1.5-3.3-3-4.9-4.6
		c-1.3-0.4-6.2,0.3-8.3,0.1c-3.8-0.3-4.1-0.1-6.3-3.1c-3.9,0.2-3.6,1.7-7.5-1.6c-2.5-2.1-2-5.5-5.7-3.6c-0.1,3.1,1.4,3.8,2.8,5.2
		c1,1.1,2.2,1.9,2.7,3.3c0.1,0,0.3,1.4,0.3,1.6c3.6,0.2,4.4-1.5,6.4-2.9c1.9,1.8,0,2.1,2.8,3.5c2.2,1.1,1.8,0.5,3.2,2.2
		c0.7,2.4-4.9,8.9-6.7,10.1c-1.4,0.9-2.2,0.4-3.5,1.4c-1.9,1.6,0.2,1.4-3.1,2.6c-3.6,1.3-7.1,4-10.8,4.3c-0.8-2.2-1.6-4.4-2.4-6.7
		c-2.4-7.6-2.3-4.7-4.7-8.6c-1.1-1.7-0.7-2.8-1.4-4.3c-0.5-1.1-1.3-1.6-2-3c-1.1-2.2-2.4-5.5-4.9-5.2c-0.5,1.7,2.3,7.5,3,8.9
		s1.8,2,2.2,4c0.5,2.8-0.1,2.4,1.4,4.3c3.2,3.8-0.1,3.2,4.8,6.9c3.7,2.8,2.8,3.6,4.3,7.4c2.4,0.7,9.6-2.5,10.9-1.6
		c1.5,2.6-1.7,6.8-2.5,9.1c-2.7,7.6-7.3,7.5-10.9,13.4c-1.9,3.2-2.8,3.6-4.6,7.4c-2,4.3,4.1,16.2,0.4,21.2c-0.8,1.1-3.4,1.8-6.7,5.3
		c-3.5,3.8,0.1,3.1-1.2,9.4c-1,1.4-2.3,1.5-3.6,2.5c-0.5,1.5-0.1,2.7-0.9,4.5c-0.9,2.2-1,1-2.2,2.8c-0.9,1.4-0.8,2-1.8,3.3
		c-0.9,1.2-1.4,1.5-2.2,2.3c-4.1,3.8-13,3.9-13.8,3.4c-2.1-1.8-0.7-2.2-1.2-4.7c-0.5-2.2-1.7-4.1-2.7-5.8l-0.1-0.2
		c-0.5-0.8-0.9-1.6-1.1-2.4c-1.7-5.4-1.1-9.5-4.1-15c-3.8-7.1,2.1-10.8,1.8-14.7c-0.1-1.1-0.5-1.7-0.6-2.5
		c-0.7-4.4-1.1-8.4-4.1-11.8c-3.2-3.8-2.8-2.4-1.8-8.6c1.3-7.1-1.7-5.3-6-5.5c-2.1-6.5-6.2-3.3-10.2-1.4c-2.6,1.2-3.5-0.3-6.4,0.1
		c-6.5,0.9-1.4,3.6-10-3.2c-3.6-2.8-1.2-1.4-3.3-5c-0.7-1.3-2.9-3-3.9-4.3c-3.3-4.1,0.6-8.2,0-13c-1-8.7-2.4-1.1,2.5-11.7
		c2.6-5.6,6.5-5.7,7.4-8.2c0.9-2.2,0.3-3.8,1.9-5.9c1.4-1.7,3.5-1.3,4.3-4c1.1-3.2-1-3.6-3.4-3.7c-1-3.4-1-2.5-0.2-5.7
		c0.4-1.7,0-2.6,0.4-4.3c0.9-4.4,8.4,0,10.5-1.8c1-1.9,1.1-3.7,0-5.5c-1.2-1.8-2.8-1.6-3.6-3.3c1.8-1.2,0.5-0.2,2-0.5
		c1.8-0.4,1.6-0.9,3.8-1.4c1.9-0.4,3.2-2.2,5.1-3.4c2.7-1.7,1.4-3.3,4.7-3.8c5.3-0.9,1.8-0.8,2.4-5.7c0.8-0.3,1.6-0.6,2.3-1
		c1.7,2.2-0.4,1.3,1.6,2.7c0.5-0.3,1.1-0.6,1.7-0.9c-0.3-2.4-1.4-1.9-2.1-4.8c-2.6,0.4-3.6,2.6-5.6,1.8s-2.1-3.7-2-6.1
		c0.8-1.8,4.6-2.8,6-3.3c2.4-0.8,2-2.4,4.2-4.6c2.8-2.9,0.8,0,2.1-3.6c3.1-0.1,1.7-0.2,3.5-1.2h0.1l0.2-0.1c1.1-0.5,2.5-0.6,3.9-1.1
		c5.2-1.7,7.3-0.9,11.1,0.7c2.9,1.2,11.8,1.3,12.5,5c-2.1,2.2-4.2,0.6-7.3,0.8c0.6,2.9,0.8,2.9,3.4,3.7c0.4-1.4-0.2-0.8,0.5-1.7
		c0.9,0.2,1.7,0.3,2.6,0.5c0.9-2.9,1.9-2.5,4.7-2.8c-0.5-2-1-1.4,0.1-3c3,0.3,0.6,0,2,2.4c2.1-0.3,4.1-2.6,7-2.9
		c1.8-0.2,1.7,0.5,4.3,0.2c2.1-0.2,2-1,4.1-0.1c0.8-1.4,0-1.4,1.9-1.7c2.8-0.5,5.3,1.3,8.1,1.6c-2-2.5-4-2-1.5-6.2
		c3.2-0.6,3.5-0.2,4.8,2.2C519-980.6,519.4-981.1,519.8-981.3L519.8-981.3z M282.5-897.5L282.5-897.5c6.7-30.4,22.7-57.3,44.8-77.5
		c1.7,0.6,4,0.2,5.7,0.1c0.6-1.1,1-2.1,2.1-2.5c0.4-0.2,1-0.2,1.7-0.2c0.1,0.6,0.2,1.1,0.4,1.7c0,0,0.1,0.4,0.1,0.3
		c0-0.1,0.1,0.2,0.1,0.3c3-1.7,0.5-1.8,2.1-4.9c-2.5-0.5-2.2-0.2-3.8-1.8c1.5-1.7,4.5-2.2,6.6-2.1c-0.1,1.5-0.9,1.5-0.3,2.8
		c1.7-1.1,2.9-3.9,5.6-3.4c0.5,0.4,1.1,0.7,1.7,1.1c-1.4,1.3-3.6,1.4-5.4,2.2c-0.8,8.2,2.6,1.3,1.5,7c2-0.2,4-1.6,4.8-3.2
		c-0.8-1-1.8-1-2.5-2.2c0.5-1.5,1.5-2.7,2.9-3.4c1-0.5,2.1-0.7,3.5-0.7c15.1,0.1,7.9,0.8,12.6,2.9c1,0.5,2.9,0.7,3.5,1.6
		c0.9,1.4,0,2.8,1.6,3.9c1.3,1,1.5,0,3.3,2.2c-0.4,1.3-1.3,2.5-3.1,2.6c-2.6,0-1-1.7-3.8-1.4c0,2.6,2.6,3.6,0.2,5
		c-2.1,1.3-0.8-0.5-2.3,0.4c0,0-0.2,0.1-0.2,0.2c-0.1,0.1-0.2,0.2-0.2,0.3c-0.3,0.3-0.5,0.6-0.8,0.8c-3.8-1-3.1-0.6-5.4-3.1
		c-0.9-1-1-1.2-2.5-1.1c-0.9,0-2.2,0.4-3.1-0.4c1.9-2.3,2.8-0.1,5.5-1.4c0.5-0.2,3.5-2.5,3.9-3.1c-0.8-1.8-0.1-0.3-1.3-1.5
		c-2.7-2.7-3.4-2-7-2c-1.7,1.9-3,4.3-4.8,5.4c-1.1,0.6-2.4,0.8-4.2,0c0.8,3.3,2.9,0.8,3.1,4.7c-1.4-0.3-2.1-1-3.5-0.5
		c-3,1.1-0.3,1-0.1,1.6c0,0,1.4,0.2,0,0.7c-1.6,0.6-0.2-0.3-3.3-2.1c0.4-0.8,0.9-1.6,1.3-2.4c-2.5,0.8-5.6,2-8.4,3.4
		c-3.3,1.6-6.4,3.5-8.2,5.2c0,2.8,0.5,1,0.8,4.3c4.4,0.3,3,1.6,7.4,2.9c0.8,0.2,1.9,0.5,3.3,0.7c0,2.1-1.9,3.7-0.6,5.9
		c3.1,2.2,3.2-2.1,3.9-4.7c10.4-2.2,5.4-5.3,8.1-11c0.4-0.9,1-1.8,1.8-2.8c0.8,0,4.1,0.4,4.8,0.5c2.4,0.4,1.1,1,3.7,2.1
		c-0.1,2.1-1.1,4.7,1.9,4.2c2.3-0.4,1.8-2.2,4.6-2.7c1.3,3,0.9,4.3,1.5,7.9c6.8,2.7,3.8,4.8,2.5,9.8c0.9,0.4,1.8,0.8,2.7,1.2
		c0,1.4-0.1,2.9-0.1,4.3c-0.1,0-7.3-1.6-7.8-1.7c1.1-3.1,3.1-3.2,4.4-6.3c-2.6,0.5-2.4,1.3-4.2,1.8c-1.7,0.5-2.9,0.2-4.7,0.4
		c-0.6,2.1,0-1.8,0.1,0.8c0.1,1,0.6,0-0.1,1.1c-2.4-1.1-1.6-3.7-6-1.3c1,0.5,2,0.9,3,1.3c-0.1,2.9-0.4,0.7-1,2.7
		c-1.5,5,4.1,1.9,5.6,1.6c-0.4,2.6-2,2.6-4.3,3.3c-2.5,0.8-3.3,1.8-5.3,2.2c0-3.1-0.5-0.5,0.9-2.7c-2,0.2-3.5,1.1-5.4,1.9l-0.2,0.1
		c-2.4,1-2.8,1.1-3.1,4.3c-2.1,0.6-4.5,1.4-6,2.9c-1.5,1.4-2.9,2.8-4.4,4.2c-0.1,0.1-0.2,0.2-0.3,0.3c0.5,3.9,0,4-2.4,5.5
		c-2,1.3-2.7,1.3-4.5,2.9c-5.9,5.3-3.1,2.8-2.8,12c-1.2-0.4-2.4-0.8-3.6-1.2c-0.9-6.1,0.3-4.1-4.6-5.5c-5.3-1.5-4.6,1.1-6.7,1.5
		c-2.4,0.5-3.6-2.2-7.1,0.1c-1.9,1.3-3.8,2.2-4.3,4.6c-0.6,2.9-1.9,4.9-1.7,8.1c0.3,8.5,8.1,9,10.1,5.1c1.3-2.7,1-4.1,5.3-3.4
		c0.4,2.3-0.2,4-0.8,5.7c-0.4,1-1.4,2.9-0.9,4.3c3.1,1.3,3.2-1.1,7.3,1.3c0.3,4.1-1.8,8.6,1.3,11c2.4,1.8,2.6,0.2,4.7-0.2
		c2.4-0.4,1.9,1.1,4.1,1.4c1.2-1.5,0.7-0.6,1.5-2.4c1.4-3.2,1.8-1.7,5.2-3.7c0.3-0.2,0.6-0.4,0.9-0.6c0.4,0.8,0.8,1.6,1.2,2.3
		c2.5-2.9,2.8-0.1,5.6,0.7c1.2,0.3,2.1,0.5,2.8,0.5c2.1,0,2.3-1,5.1,0c0.3,0.2,0.8,0.3,1.1,0.4c0,0,0.2,0.1,0.2,0.2
		c0.1,0,0.2,0.1,0.2,0.2c0.5,0.5,0.5,1.1,0.9,1.6c1.9,1.9,3.9,3.7,5.8,5.5c3.7,1.5,3.7-1.3,8,2.8c1.8,1.7,1,1.7,2,3.9
		c0.1,0.3,0.4,0.7,0.6,1.1c0.4,1,0.8,2,1.2,3c1.9,2.5,4.6,1,7.3,3.6c1.6,1.5,0.4,1.1,3.8,1.7c5.4,0.9,3.3,0.4,7.4,3.5
		c1.6,1.1,1.9,0.5,3.4,1.5c2,2.8,1.5,5.9-0.2,8.4c-5.3,7.7-3.5,6.4-3.7,12.5c-0.2,3.5-1.2,10.7-4.5,11.6c-11.9,3.3-5,5.7-8.1,11.6
		c-0.9,1.7-1.6,2.1-2.1,3.4c-2.4,5.5-0.7,7.4-7.7,6.2c0.7,1.2,0.2,0.4,0.9,1.4c2.1,3.2,2.4,5.7-1.9,6.5c-3.6,0.7-2,0-2.4,3.9
		c-1.4,0.6-2,0-2.9,0.9c1.2,2.3,0.1,0.4,2.2,1.7c-0.4,1.3-0.7,2.5-1,3.7c-0.8,3-1,0.2-1.3,3.7c1.2,0.6,2.1,0.5,3.2,1.9
		c-0.1,1.1-1.3,4.3-1.6,6c1.8,2.6,3.2,5.4,6.9,5.7c0,2.2,0.5,2-1.4,2.4c-1.6,0.4-5-1.1-6.5-1.9c-2.5-1.3-4.7-3.1-6.4-5.6
		c-0.9-1.4-0.6-0.7-1.6-2.1c-1.8-2.3-1.1-3.4-1.6-4.9c-0.3-0.9-1.8-1.9-1.1-4.9c0.1-0.8,1.5-4.8-0.1-4.1c-1.6,0.6,1.2,0.4-1,1.4
		c-0.5-1.4-0.9-3.6-1.2-5.4c-0.6-3-1.3-3.1-1.6-4.9c-0.7-4.2,1.1-4.7-0.9-11.7c-1.3-4.7-0.8-15.7-2.2-21.3c-0.2-0.9-0.5-1.7-0.8-2.2
		c-1.3-2.1-4.4-3.1-6.9-4.8c-0.1,0-0.2-0.1-0.3-0.2c-3.5-2.4-6.7-12-9.5-15.5c-1.3-1.7-2.1-1-2.7-3.6c-0.6-2.5,0.3-2.1,1.1-4.1
		c-4.2-7.7,5.5-7.6,3.5-16.9c-0.4-1.7-1.7-4.1-2.7-4.9c-2,0.9-1,1.4-2.1,3c-1.6-0.9-3.2-1.8-4.8-2.7c-4.9-4.7-2.3-1.3-3.7-4.4
		c-2.9-6.5-5.7-2.8-9.3-6c-1.6-1.3-1.9-3.4-4.5-3c-3.9,0.5-1.8,1.1-5.8-0.8c-3.5-1.6-7.1-3.5-9.5-5.7c-0.1-3.4,1.1-3.6-1-6.8
		C283.3-896.5,282.9-897,282.5-897.5L282.5-897.5L282.5-897.5z M328.9-976.5L328.9-976.5c0.9-0.1,0.9-0.5,3.3-1.1
		c-0.2-0.8-0.3-0.8-0.5-1.1l-0.1-0.1C330.7-978.1,329.8-977.3,328.9-976.5L328.9-976.5z M455.7-932.4L455.7-932.4L455.7-932.4
		c-0.4-0.3-0.8-0.5-1-0.8c-2.1-1.9-2.5-3.5-4.8-3.1c-0.1,1.8,0.2,1.8,1,3c3.2,4,2.2,2.7,4.7,4.1l0.1,0.1c0.6,0.3,1.3,0.8,2.2,1.5
		c-3.2,2.8-0.2,3.1-2.2,4.1h-0.1c-0.2,0.1-0.4,0.2-0.5,0.2c-0.7-1.7,0.8-0.9-0.9-3.3c-1-1.3-1.9-1.6-3.3-2.3
		c-3.7-1.7-3.2-3.1-5.5-5.4c-2.6,0.1-2,0.9-3.8,1.8c-2.2,1.1-1.8-0.2-4.4,0c-2.1,3.7,0.9,0.6-2.9,3.6c-4.6,3.5-0.8,7.2-8.1,8.3
		c-0.5,0.1-0.7,0-1.2,0.2c-1.4,0.5-0.6,0.1-1.4,0.9c0.6,1.4-0.2,1.2,2.2,1.6c4.5,0.6,5.1-2.2,8.4-2.9c1.6-0.3,11.7-0.8,12.4-0.6
		c2.2,2.4,0.4,4.1,0.4,6.2c2.4,1.3,5.7,1.6,7.1,2.8c1.6,1.5,0.8,1.3,1.6,1.5h0.1c0.3,0.1,0.7,0.2,1.4,0.5c1.9,0.6,1.8,1,3.8,1.2
		c1.9-6.2,0-5.5,8.9-2.7c9.3,3,5.1,0.3,9.1,0.7c1.9,0.2,1.4,0.8,4.1,0.5c0.5-1.1,4.4-10.7-0.6-9.5c-1.5,0.4-0.5,0.9-2.6,0.4
		c-2.2-0.6-0.1-1-2.5-0.6c-2.4,0.3-5.2,2.4-7.1-4.7c-0.7-2.6-2-4.8-4.9-0.9c0.8,1.3,1.3,1.4,2.1,2.7c-0.2,0.4-1,1.3-1.3,1.6
		c-1.6,1.6,0.7,0.8-1.9,1.2c-1.4-1.1-1.1-2.4-2.5-4.3c-2.4-3.5-0.9-1.9-2.1-5.3C458.7-931,457.1-931.6,455.7-932.4z M506.4-830.2
		L506.4-830.2c-2.1,1.1-2.4,3.5-3.9,4.9c-1.7,1.6-4,0.8-4.7,3.7c-0.9,3.6,1.4,2.5-1.1,7.2c-0.9,1.7-0.9,6.1,0.4,7.4
		c4.1,4,6.4-6.1,7.3-9.2c0.7-2.2,1.4-4.8,2.1-6.9C507.4-825.3,508.5-827.3,506.4-830.2L506.4-830.2L506.4-830.2z M499.6-936.1
		L499.6-936.1c0.3,4.6,3.1,6.4,5,8.5c-0.2,2.2-0.8,1.6-0.7,4.7c2.3,1.7,4,2.7,7.1,1.9c0.4-3.7-0.8-3.5-1.9-6.1
		c0.2-0.3,0.7-0.7,0.8-0.8c0.9-1.1,0.4,0.5,0.9-1.5c-2.2-0.7-5.8-3-6.1-6c1.1-0.9,0.8-0.3,1.6-0.9c1.8-1.1,0.4,0.6,1.5-1.3
		c-0.9-1.7-1.9-2.1-4.1-1.2C502.6-938.4,500.1-936.6,499.6-936.1z M480.2-934.9L480.2-934.9c-1.5-2.1-1.4-3.1-4.2-3.2
		c-1.1,1.2-2.5,3-3.1,4.9c-0.9,2.8-0.3,0.9-0.2,3.9c0,0.1,0,0.3,0,0.4c0,1.8-0.5-0.3-0.2,1.3c2.2-0.5,0.5-0.4,2.2-1
		c1.6-0.5,6.4-2,7.7-1.6c3.3,0.8,6,3.3,9.7,0.8c-0.2-3.3-4.2-4.6-6.9-6c0.1-3,0.9-0.6,0.8-3.6c-0.9,0-1.5-0.2-2.4,0.2
		c-2.1,0.9-1,1.2-1,1.6c0.1,1.6,2.1-0.3,0,1.7C481.9-935,480.9-935,480.2-934.9L480.2-934.9L480.2-934.9z M424.8-958L424.8-958
		c-0.1,5.3,1.8,3.5,3.5,6.2c-0.8,2.2-0.9,0.5-1.8,2.8c-0.8,1.9,0.2,0.2-0.3,3.6c1.4,0.1,3.4-0.4,5.2-0.6c2.6-0.2,2.5-0.5,3.4-3.1
		c-1.4-1.7-2.8-3.5-4.3-5.2c-1.9-2.8,0-0.9-0.6-3.2c-0.4-0.8-0.8-1.7-1.2-2.5C426.2-959.2,426.4-959.4,424.8-958L424.8-958z"/>
	<path class="st25" d="M526.5-1032.9l2.5,59.5c-56,57-156.9,50.9-203.6,1.8l-0.2-58.1l96.7,40.3L526.5-1032.9L526.5-1032.9
		L526.5-1032.9z"/>
	<path class="st20" d="M254.3-1043.6l167.5-58.5l167.5,58.5l-167.5,58.5L254.3-1043.6z"/>
	<path class="st26" d="M423.7-1059.4l-112.5,30.5c-1.1,0.2-1.7,0.8-1.6,2l-0.6,50.1c3.6,1.4,6.3,5.1,6.3,9.5
		c0,5.6-4.2,10.1-9.4,10.1s-9.5-4.5-9.5-10.1c0-4.1,2.3-7.6,5.6-9.2l0.6-54.9c-0.1-1.7,0.6-3,2.7-3.7l114.2-30.5
		C423.5-1066.8,427.7-1062.2,423.7-1059.4L423.7-1059.4L423.7-1059.4z M308.9-970.6L308.9-970.6L308.9-970.6L308.9-970.6
		L308.9-970.6L308.9-970.6L308.9-970.6L308.9-970.6L308.9-970.6L308.9-970.6L308.9-970.6L308.9-970.6L308.9-970.6L308.9-970.6
		L308.9-970.6L308.9-970.6L308.9-970.6L308.9-970.6L308.9-970.6L308.9-970.6L308.9-970.6L308.9-970.6L308.9-970.6L308.9-970.6
		L308.9-970.6l-0.2-0.1l0,0l0,0l0,0l0,0l0,0l0,0l0,0l0,0l0,0l0,0l0,0l0,0l0,0l0,0l0,0l0,0l0,0l0,0l0,0h-0.1l0,0l0,0h-0.1l0,0l0,0
		h-0.1l0,0l0,0h-0.1l0,0l0,0h-0.1l0,0l0,0h-0.1l0,0l0,0H308l0,0l0,0h-0.1l0,0l0,0h-0.1l0,0l0,0h-0.1l0,0h-0.1h-0.1l0,0h-0.1h-0.1
		l0,0h-0.1h-0.1l0,0H307h-0.1l0,0h-0.1h-0.1l0,0h-0.1h-0.1l0,0h-0.1h-0.1l0,0h-0.1h-0.4h-0.1l0,0h-0.1h-0.1l0,0h-0.1l0,0h-0.1l0,0
		l0,0h-0.1l0,0h-0.1l0,0H305h-0.1l0,0h-0.1l0,0h-0.1l0,0l0,0h-0.1l0,0h-0.1l0,0h-0.1l0,0l0,0h-0.1h-0.1l0,0h-0.1l0,0l0,0H304l0,0
		h-0.1l0,0l0,0h-0.1l0,0h-0.1l0,0h-0.1l0,0l0,0h-0.1l0,0h-0.1l0,0l0,0l0,0l0,0h-0.1l0,0h-0.1l0,0l0,0h-0.1l0,0l-0.1,0.1l0,0l0,0l0,0
		l0,0l-0.1,0.1l0,0l-0.1,0.1l0,0l0,0l0,0l0,0l-0.1,0.1l0,0v0.1l0,0l0,0v0.1l0,0l-0.1,0.1l0,0v0.1l0,0l0,0v0.1l0,0v0.1v0.1l0,0l0,0
		v0.1l0,0v0.1v0.1v0.1l0,0v0.1l0,0v0.1l0,0l0,0v0.1l0,0v0.1l0,0l0,0c-0.3,0.6-0.4,1.3-0.4,2c0,2.6,2,4.7,4.4,4.7s4.4-2.1,4.4-4.7
		C310.2-968.6,309.7-969.8,308.9-970.6L308.9-970.6z"/>
	<path class="st27" d="M304.7-962.8l-12.8,81.7c-0.2,1.3,4.3,3.1,6.4,0.5c2.8,3.4,6.5,2,7.7-0.3c1.4,2.3,4.7,3.6,7.2,0.1
		c2.1,2.7,6.9,0.8,6.6-1.4l-12.7-80.6C306.8-964.1,304.9-963.8,304.7-962.8L304.7-962.8z"/>
</g>
<rect x="1957.8" y="-742.5" class="st28" width="172" height="172"/>
<rect x="1750.8" y="-742.5" class="st29" width="172" height="172"/>
<rect x="1543.7" y="-742.4" class="st30" width="172" height="172"/>
<rect x="1336.7" y="-742.4" class="st31" width="172" height="172"/>
<rect x="1117.7" y="-742.5" class="st32" width="172" height="172"/>
<g>
	<circle class="st32" cx="2628.8" cy="-464.7" r="4"/>
	<circle class="st32" cx="2611.3" cy="-464.7" r="4"/>
	<circle class="st32" cx="2593.8" cy="-464.7" r="4"/>
</g>
<g>
	<path class="st12" d="M2546.8-205.7c0,0,12,0,15,11s-3,30-15,30h-0.2c-12,0-18-19-15-30s15-11,15-11H2546.8z"/>
	<path class="st12" d="M2540-165.7c0,0,2,9-4,10s-19,5-20,10s-1,13-1,13"/>
	<path class="st12" d="M2552.3-165.7c0,0-2,9,4,10s19,5,20,10s1,13,1,13"/>
</g>
<g>
	<path class="st12" d="M2546.8-205.7c0,0,12,0,15,11s-3,30-15,30h-0.2c-12,0-18-19-15-30s15-11,15-11H2546.8z"/>
	<path class="st12" d="M2540-165.7c0,0,2,9-4,10s-19,5-20,10s-1,13-1,13"/>
	<path class="st12" d="M2552.3-165.7c0,0-2,9,4,10s19,5,20,10s1,13,1,13"/>
</g>
<path class="st33" d="M916.5-302.7c-15.6-42.9,6.4-90.3,49.3-106c5.2-1.9,10.4-3.2,15.7-4"/>
<g>
	<path class="st32" d="M1046.1-415.9c-0.7-0.9-2.2-1.2-5.7-1.5l-12-0.8l-13.1-16c-0.3-0.4-0.8-0.7-1.1-0.7l-4.3-0.3
		c-0.3,0-0.4,0.4-0.1,0.9l7.9,15.3l-16.2-1.1l-6.5-10.2c-0.2-0.3-0.6-0.6-0.9-0.6l-3.3-0.2c-0.3,0-0.5,0.3-0.4,0.7l2.3,9.8l-1.9-0.1
		c-1.6-0.1-1.9,2.5-0.6,3.7c1.4,1.2,13.6,7.1,15.3,7.2l33.9,2.4c4.8,0.3,9.6-1.5,9.7-4.1C1049.4-413,1046.8-414.9,1046.1-415.9z"/>
</g>
<g>
	<path class="st34" d="M1052.1-331.8l0.1,21.6c-20.6,20.9-54.7,22.8-77.8,10.6c-5-2.6-9.5-5.9-13.2-9.8l-0.1-21.3l43.2,13.3
		L1052.1-331.8L1052.1-331.8L1052.1-331.8z"/>
	<path class="st35" d="M929.5-341.6l74.8-26.1l74.8,26.1l-74.8,23.9L929.5-341.6z"/>
	<path class="st9" d="M1005.2-348.7l-50.3,13.6c-0.5,0.1-0.8,0.4-0.7,0.9l-0.3,22.4c1.6,0.6,2.8,2.3,2.8,4.3c0,2.5-1.9,4.5-4.2,4.5
		s-4.2-2-4.2-4.5c0-1.8,1-3.4,2.5-4.1l0.3-24.5c0-0.8,0.3-1.4,1.2-1.6l51-13.6C1005-352,1006.9-349.9,1005.2-348.7L1005.2-348.7
		L1005.2-348.7z M953.9-309L953.9-309L953.9-309L953.9-309L953.9-309L953.9-309L953.9-309L953.9-309L953.9-309L953.9-309l-0.1-0.1
		l0,0l0,0l0,0l0,0l0,0l0,0l0,0l0,0l0,0l0,0l0,0l0,0l0,0l0,0l0,0l0,0l0,0l0,0l0,0l0,0l0,0l0,0l0,0l0,0l0,0l0,0l0,0l0,0l0,0l0,0l0,0
		l0,0l0,0l0,0l0,0l0,0l0,0l0,0l0,0l0,0l0,0l0,0l0,0l0,0l0,0l0,0l0,0l0,0l0,0l0,0l0,0l0,0l0,0l0,0l0,0l0,0l0,0l0,0l0,0l0,0l0,0l0,0
		l0,0l0,0l0,0l0,0l0,0l0,0l0,0l0,0l0,0l0,0l0,0l0,0l0,0l0,0l0,0l0,0l0,0l0,0l0,0l0,0l0,0l0,0l0,0l0,0l0,0l0,0l0,0l0,0l0,0l0,0l0,0
		l0,0l0,0l0,0l0,0l0,0l0,0l0,0l0,0l0,0l0,0l0,0l0,0l0,0l0,0l0,0l0,0l0,0l0,0l0,0l0,0l0,0l0,0l0,0l0,0l0,0l0,0l0,0l0,0l0,0l0,0l0,0
		l0,0l0,0l0,0l0,0l0,0l0,0l0,0l0,0l0,0l0,0l0,0l0,0l0,0l0,0l0,0l0,0l0,0l0,0l0,0l0,0l0,0l0,0l0,0l0,0l0,0l0,0l0,0l0,0l0,0l0,0l0,0
		l0,0l0,0l0,0l0,0l0,0l0,0l0,0l0,0l0,0l0,0l0,0l0,0l0,0l0,0l0,0l0,0l0,0l0,0l0,0l0,0l0,0l0,0l0,0l0,0l0,0l0,0l0,0l0,0l0,0l0,0l0,0
		l0,0l0,0l0,0l0,0l0,0l0,0l0,0c-0.1,0.3-0.2,0.6-0.2,0.9c0,1.2,0.9,2.1,2,2.1s2-0.9,2-2.1C954.4-308.1,954.2-308.6,953.9-309
		L953.9-309z"/>
	<path class="st11" d="M952-310.5l-5.7,36.5c-0.1,0.6,1.9,1.4,2.9,0.2c1.3,1.5,2.9,0.9,3.4-0.2c0.6,1,2.1,1.6,3.2,0.1
		c1,1.2,3.1,0.4,2.9-0.6l-5.7-36C952.9-311.1,952.1-311,952-310.5L952-310.5z"/>
	<circle class="st9" cx="952.8" cy="-307.7" r="4"/>
</g>
<path class="st9" d="M1477.5,403.5c0,0,6,0,7.5,5.5s-1.5,15-7.5,15h-0.1c-6,0-9-9.5-7.5-15s7.5-5.5,7.5-5.5H1477.5z"/>
<path class="st9" d="M1473,420.8l-5.4,5.9l-3.3,26.1l8.3,4c0,0,9.6-27.1,7.2-29.1c-2.4-2-5.5-2-5.5-2l3-4L1473,420.8z"/>
<path class="st9" d="M1465.4,451.8h8.6c0.2,0,0.4,0,0.6,0.1l20.8,9.5c0.5,0.2,0.9,0.8,0.8,1.4l-0.7,4.6c-0.1,0.8-0.8,1.3-1.6,1.1
	l-26.4-4.7c-0.1,0-0.3-0.1-0.4-0.1c-0.9-0.5-4.2-2.9-3-10.7C1464.2,452.3,1464.8,451.8,1465.4,451.8z"/>
<path class="st9" d="M1493.8,462.2c0.6-0.6,1.5-0.7,2.2-0.2c1.2,0.8,2.8,2.4,2.8,4.3c0,2.7-15.2,21.3-18.4,25.3
	c-0.5,0.6-1.3,0.8-2,0.4c-0.7-0.3-1.2-1.1-0.6-2.7C1480.4,482.1,1488.8,467.4,1493.8,462.2z"/>
<g>
	<g>
		<path class="st32" d="M1911.8-379.4c-1.1-2.9-2.4-5.7-3.8-8.4c-2.8-5.1-6.3-9.7-10.3-13.7c-0.1-0.1-0.2-0.2-0.3-0.3l0,0
			c-0.1-0.1-0.2-0.2-0.3-0.3l0,0c-0.3-0.3-0.7-0.7-1.1-1c-10.9-10.1-25.6-16.3-41.7-16.3c-9.3,0-18.2,2.1-26.1,5.8
			c-0.5,0.3-1.1,0.5-1.6,0.8c-5.8,2.9-11.1,6.8-15.6,11.4c-6.7,6.7-11.8,14.8-14.8,24c-0.2,0.5-0.3,0.9-0.4,1.4v0.1
			c-0.1,0.3-0.2,0.6-0.3,1c-0.2,0.8-0.4,1.5-0.6,2.3c-0.1,0.3-0.1,0.5-0.2,0.8c-1,4.4-1.6,9.1-1.6,13.8c0,16.9,6.9,32.3,18,43.4
			c6.2,6.2,13.8,11.1,22.3,14.3c0.3,0.1,0.5,0.2,0.8,0.3c1.6,0.6,3.3,1.1,4.9,1.5c0.3,0.1,0.6,0.1,0.9,0.2c4.6,1.1,9.5,1.7,14.4,1.7
			c16.9,0,32.3-6.9,43.4-18c2-2,3.9-4.2,5.6-6.5c7.7-10.3,12.3-23,12.3-36.9C1915.6-365.5,1914.2-372.7,1911.8-379.4z M1815.6-319.4
			c-9.9-9.9-16-23.5-16-38.6c0-2.8,0.2-5.5,0.6-8.2c1.9,1.3,5.3,3.1,5.3,3.1c0.1,0,0.3,0.1,0.5,0.1c0.3,0,0.6,0,0.9-0.1
			c0.4-0.1,0.7-0.1,1-0.1c0.1,0,0.2,0,0.2,0c0.1,0.1,0.3,0.5,0.4,0.8c0.2,0.5,0.5,1.1,0.9,1.3c0.4,0.2,1.4,0.3,2.8,0.5
			c0.5,0.1,0.9,0.1,1.2,0.1c0.1,0.2,0.2,0.6,0.3,0.9c0.2,0.8,0.4,1.6,1,2c0.5,0.3,2.2,1.9,3.1,2.8c0.1,0.1,0.3,0.2,0.4,0.2
			c0.1,0,0.2,0,0.3-0.1c0.1,0,1.7-1,2.2-1.3c0.1,0,0.3,0.2,0.5,0.3c0,0.9,0.1,3.8,0.1,4.4c-0.1,0.4-1.3,1.6-2.7,2.8
			c-0.1,0.1-0.2,0.3-0.2,0.4c0,0.2-0.2,4,0,5.6s2.7,4.6,3.4,5.4c0.3,0.8,1.1,2.9,1.4,3.4c0.3,0.5,3.4,2.8,5.4,4.3v9.2
			c0,1,0.4,1.7,0.7,2.2c0.2,0.3,0.3,0.6,0.3,0.8v6.4c0,0.8,0.2,1.5,0.6,2.1C1825-311.5,1820-315.1,1815.6-319.4z M1901.6-380.6
			c-1.1-0.8-2.7-1.1-2.7-1.1l-1.2-0.2c-0.6-1.2-0.3-4-2.4-3.4c-2.1,0.6-9.2,1.8-10.7,2.1c-1.5,0.3-3.4,2.7-4.6,4.6
			c-1.2,1.8-4.6,7.6-5.2,8.5c-0.6,0.9-0.9,6.7-0.9,8.2s6.7,7.9,8.9,8.2c2.1,0.3,7.9-1.2,9.5-1.5c1.5-0.3,2.4,1.8,3.7,1.8
			s2.7,0.6,1.5,2.4s-1.2,2.7,0,4c1.2,1.2,3.7,5.8,2.1,9.5c-1.5,3.7-0.3,5.5,0.6,7c0.2,0.3,0.4,0.7,0.6,1.2c-2.2,3.5-4.8,6.8-7.7,9.7
			c-9.9,9.9-23.5,16-38.6,16c-5,0-9.9-0.7-14.6-2c0-0.1,0-0.2,0.1-0.2c0.1-0.6-0.2-1-0.4-1.3c0.3-0.2,0.6-0.4,0.8-0.8
			c0.3-0.5,0.3-1.2,0.3-1.7h0.3c0.7,0,1.6-0.1,2.3-0.5c1.1-0.8,1.1-2.4,0.9-3.5c0.1,0,0.2,0.1,0.2,0.1c0.1,0,0.2,0,0.3,0
			c1,0,2.1-1.8,2.3-2.9c0.1-0.4,0.5-1.4,0.9-2.3c0.9-2.2,1.5-3.5,1.4-4.2c0-0.4,1.7-1.8,3.2-2.1c1.8-0.4,2.4-1,3.1-3.2
			c0.6-2.1,0.9-5.5,0.8-7c0-0.5,1-1.9,1.7-2.9c1.1-1.6,1.8-2.6,1.8-3.4c0-1.8-1.6-3.1-2.7-3.9c-1.2-0.8-3.2-1-4.5-1.1
			c-0.4,0-0.7-0.1-0.9-0.1c-0.1,0-0.4-0.3-0.6-0.5c-0.4-0.5-1-1.1-1.9-1.2c-0.1,0-0.2,0-0.3,0c-0.6,0-1.1,0.2-1.6,0.4
			c-0.5,0.2-0.9,0.3-1.3,0.3c-0.1,0-0.3,0-0.4,0c-0.2,0-0.3-0.1-0.3-0.1c0-0.1,0.2-0.4,0.7-0.8c0.5-0.3,0.9-1,0.4-2.5
			c-0.4-1.1-1-2.2-1.3-2.6c-1-1.4-2.7-1.4-3.3-1.4c-0.5,0-1,0.1-1.6,0.1h-0.1c-0.5,0-0.8-0.5-1.4-1.5c-0.3-0.6-0.7-1.2-1.3-1.8
			c-1.2-1.4-2.8-1.6-4.2-1.6c-0.2,0-0.4,0-0.6,0c-0.2,0-0.3,0-0.4,0c-0.2,0-0.4,0-0.5,0c-0.5-0.1-1.3-0.5-2-0.8
			c-0.8-0.4-1.5-0.8-2.1-0.9h-0.2c-0.9,0-1.9,1-3.3,2.6c-0.3,0.4-0.8,0.9-1,1.1c0-0.1-0.1-0.1-0.2-0.2c-0.3-0.3-0.6-0.8-1.2-1
			c-0.1,0-0.3-0.1-0.4-0.1c-0.5,0-0.8,0.3-1.2,0.5c-0.3,0.2-0.5,0.4-0.8,0.4c-0.2,0-0.4-0.1-0.6-0.2c-0.8-0.5-0.6-2.2-0.3-3.6
			c0.1-0.7,0.2-1.3,0.2-1.8c0-1.2-0.7-1.3-1-1.3s-0.6,0.1-0.9,0.2c-0.4,0.1-0.8,0.3-1.2,0.3c-0.2,0-0.4,0-0.6-0.1
			c-0.3-0.1-0.5-0.2-0.5-0.3c-0.1-0.2,0.4-0.9,0.7-1.4c0.2-0.2,0.3-0.5,0.5-0.7c0.6-1.1,1-1.8,0.6-2.4c-0.2-0.4-0.6-0.5-1.1-0.5
			c-0.2,0-0.5,0-0.7,0.1c-0.2,0-0.4,0.1-0.6,0.1c-0.3,0-0.5,0-0.6-0.1c-0.2,0-0.3-0.1-0.4-0.1c-0.8,0-0.9,0.8-1,1.2
			c-0.2,1.3-0.9,1.9-2.3,1.9c-0.1,0-0.2,0-0.3,0c-1.4-0.1-2-1.1-2-3.4c0-1,0.2-1.2,0.6-2c0.2-0.4,0.5-0.8,0.8-1.5
			c0.8-1.5,1.4-1.8,2.1-2.1c0.2-0.1,0.5-0.2,0.7-0.4c0.2-0.1,0.3-0.2,0.4-0.2c0.1,0,0.2,0,0.3,0.1c0.2,0.1,0.5,0.2,0.8,0.2
			c0.1,0,0.2,0,0.3,0c1.1-0.2,1.4-0.9,1.6-1.4c0-0.1,0-0.1,0.1-0.2c0.1,0,0.1,0,0.2,0c0.5,0.1,1.3,0.4,2.6,0.4c0.4,0,0.8,0,1,0
			c-0.2,0.8-0.2,2.4,1.5,4.3c0.5,0.6,1,0.9,1.5,0.9c1.6,0,1.7-2.6,1.7-5.6c0-1.8,0.7-2.3,2.7-3.7l0.1-0.1c1.1-0.8,1.7-1.7,2.3-2.6
			c0.7-0.9,1.3-1.8,2.5-2.6c1.1-0.7,2.9-1.5,4.5-2.2c1.9-0.9,3.8-1.7,4.6-2.4c1-0.8,0.8-2,0.6-3c-0.2-1.3-0.1-1.6,0.4-1.7
			c0.9-0.2,1.8-0.4,2.7-0.5c1.4-0.2,2.8-0.4,4.3-1s1.9-1.4,1.9-2c0.1-1-0.8-1.8-1.6-2.2c-0.3-0.2-0.4-1-0.4-1.7
			c0-0.9-0.1-1.9-0.7-2.4c-0.3-0.3-0.8-0.5-1.3-0.5c-0.6,0-1.3,0.3-2.1,0.6c-0.5,0.2-1.1,0.5-1.8,0.6c-0.1,0-0.1,0-0.2,0
			c-0.2,0-0.4-0.5-0.6-1.2c-0.3-1-0.8-2.6-2.5-2.6c-0.2,0-0.4,0-0.6,0.1c-2.2,0.4-2.7,2.7-3,4.4c-0.1,0.6-0.3,1.5-0.5,1.6
			c-1.3,0-1.7,0.8-2.1,1.6c-0.3,0.5-0.5,1.1-1.1,1.6c-0.3,0.3-0.6,0.4-0.6,0.4c-0.1-0.1-0.3-0.8,0.4-2.2c0.3-0.6,0.6-1.4,0.2-2
			c-0.5-0.8-1.5-0.8-2.8-0.9c-0.5,0-1,0-1.5-0.1c-1-0.1-1.3-0.4-1.3-0.4s0-0.2,0.3-0.5c8.2-4.9,17.7-7.6,27.9-7.6
			c12.4,0,23.7,4.1,32.9,11c-0.1,0.6-0.6,1.4-1,2.1c-0.6,1.1-0.3,1.7-0.3,1.7s2.9-0.5,3.5-0.8c0.2-0.1,0.4-0.4,0.6-0.8
			c0.3,0.3,0.6,0.5,0.9,0.8c-0.7,0.7-1.5,1.3-1.8,1.5c-0.5,0.3-2,0.8-2.6,1.1c-0.6,0.3,1.8,1.4,1.8,1.8c0,0.5,0,2.6-0.9,2.7
			c-0.9,0.2-5.2,0.2-5.2,0.2s-1.4,4.9-1.1,5.3c0.3,0.5,2.3,1.5,3.5,1.4c1.2-0.2,4-1.5,4-1.5l1.2-2.7l2.4-2.6c0,0,1.8,0.8,2.4,0.2
			c0.6-0.6,1.8-1.2,1.8-1.2s1.2,2.3,2,2.6l0.1,0.1l0,0c0.9,1.2,1.7,2.5,2.5,3.8l0,0l0,0l0,0c0,0.1,0.1,0.2,0.1,0.2
			c1.3,2.1,2.4,4.3,3.3,6.6C1903.6-379.3,1902.5-380,1901.6-380.6z"/>
	</g>
	<path class="st33" d="M1806.9-381.7c0,0,2.2-46.3,37.7-50.6c35.5-4.3,48.7,29.1,48.7,29.1"/>
	<path class="st9" d="M1820.7-427c-6.2-10.2-21.1-10.3-27.2,0.1c-3.1,5.4-2.6,10.5,0,15.7c2.3,4.5,4.4,9.1,6.7,13.7l5,10.3
		c0.4,0.8,1.2,2.4,1.6,3.3h0.7c0.2-1.1,12.9-26.5,13.3-27.3C1823.4-416.5,1823.9-421.7,1820.7-427z M1807-412.3
		c-3.2,0-5.9-2.6-5.9-5.9c0-3.2,2.6-5.9,5.9-5.9c3.2,0,5.9,2.6,5.9,5.9C1812.8-415,1810.2-412.3,1807-412.3z"/>
	<g>
		<path class="st11" d="M1904.5-424.4c-3.6-6-12.5-6.1-16,0.1c-1.8,3.2-1.6,6.2,0,9.3c1.3,2.7,2.6,5.4,4,8.1l3,6.1
			c0.2,0.5,0.7,1.4,0.9,2h0.4c0.1-0.6,7.6-15.6,7.9-16.1C1906.1-418.2,1906.4-421.3,1904.5-424.4z M1896.3-416.4
			c-1.8,0-3.3-1.5-3.3-3.3s1.5-3.3,3.3-3.3s3.3,1.5,3.3,3.3S1898.1-416.4,1896.3-416.4z"/>
		<polygon class="st11" points="1896.7,-399 1896.7,-399 1896.7,-399 		"/>
	</g>
</g>
<g>
	<g>
		<path class="st34" d="M1298-310.9l60-38.1c7.2-2.3,12.7,12.1,8.2,14.6l-58.3,38.3c-3.3,2.2-8.2-2.8-9.8-8.5
			C1297.2-307.5,1298-310.9,1298-310.9z"/>
	</g>
	<path class="st9" d="M1337.2-337.7c5.7-0.4,12.3,12.9,10.4,17.4l-8.6,5.5c0.4-6.5-5.9-16.4-11.7-16.4L1337.2-337.7L1337.2-337.7z"
		/>
	<path class="st9" d="M1360.1-314.5l-13-6.2l-8.4,6l12,9.2l0.3-8L1360.1-314.5L1360.1-314.5z"/>
	<path class="st33" d="M1218.5-321.6c-15.6-42.9,6.4-90.3,49.3-106c5.2-1.9,10.4-3.2,15.7-4"/>
	<g>
		<path class="st32" d="M1344.1-434.8c-0.7-0.9-2.2-1.2-5.7-1.5l-12-0.8l-13.1-16c-0.3-0.4-0.8-0.7-1.1-0.7l-4.3-0.3
			c-0.3,0-0.4,0.4-0.1,0.9l7.9,15.3l-16.2-1.1l-6.5-10.2c-0.2-0.3-0.6-0.6-0.9-0.6l-3.3-0.2c-0.3,0-0.5,0.3-0.4,0.7l2.3,9.8
			l-1.9-0.1c-1.6-0.1-1.9,2.5-0.6,3.7c1.4,1.2,13.6,7.1,15.3,7.2l33.9,2.4c4.8,0.3,9.6-1.5,9.7-4.1
			C1347.4-431.9,1344.8-433.8,1344.1-434.8z"/>
	</g>
	<g>
		<path class="st35" d="M1299.4-360.9l4.9,21c-15.5,24.9-48.4,34.2-73.6,27.4c-5.4-1.5-10.5-3.7-15-6.7l-4.8-20.8l45,3.6
			L1299.4-360.9L1299.4-360.9L1299.4-360.9z"/>
		<path class="st35" d="M1177.7-343.6l67.3-41.9l78.7,9.1l-67.8,39.7L1177.7-343.6z"/>
		<path class="st9" d="M1250-367l-46.1,24.3c-0.5,0.2-0.7,0.5-0.5,1l4.6,21.9c1.7,0.3,3.2,1.6,3.7,3.5c0.5,2.4-0.9,4.8-3.1,5.3
			c-2.3,0.5-4.6-1.1-5.1-3.5c-0.4-1.8,0.2-3.5,1.5-4.6l-5.1-24c-0.2-0.7,0-1.4,0.8-1.9l46.8-24.4
			C1249.1-370.3,1251.5-368.7,1250-367L1250-367L1250-367z M1208.6-317.1L1208.6-317.1L1208.6-317.1L1208.6-317.1L1208.6-317.1
			L1208.6-317.1L1208.6-317.1L1208.6-317.1L1208.6-317.1l-0.1-0.1l0,0l0,0l0,0l0,0l0,0l0,0l0,0l0,0l0,0l0,0l0,0l0,0l0,0l0,0l0,0l0,0
			l0,0l0,0l0,0l0,0l0,0l0,0l0,0l0,0l0,0l0,0l0,0l0,0l0,0l0,0l0,0l0,0l0,0l0,0l0,0l0,0l0,0l0,0l0,0l0,0l0,0l0,0l0,0l0,0l0,0l0,0l0,0
			l0,0l0,0l0,0l0,0l0,0l0,0l0,0l0,0l0,0l0,0l0,0l0,0l0,0l0,0l0,0l0,0l0,0l0,0l0,0l0,0l0,0l0,0l0,0l0,0l0,0l0,0l0,0l0,0l0,0l0,0l0,0
			l0,0l0,0l0,0l0,0l0,0l0,0l0,0l0,0l0,0l0,0l0,0l0,0l0,0l0,0l0,0l0,0l0,0l0,0l0,0l0,0l0,0l0,0l0,0l0,0l0,0l0,0l0,0l0,0l0,0l0,0l0,0
			l0,0l0,0l0,0l0,0l0,0l0,0l0,0l0,0l0,0l0,0l0,0l0,0l0,0l0,0l0,0l0,0l0,0l0,0l0,0l0,0l0,0l0,0l0,0l0,0l0,0l0,0l0,0l0,0l0,0l0,0l0,0
			l0,0l0,0l0,0l0,0l0,0l0,0l0,0l0,0l0,0l0,0l0,0l0,0l0,0l0,0l0,0l0,0l0,0l0,0l0,0l0,0l0,0l0,0l0,0l0,0l0,0l0,0l0,0l0,0l0,0l0,0l0,0
			l0,0l0,0l0,0l0,0l0,0l0,0l0,0l0,0l0,0l0,0l0,0l0,0l0,0l0,0l0,0l0,0l0,0l0,0l0,0l0,0l0,0l0,0l0,0c-0.1,0.3-0.1,0.6,0,0.9
			c0.3,1.1,1.3,1.9,2.4,1.6c1.1-0.3,1.7-1.3,1.5-2.5C1209.4-316.4,1209-316.9,1208.6-317.1L1208.6-317.1z"/>
		<path class="st11" d="M1206.5-318.2l2.4,36.9c0,0.6,2.2,0.9,2.8-0.4c1.6,1.2,3,0.2,3.3-0.9c0.8,0.9,2.4,1.1,3.1-0.6
			c1.2,1,3.1-0.3,2.7-1.3l-13.4-33.9C1207.2-318.9,1206.4-318.7,1206.5-318.2L1206.5-318.2z"/>
		<ellipse transform="matrix(0.9758 -0.2187 0.2187 0.9758 98.254 256.5114)" class="st9" cx="1207.8" cy="-315.6" rx="4" ry="4"/>
	</g>
	<path class="st36" d="M1211.3-325.3c0,0,22,17,53,8c24-7,37-20,43-33"/>
	<polyline class="st36" points="1206.3,-337.3 1256.3,-333.3 1305.3,-361.3 	"/>
</g>
<g>
	<path class="st0" d="M1503.1-332.8c5.6-2.5,12,0.4,14.5,6s-0.4,12-6,14.5c-5.6,2.1-30,0.4-30,0.4S1497.5-330.7,1503.1-332.8z"/>
	<g>
		<path class="st11" d="M1511.5-329.1c2.8-1.1,5.6,0,7.1,2.8c1.1,2.8,0,5.6-2.8,7.1c-2.8,1.1-14.5,0.4-14.5,0.4
			S1508.7-327.7,1511.5-329.1z"/>
		<path class="st37" d="M1518.3-344.1l22.9-10.6c-9.5-12-27.2-14.8-39.9-6c-3.5,2.5-6.4,5.6-8.5,9.2
			C1502.1-353.3,1511.6-350.5,1518.3-344.1z"/>
		<path class="st37" d="M1531.8-315.2l22.9-10.6c2.8,15.2-6.4,30-21.5,34.2c-4.2,1.1-8.5,1.4-12.4,0.7
			C1527.9-296.8,1532.1-305.7,1531.8-315.2z"/>
	</g>
	<path class="st38" d="M1515.2-344.5l14.8,32.1c56.5-16.2,71.9-17.4,100.1-44.2c-0.4-13.8-6.9-25.3-17.1-35.2
		C1574.5-387.9,1564.2-376.6,1515.2-344.5z"/>
	<path class="st39" d="M1613-391.8c9.9,9.9,16.6,21.5,16.9,35.3l24-32.5L1613-391.8z"/>
	<path class="st38" d="M1509.5-343.8l16.2,35.3c1.4-1.1,2.8-2.5,4.2-3.9l-14.8-32.1C1513.4-344.5,1511.3-344.1,1509.5-343.8z"/>
	<circle class="st40" cx="1594.9" cy="-364.3" r="10.8"/>
	<path class="st9" d="M1592.9-419.7l-37.9,14.8c-2.2-0.9-4.2-0.9-4.2-0.9l1.8-2.4c0.6,0.2,1.2,0.3,1.9,0.3h0.1
		c7.3,0,10.9-11.5,9.1-18.1s-9.1-6.6-9.1-6.6h-0.1c0,0-7.2,0-9.1,6.6c-1.2,4.5,0,11.1,3.1,14.9l-3.8,4.2c-0.4,0-0.8,0.1-1.2,0.3
		l-18.7,10.4c-0.7,0.4-1.2,1.2-1.3,2v0.3l-4.4,21.9c-0.2,1,0.4,1.9,1.3,2.2c1.1,0.4,2.2-0.3,2.5-1.3l5-18.4c0.1-0.1,0.1-0.2,0.2-0.4
		c0.2-0.6,0.6-1.1,1.2-1.4l11.1-5.6l-6.5,23c-0.2,0.2-0.3,0.4-0.3,0.7c-1.5,9.4,2.6,12.3,3.6,12.9c0.1,0.1,0.3,0.1,0.5,0.2l31.3,4.7
		c-5.5,8-11.7,19.5-14.1,26c-0.7,1.9,0,2.8,0.8,3.2c0.8,0.4,1.8,0.2,2.4-0.5c3.9-4.8,22.2-27.2,22.2-30.4c0-2.3-1.9-4.1-3.3-5.1
		c-0.2-0.4-0.4-0.7-0.8-0.8l-25.1-11.4c-0.1-0.1-0.2-0.1-0.4-0.1c2.3-6.7,5.7-17.6,6.8-24l37.1-17c0.8-0.4,1.3-1.2,1.3-2.1
		C1596.1-419.2,1594.5-420.3,1592.9-419.7z"/>
	<path class="st11" d="M1610.4-410.4h-10.2v-2.1c0-1.8-1.4-3.2-3.2-3.2h-7.8c-1.8,0-3.2,1.4-3.2,3.2v2.1h-9.9
		c-1.1,0-1.8,0.7-1.8,1.8v24c0,1.1,0.7,1.8,1.8,1.8h33.8c1.1,0,1.8-0.7,1.8-1.8v-24C1611.8-409.7,1611.1-410.4,1610.4-410.4z
		 M1588.9-412.5c0-0.4,0.4-0.4,0.4-0.4h7.8c0.4,0,0.4,0.4,0.4,0.4v2.2h-8.5v-2.2H1588.9z"/>
	<rect x="1579.4" y="-410.4" class="st16" width="4.2" height="27.5"/>
	<rect x="1602.6" y="-410.4" class="st16" width="4.2" height="27.5"/>
</g>
<g>
	<g>
		<path class="st41" d="M2075.5-421.3c-15.8,3.3-25.8,18.8-22.5,34.5c2,9.7,8.7,17.2,17.1,20.8l0.2,7.3l5.2-5.6
			c3.9,0.8,7.9,0.9,12,0c15.8-3.3,25.8-18.8,22.5-34.5C2106.7-414.6,2091.2-424.7,2075.5-421.3z"/>
		<g>
			<path class="st11" d="M2150.4-352.7c0,0,8.5,0,10.7,7.8c2.1,7.8-2.1,21.3-10.7,21.3h-0.2c-8.6,0-12.8-13.5-10.7-21.3
				s10.7-7.8,10.7-7.8H2150.4z"/>
			<path class="st11" d="M2145.6-327.2c0,0,1.4,6.4-2.8,7.1c-4.3,0.7-13.5,3.6-14.2,7.1c-0.7,3.6-0.7,9.2-0.7,9.2h44.3
				c0,0,0-5.7-0.7-9.2c-0.7-3.6-9.9-6.4-14.2-7.1s-2.8-7.1-2.8-7.1"/>
		</g>
		<path class="st12" d="M2132.2-423.8c17,1.8,29.4,17.1,27.5,34.1c-1.1,10.5-7.3,19.2-15.9,23.9l0.6,7.8l-6.1-5.4
			c-4,1.3-8.3,1.8-12.7,1.3c-17-1.8-29.4-17.1-27.5-34.1C2099.9-413.3,2115.2-425.6,2132.2-423.8z"/>
		<g>
			<path class="st9" d="M2069.2-350.2c0,0,7.9,0,9.9,7.3s-1.9,19.8-9.9,19.8h-0.2c-7.9,0-11.9-12.5-9.9-19.8s9.9-7.3,9.9-7.3H2069.2
				z"/>
			<path class="st9" d="M2064.7-325.5c0,0,1.3,5.9-2.6,6.6c-4,0.7-12.5,3.3-13.2,6.6s-0.7,8.6-0.7,8.6h41.1c0,0,0-5.3-0.7-8.6
				s-9.2-5.9-13.2-6.6s-2.6-6.6-2.6-6.6"/>
		</g>
		<g>
			<circle class="st16" cx="2095.5" cy="-391.7" r="3.3"/>
			<circle class="st16" cx="2081.3" cy="-391.7" r="3.3"/>
			<circle class="st16" cx="2067.1" cy="-391.7" r="3.3"/>
		</g>
	</g>
	<path class="st12" d="M2171.8-394.7c0,0,4,21-14,32"/>
	<path class="st12" d="M2178.8-378.7c0,0-1,14-14,20"/>
	<path class="st12" d="M2068.9-431.4c0,0-21.1,3.7-25,24.4"/>
</g>
<g>
	<g>
		<g>
			<path class="st42" d="M-180.9,156.5l60-38.1c7.2-2.3,12.7,12.1,8.2,14.6l-58.3,38.3c-3.3,2.2-8.2-2.8-9.8-8.5
				C-181.7,159.9-180.9,156.5-180.9,156.5z"/>
		</g>
		<path class="st9" d="M-141.7,129.7c5.7-0.4,12.3,12.9,10.4,17.4l-8.6,5.5c0.4-6.5-5.9-16.4-11.7-16.4L-141.7,129.7L-141.7,129.7z"
			/>
		<path class="st9" d="M-118.8,152.9l-13-6.2l-8.4,6l12,9.2l0.3-8L-118.8,152.9L-118.8,152.9z"/>
		<path class="st33" d="M-260.4,145.8c-15.6-42.9,6.4-90.3,49.3-106c5.2-1.9,10.4-3.2,15.7-4"/>
		<g>
			<path class="st32" d="M-134.8,32.7c-0.7-0.9-2.2-1.2-5.7-1.5l-12-0.8l-13.1-16c-0.3-0.4-0.8-0.7-1.1-0.7l-4.3-0.3
				c-0.3,0-0.4,0.4-0.1,0.9l7.9,15.3l-16.2-1.1l-6.5-10.2c-0.2-0.3-0.6-0.6-0.9-0.6l-3.3-0.2c-0.3,0-0.5,0.3-0.4,0.7l2.3,9.8
				l-1.9-0.1c-1.6-0.1-1.9,2.5-0.6,3.7c1.4,1.2,13.6,7.1,15.3,7.2l33.9,2.4c4.8,0.3,9.6-1.5,9.7-4.1
				C-131.5,35.5-134.1,33.6-134.8,32.7z"/>
		</g>
		<g>
			<path class="st35" d="M-179.5,106.6l4.9,21c-15.5,24.9-48.4,34.2-73.6,27.4c-5.4-1.5-10.5-3.7-15-6.7l-4.8-20.8l45,3.6
				L-179.5,106.6L-179.5,106.6L-179.5,106.6z"/>
			<path class="st35" d="M-301.3,123.8L-234,82l78.7,9.1l-67.8,39.7L-301.3,123.8z"/>
			<path class="st9" d="M-229,100.4l-46.1,24.3c-0.5,0.2-0.7,0.5-0.5,1l4.6,21.9c1.7,0.3,3.2,1.6,3.7,3.5c0.5,2.4-0.9,4.8-3.1,5.3
				c-2.2,0.5-4.6-1.1-5.1-3.5c-0.4-1.8,0.2-3.5,1.5-4.6l-5.1-24c-0.2-0.7,0-1.4,0.8-1.9l46.8-24.4C-229.8,97.2-227.5,98.8-229,100.4
				L-229,100.4L-229,100.4z M-270.3,150.3L-270.3,150.3L-270.3,150.3L-270.3,150.3L-270.3,150.3L-270.3,150.3L-270.3,150.3
				L-270.3,150.3L-270.3,150.3l-0.1-0.1l0,0l0,0l0,0l0,0l0,0l0,0l0,0l0,0l0,0l0,0l0,0l0,0l0,0l0,0l0,0l0,0l0,0l0,0l0,0l0,0l0,0l0,0
				l0,0l0,0l0,0l0,0l0,0l0,0l0,0l0,0l0,0l0,0l0,0l0,0l0,0l0,0l0,0l0,0l0,0l0,0l0,0l0,0l0,0l0,0l0,0l0,0l0,0l0,0l0,0l0,0l0,0l0,0l0,0
				l0,0l0,0l0,0l0,0l0,0l0,0l0,0l0,0l0,0l0,0l0,0l0,0l0,0l0,0l0,0l0,0l0,0l0,0l0,0l0,0l0,0l0,0l0,0l0,0l0,0l0,0l0,0l0,0l0,0l0,0l0,0
				l0,0l0,0l0,0l0,0l0,0l0,0l0,0l0,0l0,0l0,0l0,0l0,0l0,0l0,0l0,0l0,0l0,0l0,0l0,0l0,0l0,0l0,0l0,0l0,0l0,0l0,0l0,0l0,0l0,0l0,0l0,0
				l0,0l0,0l0,0l0,0l0,0l0,0l0,0l0,0l0,0l0,0l0,0l0,0l0,0l0,0l0,0l0,0l0,0l0,0l0,0l0,0l0,0l0,0l0,0l0,0l0,0l0,0l0,0l0,0l0,0l0,0l0,0
				l0,0l0,0l0,0l0,0l0,0l0,0l0,0l0,0l0,0l0,0l0,0l0,0l0,0l0,0l0,0l0,0l0,0l0,0l0,0l0,0l0,0l0,0l0,0l0,0l0,0l0,0l0,0l0,0l0,0l0,0l0,0
				l0,0l0,0l0,0l0,0l0,0l0,0l0,0l0,0l0,0l0,0l0,0l0,0l0,0l0,0l0,0l0,0l0,0c-0.1,0.3-0.1,0.6,0,0.9c0.3,1.1,1.3,1.9,2.4,1.6
				c1.1-0.2,1.7-1.3,1.5-2.5C-269.6,151-269.9,150.6-270.3,150.3L-270.3,150.3z"/>
			<path class="st11" d="M-272.5,149.2l2.4,36.9c0,0.6,2.2,0.9,2.8-0.4c1.6,1.2,3,0.2,3.3-0.9c0.8,0.9,2.4,1.1,3.1-0.6
				c1.2,1,3.1-0.3,2.7-1.3l-13.3-33.9C-271.7,148.5-272.5,148.8-272.5,149.2L-272.5,149.2z"/>
			
				<ellipse transform="matrix(0.9758 -0.2187 0.2187 0.9758 -39.7616 -55.6139)" class="st9" cx="-271.1" cy="151.8" rx="4" ry="4"/>
		</g>
		<path class="st36" d="M-267.6,142.2c0,0,22,17,53,8c24-7,37-20,43-33"/>
		<polyline class="st36" points="-272.6,130.2 -222.6,134.2 -173.6,106.2 		"/>
	</g>
	<rect x="-306.2" class="st43" width="200" height="200"/>
</g>
<g>
	<g>
		<path class="st0" d="M35.4,128.7c5.6-2.5,12,0.4,14.5,6s-0.4,12-6,14.5c-5.6,2.1-30,0.4-30,0.4S29.8,130.9,35.4,128.7z"/>
		<g>
			<path class="st11" d="M43.8,132.5c2.8-1.1,5.6,0,7.1,2.8c1.1,2.8,0,5.6-2.8,7.1c-2.8,1.1-14.5,0.4-14.5,0.4
				S40.9,133.9,43.8,132.5z"/>
			<path class="st37" d="M50.6,117.4l22.9-10.6c-9.5-12-27.2-14.8-39.9-6c-3.5,2.5-6.4,5.6-8.5,9.2
				C34.4,108.3,43.9,111.1,50.6,117.4z"/>
			<path class="st37" d="M64,146.4l22.9-10.6c2.8,15.2-6.4,30-21.5,34.2c-4.2,1.1-8.5,1.4-12.4,0.7C60.1,164.8,64.4,155.9,64,146.4z
				"/>
		</g>
		<path class="st38" d="M47.4,117.1l14.8,32.1c56.6-16.2,72-17.3,100.2-44.2c-0.4-13.8-6.9-25.3-17.1-35.2
			C106.8,73.7,96.5,85,47.4,117.1z"/>
		<path class="st39" d="M145.3,69.8c9.9,9.9,16.6,21.5,16.9,35.3l24-32.5L145.3,69.8z"/>
		<path class="st38" d="M41.8,117.8L58,153.1c1.4-1.1,2.8-2.5,4.2-3.9l-14.8-32.1C45.7,117.1,43.6,117.4,41.8,117.8z"/>
		<circle class="st40" cx="127.1" cy="97.3" r="10.8"/>
		<path class="st9" d="M125.2,41.9L87.3,56.7c-2.2-0.9-4.2-0.9-4.2-0.9l1.8-2.4c0.6,0.2,1.2,0.3,1.9,0.3h0.1
			c7.3,0,10.9-11.5,9.1-18.1S86.9,29,86.9,29h-0.1c0,0-7.2,0-9.1,6.6c-1.2,4.5,0,11.1,3.1,14.9L77,54.7c-0.4,0-0.8,0.1-1.2,0.3
			L57.1,65.4c-0.7,0.4-1.2,1.2-1.3,2v0.3l-4.4,21.9c-0.2,1,0.4,1.9,1.3,2.2c1.1,0.4,2.2-0.3,2.5-1.3l5-18.4c0.1-0.1,0.1-0.2,0.2-0.4
			c0.2-0.6,0.6-1.1,1.2-1.4l11.1-5.6l-6.5,23c-0.2,0.2-0.3,0.4-0.3,0.7c-1.5,9.4,2.6,12.3,3.6,12.9c0.1,0.1,0.3,0.1,0.5,0.2
			l31.3,4.7c-5.5,8-11.7,19.5-14.1,26c-0.7,1.9,0,2.8,0.8,3.2s1.8,0.2,2.4-0.5c3.9-4.8,22.2-27.2,22.2-30.4c0-2.3-1.9-4.1-3.3-5.1
			c-0.2-0.4-0.4-0.7-0.8-0.8L83.4,87.2c-0.1-0.1-0.2-0.1-0.4-0.1c2.3-6.7,5.7-17.6,6.8-24l37.1-17c0.8-0.4,1.3-1.2,1.3-2.1
			C128.4,42.4,126.7,41.3,125.2,41.9z"/>
		<path class="st11" d="M142.7,51.2h-10.2V49c0-1.8-1.4-3.2-3.2-3.2h-7.8c-1.8,0-3.2,1.4-3.2,3.2v2.1h-9.9c-1.1,0-1.8,0.7-1.8,1.8
			v24c0,1.1,0.7,1.8,1.8,1.8h33.8c1.1,0,1.8-0.7,1.8-1.8v-24C144.1,51.9,143.4,51.2,142.7,51.2z M121.2,49.1c0-0.4,0.4-0.4,0.4-0.4
			h7.8c0.4,0,0.4,0.4,0.4,0.4v2.2h-8.5L121.2,49.1L121.2,49.1z"/>
		<rect x="111.6" y="51.2" class="st16" width="4.2" height="27.5"/>
		<rect x="134.9" y="51.2" class="st16" width="4.2" height="27.5"/>
	</g>
	<rect class="st43" width="200" height="200"/>
</g>
<g>
	<g>
		<path class="st16" d="M386.2,165.5L386.2,165.5c-31.9,0-58-26.1-58-58l0,0c0-31.9,26.1-58,58-58l0,0c31.9,0,58,26.1,58,58l0,0
			C444.2,139.4,418.1,165.5,386.2,165.5z"/>
		<g>
			<path class="st32" d="M443.7,86.4c-1.1-2.9-2.4-5.7-3.8-8.4c-2.8-5.1-6.3-9.7-10.3-13.7c-0.1-0.1-0.2-0.2-0.3-0.3l0,0
				c-0.1-0.1-0.2-0.2-0.3-0.3l0,0c-0.3-0.3-0.7-0.7-1.1-1c-10.9-10.1-25.6-16.3-41.7-16.3c-9.3,0-18.2,2.1-26.1,5.8
				c-0.5,0.3-1.1,0.5-1.6,0.8c-5.8,2.9-11.1,6.8-15.6,11.4c-6.7,6.7-11.8,14.8-14.8,24c-0.2,0.5-0.3,0.9-0.4,1.4v0.1
				c-0.1,0.3-0.2,0.6-0.3,1c-0.2,0.8-0.4,1.5-0.6,2.3c-0.1,0.3-0.1,0.5-0.2,0.8c-1,4.4-1.6,9.1-1.6,13.8c0,16.9,6.9,32.3,18,43.4
				c6.2,6.2,13.8,11.1,22.3,14.3c0.3,0.1,0.5,0.2,0.8,0.3c1.6,0.6,3.3,1.1,4.9,1.5c0.3,0.1,0.6,0.1,0.9,0.2
				c4.6,1.1,9.5,1.7,14.4,1.7c16.9,0,32.3-6.9,43.4-18c2-2,3.9-4.2,5.6-6.5c7.7-10.3,12.3-23,12.3-36.9
				C447.5,100.2,446.2,93,443.7,86.4z M347.5,146.3c-9.9-9.9-16-23.5-16-38.6c0-2.8,0.2-5.5,0.6-8.2c1.9,1.3,5.3,3.1,5.3,3.1
				c0.1,0,0.3,0.1,0.5,0.1c0.3,0,0.6,0,0.9-0.1c0.4-0.1,0.7-0.1,1-0.1c0.1,0,0.2,0,0.2,0c0.1,0.1,0.3,0.5,0.4,0.8
				c0.2,0.5,0.5,1.1,0.9,1.3c0.4,0.2,1.4,0.3,2.8,0.5c0.5,0.1,0.9,0.1,1.2,0.1c0.1,0.2,0.2,0.6,0.3,0.9c0.2,0.8,0.4,1.6,1,2
				c0.5,0.3,2.2,1.9,3.1,2.8c0.1,0.1,0.3,0.2,0.4,0.2c0.1,0,0.2,0,0.3-0.1c0.1,0,1.7-1,2.2-1.3c0.1,0,0.3,0.2,0.5,0.3
				c0,0.9,0.1,3.8,0.1,4.4c-0.1,0.4-1.3,1.6-2.7,2.8c-0.1,0.1-0.2,0.3-0.2,0.4c0,0.2-0.2,4,0,5.6s2.7,4.6,3.4,5.4
				c0.3,0.8,1.1,2.9,1.4,3.4c0.3,0.5,3.4,2.8,5.4,4.3v9.2c0,1,0.4,1.7,0.7,2.2c0.2,0.3,0.3,0.6,0.3,0.8v6.4c0,0.8,0.2,1.5,0.6,2.1
				C356.9,154.2,351.9,150.6,347.5,146.3z M433.5,85.1c-1.1-0.8-2.7-1.1-2.7-1.1l-1.2-0.2c-0.6-1.2-0.3-4-2.4-3.4
				c-2.1,0.6-9.2,1.8-10.7,2.1c-1.5,0.3-3.4,2.7-4.6,4.6c-1.2,1.8-4.6,7.6-5.2,8.5c-0.6,0.9-0.9,6.7-0.9,8.2s6.7,7.9,8.9,8.2
				c2.1,0.3,7.9-1.2,9.5-1.5c1.5-0.3,2.4,1.8,3.7,1.8c1.2,0,2.7,0.6,1.5,2.4s-1.2,2.7,0,4c1.2,1.2,3.7,5.8,2.1,9.5
				c-1.5,3.7-0.3,5.5,0.6,7c0.2,0.3,0.4,0.7,0.6,1.2c-2.2,3.5-4.8,6.8-7.7,9.7c-9.9,9.9-23.5,16-38.6,16c-5,0-9.9-0.7-14.6-2
				c0-0.1,0-0.2,0.1-0.2c0.1-0.6-0.2-1-0.4-1.3c0.3-0.2,0.6-0.4,0.8-0.8c0.3-0.5,0.3-1.2,0.3-1.7h0.3c0.7,0,1.6-0.1,2.3-0.5
				c1.1-0.8,1.1-2.4,0.9-3.5c0.1,0,0.2,0.1,0.2,0.1c0.1,0,0.2,0,0.3,0c1,0,2.1-1.8,2.3-2.9c0.1-0.4,0.5-1.4,0.9-2.3
				c0.9-2.2,1.5-3.5,1.4-4.2c0-0.4,1.7-1.8,3.2-2.1c1.8-0.4,2.4-1,3.1-3.2c0.6-2.1,0.9-5.5,0.8-7c0-0.5,1-1.9,1.7-2.9
				c1.1-1.6,1.8-2.6,1.8-3.4c0-1.8-1.6-3.1-2.7-3.9c-1.2-0.8-3.2-1-4.5-1.1c-0.4,0-0.7-0.1-0.9-0.1c-0.1,0-0.4-0.3-0.6-0.5
				c-0.4-0.5-1-1.1-1.9-1.2c-0.1,0-0.2,0-0.3,0c-0.6,0-1.1,0.2-1.6,0.4c-0.5,0.2-0.9,0.3-1.3,0.3c-0.1,0-0.3,0-0.4,0
				c-0.2,0-0.3-0.1-0.3-0.1c0-0.1,0.2-0.4,0.7-0.8c0.5-0.3,0.9-1,0.4-2.5c-0.4-1.1-1-2.2-1.3-2.6c-1-1.4-2.7-1.4-3.3-1.4
				c-0.5,0-1,0.1-1.6,0.1h-0.1c-0.5,0-0.8-0.5-1.4-1.5c-0.3-0.6-0.7-1.2-1.3-1.8c-1.2-1.4-2.8-1.6-4.2-1.6c-0.2,0-0.4,0-0.6,0
				c-0.2,0-0.3,0-0.4,0c-0.2,0-0.4,0-0.5,0c-0.5-0.1-1.3-0.5-2-0.8c-0.8-0.4-1.5-0.8-2.1-0.9h-0.2c-0.9,0-1.9,1-3.3,2.6
				c-0.3,0.4-0.8,0.9-1,1.1c0-0.1-0.1-0.1-0.2-0.2c-0.3-0.3-0.6-0.8-1.2-1c-0.1,0-0.3-0.1-0.4-0.1c-0.5,0-0.8,0.3-1.2,0.5
				c-0.3,0.2-0.5,0.4-0.8,0.4c-0.2,0-0.4-0.1-0.6-0.2c-0.8-0.5-0.6-2.2-0.3-3.6c0.1-0.7,0.2-1.3,0.2-1.8c0-1.2-0.7-1.3-1-1.3
				s-0.6,0.1-0.9,0.2c-0.4,0.1-0.8,0.3-1.2,0.3c-0.2,0-0.4,0-0.6-0.1c-0.3-0.1-0.5-0.2-0.5-0.3c-0.1-0.2,0.4-0.9,0.7-1.4
				c0.2-0.2,0.3-0.5,0.5-0.7c0.6-1.1,1-1.8,0.6-2.4c-0.2-0.4-0.6-0.5-1.1-0.5c-0.2,0-0.5,0-0.7,0.1c-0.2,0-0.4,0.1-0.6,0.1
				c-0.3,0-0.5,0-0.6-0.1c-0.2,0-0.3-0.1-0.4-0.1c-0.8,0-0.9,0.8-1,1.2c-0.2,1.3-0.9,1.9-2.3,1.9c-0.1,0-0.2,0-0.3,0
				c-1.4-0.1-2-1.1-2-3.4c0-1,0.2-1.2,0.6-2c0.2-0.4,0.5-0.8,0.8-1.5c0.8-1.5,1.4-1.8,2.1-2.1c0.2-0.1,0.5-0.2,0.7-0.4
				c0.2-0.1,0.3-0.2,0.4-0.2c0.1,0,0.2,0,0.3,0.1c0.2,0.1,0.5,0.2,0.8,0.2c0.1,0,0.2,0,0.3,0c1.1-0.2,1.4-0.9,1.6-1.4
				c0-0.1,0-0.1,0.1-0.2c0.1,0,0.1,0,0.2,0c0.5,0.1,1.3,0.4,2.6,0.4c0.4,0,0.8,0,1,0c-0.2,0.8-0.2,2.4,1.5,4.3
				c0.5,0.6,1,0.9,1.5,0.9c1.6,0,1.7-2.6,1.7-5.6c0-1.8,0.7-2.3,2.7-3.7l0.1-0.1c1.1-0.8,1.7-1.7,2.3-2.6c0.7-0.9,1.3-1.8,2.5-2.6
				c1.1-0.7,2.9-1.5,4.5-2.2c1.9-0.9,3.8-1.7,4.6-2.4c1-0.8,0.8-2,0.6-3c-0.2-1.3-0.1-1.6,0.4-1.7c0.9-0.2,1.8-0.4,2.7-0.5
				c1.4-0.2,2.8-0.4,4.3-1s1.9-1.4,1.9-2c0.1-1-0.8-1.8-1.6-2.2c-0.3-0.2-0.4-1-0.4-1.7c0-0.9-0.1-1.9-0.7-2.4
				c-0.3-0.3-0.8-0.5-1.3-0.5c-0.6,0-1.3,0.3-2.1,0.6c-0.5,0.2-1.1,0.5-1.8,0.6c-0.1,0-0.1,0-0.2,0c-0.2,0-0.4-0.5-0.6-1.2
				c-0.3-1-0.8-2.6-2.5-2.6c-0.2,0-0.4,0-0.6,0.1c-2.2,0.4-2.7,2.7-3,4.4c-0.1,0.6-0.3,1.5-0.5,1.6c-1.3,0-1.7,0.8-2.1,1.6
				c-0.3,0.5-0.5,1.1-1.1,1.6c-0.3,0.3-0.6,0.4-0.6,0.4c-0.1-0.1-0.3-0.8,0.4-2.2c0.3-0.6,0.6-1.4,0.2-2c-0.5-0.8-1.5-0.8-2.8-0.9
				c-0.5,0-1,0-1.5-0.1c-1-0.1-1.3-0.4-1.3-0.4s0-0.2,0.3-0.5c8.2-4.9,17.7-7.6,27.9-7.6c12.4,0,23.7,4.1,32.9,11
				c-0.1,0.6-0.6,1.4-1,2.1c-0.6,1.1-0.3,1.7-0.3,1.7s2.9-0.5,3.5-0.8c0.2-0.1,0.4-0.4,0.6-0.8c0.3,0.3,0.6,0.5,0.9,0.8
				c-0.7,0.7-1.5,1.3-1.8,1.5c-0.5,0.3-2,0.8-2.6,1.1c-0.6,0.3,1.8,1.4,1.8,1.8c0,0.5,0,2.6-0.9,2.7C418.3,74,414,74,414,74
				s-1.4,4.9-1.1,5.3c0.3,0.5,2.3,1.5,3.5,1.4c1.2-0.2,4-1.5,4-1.5l1.2-2.7l2.4-2.6c0,0,1.8,0.8,2.4,0.2c0.6-0.6,1.8-1.2,1.8-1.2
				s1.2,2.3,2,2.6l0.1,0.1l0,0c0.9,1.2,1.7,2.5,2.5,3.8l0,0l0,0l0,0c0,0.1,0.1,0.2,0.1,0.2c1.3,2.1,2.4,4.3,3.3,6.6
				C435.5,86.4,434.4,85.7,433.5,85.1z"/>
		</g>
		<path class="st33" d="M338.8,84c0,0,2.2-46.3,37.7-50.6s48.7,29.1,48.7,29.1"/>
		<path class="st9" d="M352.6,38.7c-6.2-10.2-21.1-10.3-27.2,0.1c-3.1,5.4-2.6,10.5,0,15.7c2.3,4.5,4.4,9.1,6.7,13.7l5,10.3
			c0.4,0.8,1.2,2.4,1.6,3.3h0.7c0.2-1.1,12.9-26.5,13.3-27.3C355.4,49.2,355.8,44,352.6,38.7z M338.9,53.4c-3.2,0-5.9-2.6-5.9-5.9
			c0-3.2,2.6-5.9,5.9-5.9c3.2,0,5.9,2.6,5.9,5.9C344.7,50.8,342.1,53.4,338.9,53.4z"/>
		<g>
			<path class="st11" d="M436.4,41.3c-3.6-6-12.5-6.1-16,0.1c-1.8,3.2-1.6,6.2,0,9.3c1.3,2.7,2.6,5.4,4,8.1l3,6.1
				c0.2,0.5,0.7,1.4,0.9,2h0.4c0.1-0.6,7.6-15.6,7.9-16.1C438.1,47.5,438.3,44.5,436.4,41.3z M428.2,49.3c-1.8,0-3.3-1.5-3.3-3.3
				s1.5-3.3,3.3-3.3s3.3,1.5,3.3,3.3S430,49.3,428.2,49.3z"/>
			<polygon class="st11" points="428.6,66.8 428.6,66.8 428.6,66.8 			"/>
		</g>
	</g>
	<rect x="285.4" class="st43" width="200" height="200"/>
</g>
<g>
	<g>
		<g>
			<path class="st38" d="M687.2,43.8c17,1.8,29.4,17.1,27.5,34.1c-1.1,10.5-7.3,19.2-15.9,23.9l0.6,7.8l-6.1-5.4
				c-4,1.3-8.3,1.8-12.7,1.3c-17-1.8-29.4-17.1-27.5-34.1S670.1,41.9,687.2,43.8z"/>
			<path class="st41" d="M630.4,46.2c-15.8,3.3-25.8,18.8-22.5,34.5c2,9.7,8.7,17.2,17.1,20.8l0.2,7.3l5.2-5.6c3.9,0.8,7.9,0.9,12,0
				c15.8-3.3,25.8-18.8,22.5-34.5S646.2,42.9,630.4,46.2z"/>
			<g>
				<path class="st11" d="M705.3,114.8c0,0,8.5,0,10.7,7.8c2.1,7.8-2.1,21.3-10.7,21.3h-0.2c-8.6,0-12.8-13.5-10.7-21.3
					s10.7-7.8,10.7-7.8H705.3z"/>
				<path class="st11" d="M700.5,140.4c0,0,1.4,6.4-2.8,7.1s-13.5,3.6-14.2,7.1c-0.7,3.6-0.7,9.2-0.7,9.2h44.3c0,0,0-5.7-0.7-9.2
					c-0.7-3.6-9.9-6.4-14.2-7.1s-2.8-7.1-2.8-7.1"/>
			</g>
			<g>
				<path class="st9" d="M624.1,117.3c0,0,7.9,0,9.9,7.3s-2,19.8-9.9,19.8h-0.2c-7.9,0-11.9-12.5-9.9-19.8s9.9-7.3,9.9-7.3H624.1z"
					/>
				<path class="st9" d="M619.7,142.1c0,0,1.3,5.9-2.6,6.6c-4,0.7-12.5,3.3-13.2,6.6s-0.7,8.6-0.7,8.6h41.1c0,0,0-5.3-0.7-8.6
					s-9.2-5.9-13.2-6.6c-4-0.7-2.6-6.6-2.6-6.6"/>
			</g>
			<g>
				<circle class="st16" cx="650.5" cy="75.8" r="3.3"/>
				<circle class="st16" cx="636.3" cy="75.8" r="3.3"/>
				<circle class="st16" cx="622" cy="75.8" r="3.3"/>
			</g>
		</g>
		<path class="st12" d="M726.8,72.8c0,0,4,21-14,32"/>
		<path class="st12" d="M733.8,88.8c0,0-1,14-14,20"/>
		<path class="st12" d="M623.9,36.2c0,0-21.1,3.7-25,24.4"/>
	</g>
	<rect x="566.3" class="st43" width="200" height="200"/>
</g>
</svg>
