<?xml version="1.0" encoding="utf-8"?>
<!-- Generator: Adobe Illustrator 21.1.0, SVG Export Plug-In . SVG Version: 6.00 Build 0)  -->
<svg version="1.1" id="圖層_1" xmlns="http://www.w3.org/2000/svg" xmlns:xlink="http://www.w3.org/1999/xlink" x="0px" y="0px"
	 viewBox="0 0 200 200" style="enable-background:new 0 0 200 200;" xml:space="preserve">
<style type="text/css">
	.st0{fill:#FFD15C;}
	.st1{fill:#F3705A;}
	.st2{fill:#E8EAE9;}
	.st3{fill:#415A6B;}
	.st4{fill:#CED6E0;}
	.st5{fill:#344A5E;}
	.st6{fill:#F3F3F3;}
	.st7{fill:#4ABAA5;}
	.st8{fill:#66C6B9;}
	.st9{fill:#FFD23E;}
	.st10{opacity:0.9;fill:#E8B118;}
	.st11{fill:#FC6222;}
	.st12{fill:none;stroke:#15275C;stroke-width:4;stroke-linecap:round;stroke-linejoin:round;stroke-miterlimit:10;}
	.st13{fill:#FF5B62;}
	.st14{fill:#ED4C54;}
	.st15{fill:#21D0C3;}
	.st16{fill:#FFFFFF;}
	.st17{fill:#15BDB2;}
	.st18{fill:#C8CACC;}
	.st19{fill:#FF816F;}
	.st20{fill:#807D7D;}
	.st21{fill:#FFBA1B;}
	.st22{fill:#F5A209;}
	.st23{fill:#20D0C2;}
	.st24{fill:#15BDB1;}
	.st25{fill:#666666;}
	.st26{fill:#FFCA4F;}
	.st27{fill:#FF5B61;}
	.st28{fill:#FF4776;}
	.st29{opacity:0.9;fill:#FFC919;}
	.st30{fill:#00D3AC;}
	.st31{opacity:0.9;fill:#DD51FF;}
	.st32{fill:#15275C;}
	
		.st33{fill:none;stroke:#15275C;stroke-width:3;stroke-linecap:round;stroke-linejoin:round;stroke-miterlimit:10;stroke-dasharray:4,9;}
	.st34{fill:none;stroke:#15275C;stroke-width:4;stroke-linecap:square;stroke-linejoin:bevel;stroke-miterlimit:10;}
	.st35{fill:#15275C;stroke:#15275C;stroke-width:4;stroke-linecap:square;stroke-linejoin:bevel;stroke-miterlimit:10;}
	.st36{fill:none;stroke:#FFFFFF;stroke-width:3;stroke-linecap:round;stroke-linejoin:round;stroke-miterlimit:10;}
	.st37{fill:#15275C;stroke:#15275C;stroke-width:4;stroke-linecap:square;stroke-miterlimit:10;}
	.st38{fill:#FFFFFF;stroke:#15275C;stroke-width:4;stroke-linecap:round;stroke-linejoin:round;stroke-miterlimit:10;}
	.st39{fill:#15275C;stroke:#15275C;stroke-width:4;stroke-linecap:round;stroke-linejoin:bevel;stroke-miterlimit:10;}
	.st40{fill:#15275C;stroke:#15275C;stroke-width:4;stroke-linecap:round;stroke-miterlimit:10;}
	.st41{fill:#15275C;stroke:#15275C;stroke-width:4;stroke-linecap:round;stroke-linejoin:round;stroke-miterlimit:10;}
	.st42{fill:#FFFFFF;stroke:#15275C;stroke-width:4;stroke-linecap:square;stroke-linejoin:bevel;stroke-miterlimit:10;}
	.st43{fill:none;}
</style>
<path class="st0" d="M1949.8,517.1c8.6-3.8,18.3,0.5,22,9.1c3.8,8.6-0.5,18.3-9.1,22c-8.6,3.2-45.7,0.5-45.7,0.5
	S1941.2,520.3,1949.8,517.1z"/>
<g>
	<path class="st1" d="M1961.1,521.4c4.3-1.6,8.6,0,10.7,4.3c1.6,4.3,0,8.6-4.3,10.7c-4.3,1.6-22,0.5-22,0.5
		S1956.8,523.6,1961.1,521.4z"/>
	<path class="st1" d="M1968.6,499.9l34.9-16.1c-14.5-18.3-41.4-22.6-60.7-9.1c-5.4,3.8-9.7,8.6-12.9,14
		C1943.9,485.9,1958.4,490.2,1968.6,499.9z"/>
	<path class="st1" d="M1989,544l34.9-16.1c4.3,23.1-9.7,45.7-32.8,52.1c-6.4,1.6-12.9,2.2-18.8,1.1
		C1983.1,571.9,1989.6,558.5,1989,544z"/>
</g>
<path class="st2" d="M2138.5,481.6c-43,40.9-66.1,41.9-152.1,66.7l-22.6-48.9c74.7-48.9,90.8-65.6,149.4-71.5
	C2128.8,442.9,2137.9,460.7,2138.5,481.6z"/>
<path class="st1" d="M2113.7,427.3c15.1,15.1,24.2,32.8,24.7,53.8l36.5-49.5L2113.7,427.3z"/>
<path class="st3" d="M1955.2,500.4l24.7,53.8c2.2-1.6,4.3-3.8,6.5-5.9l-22.6-48.9C1961.1,499.4,1957.9,499.9,1955.2,500.4z"/>
<path class="st0" d="M2099.2,344c0,0,8.1-2.7,9.7-3.8s5.4-2.7,5.9-3.2s3.2-1.6,4.3-1.1c0.5,0.5,4.3,5.4,3.8,6.5
	c-0.5,1.1-1.1,1.1-1.1,1.1s1.1,1.6-0.5,2.7c-1.6,1.1-5.9,1.1-7.5,0.5c-1.6-0.5-3.8-1.1-3.8-1.1l-8.6,5.4L2099.2,344z"/>
<path class="st2" d="M2092.8,345.6l9.1-3.8c0,0,2.7,9.1,3.8,10.2l-8.6,4.3L2092.8,345.6z"/>
<path class="st4" d="M2041.2,513.9c0,0-0.5-5.4,4.3-9.7c5.4-4.3,5.4-9.1,5.4-9.1l-11.8,1.1c0,0-3.2,2.7-5.9,3.2
	c-2.2,0.5-2.2,0.5-2.2,0.5S2028.3,516.6,2041.2,513.9z"/>
<path class="st5" d="M2014.8,433.3c0,0-8.1,17.2,15.6,25.3c24.2,8.6,37.6,14,37.6,14s-14.5,10.7-21,16.1c-6.4,5.4-12.4,9.7-12.4,9.7
	s6.4,7.5,10.7,9.7c4.3,2.2,9.7,7,9.7,7l21-24.7c0,0,16.7-10.2,18.3-15.1c1.6-4.8-0.5-11.8-4.3-15.6c-4.3-3.8-28-21.5-28-21.5
	s-7.5-17.2-9.7-27.4s-4.8-16.7-4.8-16.7L2014.8,433.3z"/>
<g>
	<path class="st3" d="M2048.7,363.4c0,0,3.8-0.5,10.2-2.7c6.5-2.2,15.6-6.4,20.4-9.1c4.8-2.7,16.1-7,16.1-7s1.6,9.7,6.4,12.4
		c0,0-15.6,7-19.4,9.1s-27.4,13.4-31.2,14.5L2048.7,363.4z"/>
	<path class="st3" d="M2048.2,362.3c0,0,3.8,2.7,3.2,14.5c-0.5,11.8-1.1,12.4,0,19.9c1.1,7.5,10.2,38.7,10.2,40.9c0,2.2-0.5,0-0.5,0
		s-8.6-5.4-9.1-13.4c-0.5-8.1-7.5-26.3-6.4-31.7C2046.5,387,2048.2,362.3,2048.2,362.3z"/>
	<path class="st3" d="M1972.9,409.1c0,0-0.5,1.6-6.4-2.7s-6.4-5.4-6.4-5.4l7.5-0.5C1967.5,400.5,1973.4,403.2,1972.9,409.1z"/>
</g>
<path class="st0" d="M2044.9,368.8c1.1-6.4,2.7-10.7,4.8-10.2c9.1,1.6,9.7-3.2,9.7-3.8c0-0.5,0-1.1,0.5-2.2s-0.5-1.6-0.5-1.6
	c0.5,0,1.1-0.5,0.5-1.1c-0.5-1.1-0.5-1.6-0.5-1.6s1.6-0.5,2.2-0.5c0.5-0.5,0.5-0.5,0-1.6c-1.1-1.6-4.8-5.9-4.8-5.9s0.5,0,0-2.2
	c-0.5-2.2-4.8-8.1-4.8-8.1l-19.9,12.4l-2.7,12.4c0,0-4.3,11.3-5.4,14L2044.9,368.8L2044.9,368.8z"/>
<g>
	<polygon class="st6" points="2047.6,360.2 2043.8,362.8 2044.9,368.8 2047.6,363.9 	"/>
	<polygon class="st6" points="2032.6,351 2043.8,362.8 2039,368.2 2028.3,354.2 	"/>
</g>
<path class="st3" d="M2044.4,344.6l2.2-1.1c0,0-1.1-2.2-0.5-4.3c0.5-2.2,2.2-3.2,2.7-4.8c0.5-1.6,4.3-2.2,4.3-2.2s1.1-2.7-0.5-4.8
	c-1.1-3.2-6.4-2.7-12.4-1.6s-12.4,4.3-13.4,7c-1.6,2.7,1.1,15.6,2.2,18.8c1.1,3.2,8.6-2.2,9.1-4.8c0.5-2.7-0.5-3.2,1.6-4.8
	C2041.7,339.7,2044.4,344.6,2044.4,344.6z"/>
<ellipse transform="matrix(0.8825 -0.4703 0.4703 0.8825 78.2337 1000.3424)" class="st0" cx="2041.2" cy="343.6" rx="2.7" ry="4.3"/>
<path class="st5" d="M2047.6,360.2c0,0-3.2,4.3-2.7,10.7c0.5,6.4,1.1,21,1.1,21s1.6-5.4,3.2-8.1c1.6-3.2,2.7-7,2.7-10.7
	c0-3.8-2.2-5.9-2.2-5.9l1.1-0.5C2050.8,366.6,2049.2,360.2,2047.6,360.2z"/>
<g>
	<path class="st7" d="M1987.9,430v36.5c0,1.6-1.1,2.7-2.7,2.7h-51.6c-1.6,0-2.7-1.1-2.7-2.7V430c0-1.6,1.1-2.7,2.7-2.7h52.1
		C1986.9,427.3,1987.9,428.4,1987.9,430z"/>
	<path class="st7" d="M1953,429v-4.8c0-0.5,0.5-0.5,0.5-0.5h11.8c0.5,0,0.5,0.5,0.5,0.5v4.8h4.3v-4.8c0-2.7-2.2-4.8-4.8-4.8h-11.8
		c-2.7,0-4.8,2.2-4.8,4.8v4.8H1953z"/>
</g>
<path class="st0" d="M1970.2,407.5c0,0-1.1,4.3-1.1,4.8c0,0.5,2.2,3.2,2.7,4.8c0.5,1.6-1.1,5.4-1.6,5.9c0,0-0.5-1.6-1.1-2.2
	c-0.5-0.5-1.1,0-2.2,1.1c-1.1,0.5-2.2,2.2-2.7,3.2c0,0.5-0.5,0.5-1.1,0.5c-0.5,0-1.6-0.5-1.6-1.1c0,0-2.2,0.5-2.7,0
	c0,0-2.7,0-3.2-0.5c0,0-2.2,0.5-2.2-1.6c0.5-1.6,2.2-5.4,3.2-7c1.1-2.7,2.7-6.5,4.3-8.6c3.8-6.4,7-6.4,7-6.4L1970.2,407.5z"/>
<path class="st2" d="M1961.1,405.3c0,0,8.6,1.6,9.1,5.4l5.4-8.1l-9.1-7L1961.1,405.3z"/>
<path class="st5" d="M2003.5,360.2c0,0-1.1,2.7-11.3,8.1c-10.2,5.4-16.1,15.1-21.5,20.4c-5.4,5.4-10.7,12.4-10.7,12.4
	s10.7,3.2,12.9,8.1c0,0,5.4-9.1,8.6-12.4s6.4-7,7-7.5c0.5-0.5,10.2-4.3,12.9-5.4c2.7-1.1,5.9-2.7,5.9-2.7S2011.6,362.3,2003.5,360.2
	z"/>
<path class="st3" d="M2028.3,351.6c0,0-2.2,2.2-5.9,2.2c-3.8,0.5-5.9-1.1-10.2-1.6c-4.3-0.5-8.1,5.4-8.6,7.5
	c-0.5,2.2,2.7,48.9,2.7,54.3c0,5.4,0.5,26.3,0.5,26.3s23.6,1.1,31.2-2.7c7.5-3.8,9.7-7.5,10.7-11.3c0.5-3.8-2.2-34.4-2.2-34.4
	s1.1-5.4-3.2-11.3C2039,374.7,2028.3,351.6,2028.3,351.6z"/>
<path class="st5" d="M2046,392.4c0,0,0-5.9-1.6-8.1c-1.6-2.7-4.3-3.8-5.4-5.9c-1.1-2.2-4.3-9.1-6.4-11.8c-2.2-2.7-4.8-8.6-4.8-8.6
	l1.6-1.6l-4.3-1.1l3.2-4.8c0,0.5,0.5,1.1,0.5,1.1c0.5,1.1,1.6,1.1,2.7,0.5c1.6,3.2,3.8,7,5.9,9.7c2.7,3.8,3.8,9.1,4.3,11.8
	c0,2.7,3.8,8.1,4.3,10.2C2046.5,386,2046,392.4,2046,392.4z"/>
<g>
	<rect x="1938.5" y="427.3" class="st8" width="6.4" height="41.9"/>
	<rect x="1974" y="427.3" class="st8" width="6.5" height="41.9"/>
</g>
<path class="st3" d="M2033.6,499.4c0,0-0.5,3.8,0.5,6.4c1.6,3.2,5.9,2.7,7.5,3.8c1.6,1.1-1.1,11.3,1.1,17.7c2.2,6.5,4.3,8.6,2.7,9.7
	c-1.6,1.1-4.3-1.1-7-4.3c-2.7-3.2-7.5-10.2-8.1-13.4c-0.5-3.8-1.6-5.4-1.6-5.4l-2.7,1.1l-5.9-9.7l3.8-2.2
	C2024,502.6,2028.3,496.1,2033.6,499.4z"/>
<path class="st9" d="M2880.3-452.8c-28.4,0-51.5,20.1-51.5,45c0,12.7,6,24.2,15.7,32.3c-11.7,9.8-23.2,8.9-23.2,8.9
	c10.8,8.4,28.3,4.2,39.1,0.2c6.1,2.2,12.8,3.5,19.9,3.5c28.4,0,51.5-20.1,51.5-45C2931.8-432.6,2908.7-452.8,2880.3-452.8z"/>
<path class="st10" d="M2880.3-452.8c-4.8,0-9.5,0.6-14,1.7c5.9,19.1,25.9,33.2,49.7,33.2c4.8,0,9.5-0.6,14-1.7
	C2924.1-438.7,2904.1-452.8,2880.3-452.8z"/>
<path class="st11" d="M2917.8-510.7c28.4,0,51.5,20.1,51.5,45c0,12.7-6,24.2-15.7,32.3c11.7,9.8,23.2,8.9,23.2,8.9
	c-10.8,8.4-28.3,4.2-39.1,0.2c-6.1,2.2-12.8,3.5-19.9,3.5c-28.4,0-51.5-20.1-51.5-45S2889.3-510.7,2917.8-510.7z"/>
<path class="st12" d="M2917.8-510.7c28.4,0,51.5,20.1,51.5,45c0,12.7-6,24.2-15.7,32.3c11.7,9.8,23.2,8.9,23.2,8.9
	c-10.8,8.4-28.3,4.2-39.1,0.2c-6.1,2.2-12.8,3.5-19.9,3.5c-28.4,0-51.5-20.1-51.5-45S2889.3-510.7,2917.8-510.7z"/>
<path class="st13" d="M2513.3,599.2c-28.4,0-51.5,20.1-51.5,45c0,12.7,6,24.2,15.7,32.3c-11.7,9.8-23.2,8.9-23.2,8.9
	c10.8,8.4,28.3,4.2,39.1,0.2c6.1,2.2,12.8,3.5,19.9,3.5c28.4,0,51.5-20.1,51.5-45S2541.7,599.2,2513.3,599.2z"/>
<path class="st14" d="M2513.3,599.2c-4.8,0-9.5,0.6-14,1.7c5.9,19.1,25.9,33.2,49.7,33.2c4.8,0,9.5-0.6,14-1.7
	C2557.1,613.3,2537.1,599.2,2513.3,599.2z"/>
<path class="st15" d="M2550.8,541.3c28.4,0,51.5,20.1,51.5,45c0,12.7-6,24.2-15.7,32.3c11.7,9.8,23.2,8.9,23.2,8.9
	c-10.8,8.4-28.3,4.2-39.1,0.2c-6.1,2.2-12.8,3.5-19.9,3.5c-28.4,0-51.5-20.1-51.5-45S2522.3,541.3,2550.8,541.3z"/>
<g>
	<path class="st16" d="M2523.3,574.2h51.4c2.3,0,2.3,3.5,0,3.5h-51.4C2521,577.7,2521,574.2,2523.3,574.2z M2522.6,596.9h30.5
		c1.4,0,1.4,3.5,0,3.5h-30.5C2521.3,600.4,2521.3,596.9,2522.6,596.9z M2523.3,585.6h51.4c2.3,0,2.3,3.5,0,3.5h-51.4
		C2521,589.1,2521,585.6,2523.3,585.6z"/>
	<path class="st16" d="M2487.4,638.8h51.4c2.3,0,2.3,3.5,0,3.5h-51.4C2485.1,642.3,2485.1,638.8,2487.4,638.8z M2486.7,661.5h30.5
		c1.4,0,1.4,3.5,0,3.5h-30.5C2485.3,665,2485.3,661.5,2486.7,661.5z M2487.4,650.2h51.4c2.3,0,2.3,3.5,0,3.5h-51.4
		C2485.1,653.7,2485.1,650.2,2487.4,650.2z"/>
</g>
<g>
	<g>
		<path d="M1158.7-1025.7h-0.2c-2.6,0-4.7,2.1-4.7,4.7c0,2.6,2.1,4.7,4.7,4.7h0.2c2.6,0,4.7-2.1,4.7-4.7
			C1163.4-1023.6,1161.3-1025.7,1158.7-1025.7z"/>
	</g>
</g>
<path class="st15" d="M2023.7,601h72.1c2.5,0,4.6,2.1,4.6,4.6v25.9h-11v-17.8c0-1.5-1.2-2.8-2.8-2.8h-53.8c-1.5,0-2.8,1.3-2.8,2.8
	v17.8h-10.9v-25.9C2019.1,603.1,2021.2,601,2023.7,601L2023.7,601L2023.7,601z"/>
<path class="st17" d="M2092.8,631.5h-3.4v-17.8c0-1.5-1.2-2.8-2.8-2.8h-53.9c-1.5,0-2.8,1.3-2.8,2.8v17.8h-3.4v-19.8
	c0-2.2,1.7-4.1,3.7-4.1h58.7c2.1,0,3.7,1.8,3.7,4.1L2092.8,631.5L2092.8,631.5z"/>
<path class="st13" d="M1970.8,627.1h177.9c4.1,0,7.4,3.3,7.4,7.4V750c0,4-3.3,7.4-7.4,7.4h-21.3v1.4c0,1.4-1.1,2.5-2.5,2.5h-20.1
	c-1.4,0-2.5-1.1-2.5-2.5v-1.4h-85v1.4c0,1.4-1.1,2.5-2.5,2.5h-20.1c-1.4,0-2.5-1.1-2.5-2.5v-1.4h-21.3c-4,0-7.4-3.3-7.4-7.4V634.5
	C1963.4,630.4,1966.7,627.1,1970.8,627.1z"/>
<path class="st14" d="M2155.8,752.2c-0.9,3-3.8,5.2-7,5.2h-21.3v1.4c0,1.4-1.1,2.5-2.5,2.5h-20.1c-1.4,0-2.5-1.1-2.5-2.5v-1.4h-85
	v1.4c0,1.4-1.1,2.5-2.5,2.5h-20.1c-1.4,0-2.5-1.1-2.5-2.5v-1.4h-21.3c-3.3,0-6.1-2.2-7-5.2H2155.8z"/>
<circle class="st16" cx="2139.7" cy="747.8" r="44.3"/>
<path class="st17" d="M2139.7,708.2c21.8,0,39.6,17.7,39.6,39.6s-17.7,39.6-39.6,39.6s-39.6-17.7-39.6-39.6
	S2117.8,708.2,2139.7,708.2z"/>
<path class="st15" d="M2139.7,708.2c15.7,0,29.2,9.1,35.6,22.3c1,3.6,1.5,7.4,1.5,11.2c0,23.9-19.3,43.2-43.2,43.2
	c-3.6,0-7-0.4-10.3-1.2c-13.6-6.2-23.1-20-23.1-36C2100.1,725.9,2117.8,708.2,2139.7,708.2z"/>
<path class="st16" d="M2164.4,716.9c7.4,5.9,12.6,14.4,14.2,24c-0.1-0.2-0.2-0.4-0.4-0.8c-0.8,0.3-0.8,0.3-1.7,0.4l0,0.1
	c-0.4,0.5,0,0.3-0.6,0.8c-0.8,0.6-1.3,1.5-2.1,2c-0.1,0.9,0.1,1.1-0.2,2.2c-0.1,0.4-0.5,1.5-1.1,1.4c-0.2,0-0.9-1.8-1-2.2
	c-0.3-0.8-0.6-1.4-0.8-2.3c-0.1-0.5-0.2-1.4-0.3-1.8c-0.5,0.1-0.5,0.4-1,0.1c-0.4-0.3-0.2-0.4-0.4-0.8c-0.4-0.4-0.9-0.8-1.3-1.2
	c-0.3-0.1-1.7,0.1-2.2,0c-1-0.1-1.1,0-1.7-0.8c-1.1,0.1-1,0.4-2-0.4c-0.7-0.6-0.5-1.5-1.5-1c0,0.8,0.4,1,0.7,1.4
	c0.3,0.3,0.6,0.5,0.7,0.9c0,0,0.1,0.4,0.1,0.4c0.9,0.1,1.2-0.4,1.7-0.8c0.5,0.5,0,0.6,0.7,0.9c0.6,0.3,0.5,0.1,0.8,0.6
	c0.2,0.6-1.3,2.4-1.8,2.7c-0.4,0.2-0.6,0.1-0.9,0.4c-0.5,0.4,0.1,0.4-0.8,0.7c-0.9,0.3-1.9,1.1-2.9,1.1c-0.2-0.6-0.4-1.2-0.6-1.8
	c-0.6-2-0.6-1.2-1.3-2.3c-0.3-0.5-0.2-0.8-0.4-1.2c-0.1-0.3-0.4-0.4-0.5-0.8c-0.3-0.6-0.6-1.5-1.3-1.4c-0.1,0.5,0.6,2,0.8,2.4
	c0.2,0.4,0.5,0.5,0.6,1.1c0.1,0.7,0,0.6,0.4,1.1c0.8,1,0,0.8,1.3,1.8c1,0.8,0.7,1,1.2,2c0.6,0.2,2.6-0.7,2.9-0.4
	c0.4,0.7-0.5,1.8-0.7,2.4c-0.7,2-1.9,2-2.9,3.6c-0.5,0.8-0.8,1-1.2,2c-0.5,1.1,1.1,4.3,0.1,5.6c-0.2,0.3-0.9,0.5-1.8,1.4
	c-0.9,1,0,0.8-0.3,2.5c-0.3,0.4-0.6,0.4-1,0.7c-0.1,0.4,0,0.7-0.2,1.2c-0.2,0.6-0.3,0.3-0.6,0.8c-0.2,0.4-0.2,0.5-0.5,0.9
	c-0.2,0.3-0.4,0.4-0.6,0.6c-1.1,1-3.5,1-3.7,0.9c-0.6-0.5-0.2-0.6-0.3-1.3c-0.1-0.6-0.4-1.1-0.7-1.5l0,0c-0.1-0.2-0.2-0.4-0.3-0.6
	c-0.5-1.4-0.3-2.5-1.1-4c-1-1.9,0.6-2.9,0.5-3.9c0-0.3-0.1-0.5-0.2-0.7c-0.2-1.2-0.3-2.2-1.1-3.2c-0.9-1-0.7-0.6-0.5-2.3
	c0.4-1.9-0.5-1.4-1.6-1.5c-0.6-1.7-1.6-0.9-2.7-0.4c-0.7,0.3-0.9-0.1-1.7,0c-1.7,0.2-0.4,1-2.7-0.9c-1-0.8-0.3-0.4-0.9-1.3
	c-0.2-0.3-0.8-0.8-1-1.1c-0.9-1.1,0.2-2.2,0-3.5c-0.3-2.3-0.6-0.3,0.7-3.1c0.7-1.5,1.7-1.5,2-2.2c0.2-0.6,0.1-1,0.5-1.6
	c0.4-0.4,0.9-0.4,1.1-1.1c0.3-0.9-0.3-1-0.9-1c-0.3-0.9-0.3-0.7-0.1-1.5c0.1-0.5,0-0.7,0.1-1.2c0.3-1.2,2.2,0,2.8-0.5
	c0.3-0.5,0.3-1,0-1.5c-0.3-0.5-0.7-0.4-0.9-0.9c0.5-0.3,0.1,0,0.5-0.1c0.5-0.1,0.4-0.3,1-0.4c0.5-0.1,0.8-0.6,1.4-0.9
	c0.7-0.5,0.4-0.9,1.3-1c1.4-0.2,0.5-0.2,0.6-1.5c0.2-0.1,0.4-0.2,0.6-0.3c0.4,0.6-0.1,0.3,0.4,0.7c0.1-0.1,0.3-0.2,0.5-0.2
	c-0.1-0.6-0.4-0.5-0.6-1.3c-0.7,0.1-0.9,0.7-1.5,0.5c-0.5-0.2-0.6-1-0.5-1.6c0.2-0.5,1.2-0.7,1.6-0.9c0.6-0.2,0.5-0.6,1.1-1.2
	c0.8-0.8,0.2,0,0.6-1c0.8,0,0.4-0.1,0.9-0.3l0,0l0.1,0c0.3-0.1,0.7-0.2,1.1-0.3c1.4-0.5,2-0.2,3,0.2c0.8,0.3,3.2,0.3,3.3,1.3
	c-0.6,0.6-1.1,0.2-1.9,0.2c0.2,0.8,0.2,0.8,0.9,1c0.1-0.4-0.1-0.2,0.1-0.5c0.2,0.1,0.5,0.1,0.7,0.1c0.2-0.8,0.5-0.7,1.3-0.8
	c-0.1-0.5-0.3-0.4,0-0.8c0.8,0.1,0.2,0,0.5,0.6c0.6-0.1,1.1-0.7,1.9-0.8c0.5-0.1,0.5,0.1,1.1,0.1c0.6-0.1,0.5-0.3,1.1,0
	c0.2-0.4,0-0.4,0.5-0.5c0.8-0.1,1.4,0.3,2.2,0.4c-0.5-0.7-1.1-0.5-0.4-1.7c0.8-0.2,0.9-0.1,1.3,0.6
	C2164.2,717.1,2164.3,716.9,2164.4,716.9L2164.4,716.9L2164.4,716.9L2164.4,716.9z M2101,739.2c1.8-8.1,6-15.3,12-20.7
	c0.5,0.2,1.1,0.1,1.5,0c0.2-0.3,0.3-0.6,0.6-0.7c0.1,0,0.3-0.1,0.4,0c0,0.2,0.1,0.3,0.1,0.5c0,0,0,0.1,0,0.1c0,0,0,0.1,0,0.1
	c0.8-0.5,0.1-0.5,0.6-1.3c-0.7-0.1-0.6-0.1-1-0.5c0.4-0.4,1.2-0.6,1.8-0.6c0,0.4-0.2,0.4-0.1,0.7c0.5-0.3,0.8-1,1.5-0.9
	c0.1,0.1,0.3,0.2,0.5,0.3c-0.4,0.4-0.9,0.4-1.4,0.6c-0.2,2.2,0.7,0.4,0.4,1.9c0.5,0,1.1-0.4,1.3-0.8c-0.2-0.3-0.5-0.3-0.7-0.6
	c0.1-0.4,0.4-0.7,0.8-0.9c0.3-0.1,0.6-0.2,0.9-0.2c4,0,2.1,0.2,3.4,0.8c0.3,0.1,0.8,0.2,0.9,0.4c0.3,0.4,0,0.8,0.4,1.1
	c0.4,0.3,0.4,0,0.9,0.6c-0.1,0.3-0.3,0.7-0.8,0.7c-0.7,0-0.3-0.5-1-0.4c0,0.7,0.7,1,0.1,1.3c-0.6,0.3-0.2-0.1-0.6,0.1
	c0,0-0.1,0-0.1,0c0,0-0.1,0.1-0.1,0.1c-0.1,0.1-0.1,0.2-0.2,0.2c-1-0.3-0.8-0.2-1.4-0.8c-0.2-0.3-0.3-0.3-0.7-0.3
	c-0.3,0-0.6,0.1-0.8-0.1c0.5-0.6,0.7,0,1.5-0.4c0.1-0.1,0.9-0.7,1.1-0.8c-0.2-0.5,0-0.1-0.3-0.4c-0.7-0.7-0.9-0.5-1.9-0.5
	c-0.5,0.5-0.8,1.2-1.3,1.4c-0.3,0.2-0.6,0.2-1.1,0c0.2,0.9,0.8,0.2,0.8,1.3c-0.4-0.1-0.6-0.3-0.9-0.1c-0.8,0.3-0.1,0.3,0,0.4
	c0,0,0.4,0.1,0,0.2c-0.4,0.2-0.1-0.1-0.9-0.6c0.1-0.2,0.2-0.4,0.3-0.6c-0.7,0.2-1.5,0.5-2.3,0.9c-0.9,0.4-1.7,0.9-2.2,1.4
	c0,0.8,0.1,0.3,0.2,1.2c1.2,0.1,0.8,0.4,2,0.8c0.2,0.1,0.5,0.1,0.9,0.2c0,0.6-0.5,1-0.2,1.6c0.8,0.6,0.8-0.5,1.1-1.3
	c2.8-0.6,1.4-1.4,2.2-2.9c0.1-0.2,0.3-0.5,0.5-0.7c0.2,0,1.1,0.1,1.3,0.1c0.6,0.1,0.3,0.3,1,0.6c0,0.5-0.3,1.3,0.5,1.1
	c0.6-0.1,0.5-0.6,1.2-0.7c0.3,0.8,0.3,1.1,0.4,2.1c1.8,0.7,1,1.3,0.7,2.6c0.2,0.1,0.5,0.2,0.7,0.3c0,0.4,0,0.8,0,1.1
	c0,0-1.9-0.4-2.1-0.5c0.3-0.8,0.8-0.8,1.2-1.7c-0.7,0.1-0.6,0.3-1.1,0.5c-0.4,0.1-0.8,0-1.3,0.1c-0.2,0.5,0-0.5,0,0.2
	c0,0.3,0.2,0,0,0.3c-0.6-0.3-0.4-1-1.6-0.3c0.3,0.1,0.5,0.2,0.8,0.3c0,0.8-0.1,0.2-0.3,0.7c-0.4,1.3,1.1,0.5,1.5,0.4
	c-0.1,0.7-0.5,0.7-1.1,0.9c-0.7,0.2-0.9,0.5-1.4,0.6c0-0.8-0.1-0.1,0.2-0.7c-0.5,0.1-0.9,0.3-1.4,0.5l-0.1,0
	c-0.7,0.3-0.7,0.3-0.8,1.1c-0.6,0.2-1.2,0.4-1.6,0.8c-0.4,0.4-0.8,0.7-1.2,1.1c0,0-0.1,0.1-0.1,0.1c0.1,1,0,1.1-0.6,1.5
	c-0.5,0.3-0.7,0.3-1.2,0.8c-1.6,1.4-0.8,0.8-0.7,3.2c-0.3-0.1-0.6-0.2-0.9-0.3c-0.2-1.6,0.1-1.1-1.2-1.5c-1.4-0.4-1.2,0.3-1.8,0.4
	c-0.6,0.1-1-0.6-1.9,0c-0.5,0.4-1,0.6-1.1,1.2c-0.2,0.8-0.5,1.3-0.4,2.2c0.1,2.3,2.2,2.4,2.7,1.3c0.4-0.7,0.3-1.1,1.4-0.9
	c0.1,0.6-0.1,1.1-0.2,1.5c-0.1,0.3-0.4,0.8-0.2,1.1c0.8,0.3,0.8-0.3,1.9,0.4c0.1,1.1-0.5,2.3,0.3,2.9c0.6,0.5,0.7,0.1,1.3-0.1
	c0.6-0.1,0.5,0.3,1.1,0.4c0.3-0.4,0.2-0.2,0.4-0.6c0.4-0.9,0.5-0.5,1.4-1c0.1-0.1,0.2-0.1,0.3-0.2c0.1,0.2,0.2,0.4,0.3,0.6
	c0.7-0.8,0.7,0,1.5,0.2c0.3,0.1,0.6,0.1,0.7,0.1c0.6,0,0.6-0.3,1.4,0c0.1,0,0.2,0.1,0.3,0.1c0,0,0.1,0,0.1,0c0,0,0.1,0,0.1,0.1
	c0.1,0.1,0.1,0.3,0.2,0.4c0.5,0.5,1,1,1.5,1.5c1,0.4,1-0.3,2.1,0.8c0.5,0.5,0.3,0.4,0.5,1c0,0.1,0.1,0.2,0.2,0.3
	c0.1,0.3,0.2,0.5,0.3,0.8c0.5,0.7,1.2,0.3,1.9,1c0.4,0.4,0.1,0.3,1,0.4c1.4,0.2,0.9,0.1,2,0.9c0.4,0.3,0.5,0.1,0.9,0.4
	c0.5,0.8,0.4,1.6-0.1,2.3c-1.4,2-0.9,1.7-1,3.3c-0.1,0.9-0.3,2.9-1.2,3.1c-3.2,0.9-1.3,1.5-2.2,3.1c-0.2,0.4-0.4,0.6-0.6,0.9
	c-0.6,1.5-0.2,2-2.1,1.6c0.2,0.3,0.1,0.1,0.2,0.4c0.6,0.9,0.6,1.5-0.5,1.7c-0.9,0.2-0.5,0-0.6,1.1c-0.4,0.2-0.5,0-0.8,0.2
	c0.3,0.6,0,0.1,0.6,0.4c-0.1,0.3-0.2,0.7-0.3,1c-0.2,0.8-0.3,0.1-0.4,1c0.3,0.2,0.6,0.1,0.8,0.5c0,0.3-0.3,1.1-0.4,1.6
	c0.5,0.7,0.8,1.4,1.8,1.5c0,0.6,0.1,0.5-0.4,0.6c-0.4,0.1-1.3-0.3-1.7-0.5c-0.7-0.4-1.3-0.8-1.7-1.5c-0.3-0.4-0.2-0.2-0.4-0.5
	c-0.5-0.6-0.3-0.9-0.4-1.3c-0.1-0.2-0.5-0.5-0.3-1.3c0-0.2,0.4-1.3,0-1.1c-0.4,0.2,0.3,0.1-0.3,0.4c-0.1-0.4-0.3-1-0.3-1.4
	c-0.2-0.8-0.3-0.8-0.4-1.3c-0.2-1.1,0.3-1.2-0.2-3.1c-0.3-1.2-0.2-4.2-0.6-5.7c-0.1-0.2-0.1-0.4-0.2-0.6c-0.3-0.6-1.2-0.8-1.8-1.3
	c0,0-0.1,0-0.1,0c-0.9-0.6-1.8-3.2-2.5-4.1c-0.3-0.5-0.6-0.3-0.7-1c-0.2-0.7,0.1-0.5,0.3-1.1c-1.1-2.1,1.5-2,0.9-4.5
	c-0.1-0.5-0.4-1.1-0.7-1.3c-0.5,0.2-0.3,0.4-0.6,0.8c-0.4-0.2-0.9-0.5-1.3-0.7c-1.3-1.3-0.6-0.3-1-1.2c-0.8-1.7-1.5-0.8-2.5-1.6
	c-0.4-0.4-0.5-0.9-1.2-0.8c-1.1,0.1-0.5,0.3-1.6-0.2c-0.9-0.4-1.9-0.9-2.5-1.5C2101.6,740.3,2102,740.4,2101,739.2L2101,739.2z
	 M2113.4,718.2c0.2-0.2,0.5-0.4,0.7-0.6l0,0c0.1,0.1,0.1,0.1,0.1,0.3C2113.7,718,2113.7,718.1,2113.4,718.2L2113.4,718.2
	L2113.4,718.2z M2147.3,729.9c0.3,0.2,0.8,0.4,1,0.6c0.3,0.9-0.1,0.5,0.6,1.4c0.4,0.5,0.3,0.9,0.7,1.2c0.7-0.1,0.1,0.1,0.5-0.3
	c0.1-0.1,0.3-0.3,0.4-0.4c-0.2-0.3-0.4-0.4-0.6-0.7c0.8-1,1.1-0.4,1.3,0.2c0.5,1.9,1.3,1.4,1.9,1.3c0.6-0.1,0.1,0,0.7,0.2
	c0.6,0.1,0.3,0,0.7-0.1c1.3-0.3,0.3,2.3,0.2,2.5c-0.7,0.1-0.6-0.1-1.1-0.1c-1.1-0.1,0.1,0.6-2.4-0.2c-2.4-0.8-1.9-0.9-2.4,0.7
	c-0.5,0-0.5-0.1-1-0.3c-0.2-0.1-0.3-0.1-0.4-0.1l0,0c-0.2-0.1,0,0-0.4-0.4c-0.4-0.3-1.3-0.4-1.9-0.8c0-0.5,0.5-1-0.1-1.7
	c-0.2-0.1-2.9,0.1-3.3,0.2c-0.9,0.2-1,0.9-2.2,0.8c-0.7-0.1-0.4,0-0.6-0.4c0.2-0.2,0-0.1,0.4-0.2c0.1-0.1,0.2,0,0.3-0.1
	c1.9-0.3,0.9-1.3,2.2-2.2c1-0.8,0.2,0,0.8-1c0.7-0.1,0.6,0.3,1.2,0c0.5-0.2,0.3-0.5,1-0.5c0.6,0.6,0.5,1,1.5,1.4
	c0.4,0.2,0.6,0.3,0.9,0.6c0.5,0.6,0.1,0.4,0.2,0.9c0,0,0.1,0,0.1-0.1l0,0c0.5-0.3-0.3-0.3,0.6-1.1c-0.3-0.2-0.4-0.3-0.6-0.4l0,0
	c-0.7-0.4-0.4,0-1.3-1.1c-0.2-0.3-0.3-0.3-0.3-0.8c0.6-0.1,0.7,0.3,1.3,0.8C2147.1,729.8,2147.2,729.8,2147.3,729.9L2147.3,729.9
	L2147.3,729.9L2147.3,729.9z M2160.8,757.2c-0.6,0.3-0.6,0.9-1.1,1.3c-0.5,0.4-1.1,0.2-1.2,1c-0.2,1,0.4,0.7-0.3,1.9
	c-0.2,0.5-0.3,1.6,0.1,2c1.1,1.1,1.7-1.6,1.9-2.5c0.2-0.6,0.4-1.3,0.6-1.8C2161.1,758.5,2161.3,758,2160.8,757.2L2160.8,757.2
	L2160.8,757.2z M2159,728.9c0.1,1.2,0.8,1.7,1.3,2.3c-0.1,0.6-0.2,0.4-0.2,1.3c0.6,0.4,1.1,0.7,1.9,0.5c0.1-1-0.2-0.9-0.5-1.6
	c0.1-0.1,0.2-0.2,0.2-0.2c0.2-0.3,0.1,0.1,0.2-0.4c-0.6-0.2-1.6-0.8-1.6-1.6c0.3-0.2,0.2-0.1,0.4-0.2c0.5-0.3,0.1,0.2,0.4-0.4
	c-0.2-0.5-0.5-0.5-1.1-0.3C2159.8,728.3,2159.1,728.8,2159,728.9L2159,728.9L2159,728.9L2159,728.9z M2153.8,729.3
	c-0.4-0.5-0.4-0.8-1.1-0.8c-0.3,0.3-0.7,0.8-0.8,1.3c-0.3,0.8-0.1,0.2-0.1,1c0,0,0,0.1,0,0.1c0,0.5-0.1-0.1-0.1,0.4
	c0.6-0.1,0.1-0.1,0.6-0.3c0.4-0.1,1.7-0.5,2.1-0.4c0.9,0.2,1.6,0.9,2.6,0.2c-0.1-0.9-1.1-1.2-1.8-1.6c0-0.8,0.3-0.2,0.2-1
	c-0.3,0-0.4-0.1-0.6,0.1c-0.6,0.3-0.3,0.3-0.3,0.4c0,0.4,0.6-0.1,0,0.4C2154.3,729.2,2154,729.2,2153.8,729.3L2153.8,729.3
	L2153.8,729.3L2153.8,729.3z M2139,723.1c0,1.4,0.5,0.9,0.9,1.6c-0.2,0.6-0.3,0.1-0.5,0.7c-0.2,0.5,0.1,0.1-0.1,1
	c0.4,0,0.9-0.1,1.4-0.2c0.7-0.1,0.7-0.1,0.9-0.8c-0.4-0.5-0.8-0.9-1.2-1.4c-0.5-0.8,0-0.2-0.2-0.9c-0.1-0.2-0.2-0.4-0.3-0.7
	C2139.4,722.8,2139.5,722.7,2139,723.1L2139,723.1L2139,723.1z"/>
<path class="st18" d="M665.6-414.9l-0.5-1.2L785.2-529l164.8-3.1l0.5,1.2L832.1-414L665.6-414.9L665.6-414.9z"/>
<path class="st19" d="M732.7-288l-8.1,51.7c-0.1,0.8,2.7,2,4.1,0.3c1.8,2.1,4.1,1.3,4.8-0.2c0.9,1.5,3,2.3,4.5,0.1
	c1.4,1.7,4.4,0.5,4.2-0.9l-8-51C734-288.8,732.8-288.6,732.7-288L732.7-288z"/>
<path class="st20" d="M665.1-416.1l119.4-114.5l165.5-1.5L830.6-417.6L665.1-416.1L665.1-416.1z"/>
<path class="st16" d="M808.3-475.1c0.8-0.6,1.9-0.5,2.5,0.3c0.6,0.8,0.5,1.9-0.3,2.5l-80.4,64.9l5,119.5c0.4,0.9-0.1,1.9-1,2.3
	c-0.9,0.4-1.9-0.1-2.3-1l-5.4-120.7c-0.3-0.7-0.1-1.5,0.5-2L808.3-475.1L808.3-475.1z"/>
<path class="st21" d="M733.5-296.1c4.4,0,8,3.6,8,8c0,4.4-3.6,8-8,8s-8-3.6-8-8C725.5-292.5,729-296.1,733.5-296.1z"/>
<path class="st22" d="M739.9-290.1c0,3.3-2.1,6.2-5.1,7.3c-0.8,0.3-1.7,0.5-2.6,0.5c0,0-0.1,0-0.1,0c-2.6-0.1-4.9-1.4-6.3-3.5
	c0.8,2.8,3.1,5,6,5.6c0.6,0.1,1.1,0.2,1.7,0.2c0.6,0,1.2-0.1,1.8-0.2c3.6-0.8,6.2-4,6.2-7.8c0-2.3-1-4.3-2.5-5.8
	C739.6-292.8,739.9-291.5,739.9-290.1L739.9-290.1z"/>
<g>
	<path class="st23" d="M733.4-1013.8c81.8,0,148.2,66.3,148.2,148.2c0,81.8-66.3,148.2-148.2,148.2c-81.8,0-148.2-66.3-148.2-148.2
		S651.6-1013.8,733.4-1013.8z"/>
	<path class="st24" d="M851.9-954.6c18.6,24.8,29.7,55.6,29.7,89c0,81.8-66.3,148.2-148.2,148.2c-81.8,0-148.2-66.3-148.2-148.2
		c0-12.7,1.6-25.1,4.6-36.9c-1.2,7.4-1.8,15.1-1.8,22.8c0,78.7,63.8,142.6,142.6,142.6c78.7,0,142.6-63.8,142.6-142.6
		C873.2-907.1,865.4-932.8,851.9-954.6L851.9-954.6z"/>
	<path class="st16" d="M826-981.3c27.6,22.1,47.1,53.8,53.4,90c-0.4-0.7-0.9-1.6-1.4-2.9c-2.9,0.9-3,1-6.4,1.6l-0.1,0.2
		c-1.4,1.9,0.1,1.1-2.3,3.1c-2.8,2.4-4.7,5.7-7.9,7.6c-0.4,3.4,0.3,4.1-0.6,8.2c-0.3,1.5-2,5.5-3.9,5.2c-0.6-0.1-3.2-6.6-3.8-8.4
		c-1-3-2.2-5.3-3-8.8c-0.4-1.9-0.7-5.4-1.1-6.7c-2,0.3-1.9,1.6-3.9,0.2c-1.4-1-0.8-1.6-1.5-3.1c-1.6-1.5-3.3-3-4.9-4.6
		c-1.3-0.4-6.2,0.3-8.3,0.1c-3.8-0.3-4.1-0.1-6.3-3.1c-3.9,0.2-3.6,1.7-7.5-1.6c-2.5-2.1-2-5.5-5.7-3.6c-0.1,3.1,1.4,3.8,2.8,5.2
		c1,1.1,2.2,1.9,2.7,3.3c0.1,0,0.3,1.4,0.3,1.6c3.6,0.2,4.4-1.5,6.4-2.9c1.9,1.8,0,2.1,2.8,3.5c2.2,1.1,1.8,0.5,3.2,2.2
		c0.7,2.4-4.9,8.9-6.7,10.1c-1.4,0.9-2.2,0.4-3.5,1.4c-1.9,1.6,0.2,1.4-3.1,2.6c-3.6,1.3-7.1,4-10.8,4.3c-0.8-2.2-1.6-4.4-2.4-6.7
		c-2.4-7.6-2.3-4.7-4.7-8.6c-1.1-1.7-0.7-2.8-1.4-4.3c-0.5-1.1-1.3-1.6-2-3c-1.1-2.2-2.4-5.5-4.9-5.2c-0.5,1.7,2.3,7.5,3,8.9
		c0.7,1.4,1.8,2,2.2,4c0.5,2.8-0.1,2.4,1.4,4.3c3.2,3.8-0.1,3.2,4.8,6.9c3.7,2.8,2.8,3.6,4.3,7.4c2.4,0.7,9.6-2.5,10.9-1.6
		c1.5,2.6-1.7,6.8-2.5,9.1c-2.7,7.6-7.3,7.5-10.9,13.4c-1.9,3.2-2.8,3.6-4.6,7.4c-2,4.3,4.1,16.2,0.4,21.2c-0.8,1.1-3.4,1.8-6.7,5.3
		c-3.5,3.8,0.1,3.1-1.2,9.4c-1,1.4-2.3,1.5-3.6,2.5c-0.5,1.5-0.1,2.7-0.9,4.5c-0.9,2.2-1,1-2.2,2.8c-0.9,1.4-0.8,2-1.8,3.3
		c-0.9,1.2-1.4,1.5-2.2,2.3c-4.1,3.8-13,3.9-13.8,3.4c-2.1-1.8-0.7-2.2-1.2-4.7c-0.5-2.2-1.7-4.1-2.7-5.8l-0.1-0.2
		c-0.5-0.8-0.9-1.6-1.1-2.4c-1.7-5.4-1.1-9.5-4.1-15c-3.8-7.1,2.1-10.8,1.8-14.7c-0.1-1.1-0.5-1.7-0.6-2.5
		c-0.7-4.4-1.1-8.4-4.1-11.8c-3.2-3.8-2.8-2.4-1.8-8.6c1.3-7.1-1.7-5.3-6-5.5c-2.1-6.5-6.2-3.3-10.2-1.4c-2.6,1.2-3.5-0.3-6.4,0.1
		c-6.5,0.9-1.4,3.6-10-3.2c-3.6-2.8-1.2-1.4-3.3-5c-0.7-1.3-2.9-3-3.9-4.3c-3.3-4.1,0.6-8.2,0-13c-1-8.7-2.4-1.1,2.5-11.7
		c2.6-5.6,6.5-5.7,7.4-8.2c0.9-2.2,0.3-3.8,1.9-5.9c1.4-1.7,3.5-1.3,4.3-4c1.1-3.2-1-3.6-3.4-3.7c-1-3.4-1-2.5-0.2-5.7
		c0.4-1.7,0-2.6,0.4-4.3c0.9-4.4,8.4,0,10.5-1.8c1-1.9,1.1-3.7,0-5.5c-1.2-1.8-2.8-1.6-3.6-3.3c1.8-1.2,0.5-0.2,2-0.5
		c1.8-0.4,1.6-0.9,3.8-1.4c1.9-0.4,3.2-2.2,5.1-3.4c2.7-1.7,1.4-3.3,4.7-3.8c5.3-0.9,1.8-0.8,2.4-5.7c0.8-0.3,1.6-0.6,2.3-1
		c1.7,2.2-0.4,1.3,1.6,2.7c0.5-0.3,1.1-0.6,1.7-0.9c-0.3-2.4-1.4-1.9-2.1-4.8c-2.6,0.4-3.6,2.6-5.6,1.8c-2-0.8-2.1-3.7-2-6.1
		c0.8-1.8,4.6-2.8,6-3.3c2.4-0.8,2-2.4,4.2-4.6c2.8-2.9,0.8,0,2.1-3.6c3.1-0.1,1.7-0.2,3.5-1.2l0.1,0l0.2-0.1
		c1.1-0.5,2.5-0.6,3.9-1.1c5.2-1.7,7.3-0.9,11.1,0.7c2.9,1.2,11.8,1.3,12.5,5c-2.1,2.2-4.2,0.6-7.3,0.8c0.6,2.9,0.8,2.9,3.4,3.7
		c0.4-1.4-0.2-0.8,0.5-1.7c0.9,0.2,1.7,0.3,2.6,0.5c0.9-2.9,1.9-2.5,4.7-2.8c-0.5-2-1-1.4,0.1-3c3,0.3,0.6,0,2,2.4
		c2.1-0.3,4.1-2.6,7-2.9c1.8-0.2,1.7,0.5,4.3,0.2c2.1-0.2,2-1,4.1-0.1c0.8-1.4,0-1.4,1.9-1.7c2.8-0.5,5.3,1.3,8.1,1.6
		c-2-2.5-4-2-1.5-6.2c3.2-0.6,3.5-0.2,4.8,2.2C825.2-980.6,825.6-981.1,826-981.3L826-981.3z M588.7-897.5L588.7-897.5
		c6.7-30.4,22.7-57.3,44.8-77.5c1.7,0.6,4,0.2,5.7,0.1c0.6-1.1,1-2.1,2.1-2.5c0.4-0.2,1-0.2,1.7-0.2c0.1,0.6,0.2,1.1,0.4,1.7
		c0,0,0.1,0.4,0.1,0.3c0-0.1,0.1,0.2,0.1,0.3c3-1.7,0.5-1.8,2.1-4.9c-2.5-0.5-2.2-0.2-3.8-1.8c1.5-1.7,4.5-2.2,6.6-2.1
		c-0.1,1.5-0.9,1.5-0.3,2.8c1.7-1.1,2.9-3.9,5.6-3.4c0.5,0.4,1.1,0.7,1.7,1.1c-1.4,1.3-3.6,1.4-5.4,2.2c-0.8,8.2,2.6,1.3,1.5,7
		c2-0.2,4-1.6,4.8-3.2c-0.8-1-1.8-1-2.5-2.2c0.5-1.5,1.5-2.7,2.9-3.4c1-0.5,2.1-0.7,3.5-0.7c15.1,0.1,7.9,0.8,12.6,2.9
		c1,0.5,2.9,0.7,3.5,1.6c0.9,1.4,0,2.8,1.6,3.9c1.3,1,1.5,0,3.3,2.2c-0.4,1.3-1.3,2.5-3.1,2.6c-2.6,0-1-1.7-3.8-1.4
		c0,2.6,2.6,3.6,0.2,5c-2.1,1.3-0.8-0.5-2.3,0.4c0,0-0.2,0.1-0.2,0.2c-0.1,0.1-0.2,0.2-0.2,0.3c-0.3,0.3-0.5,0.6-0.8,0.8
		c-3.8-1-3.1-0.6-5.4-3.1c-0.9-1-1-1.2-2.5-1.1c-0.9,0-2.2,0.4-3.1-0.4c1.9-2.3,2.8-0.1,5.5-1.4c0.5-0.2,3.5-2.5,3.9-3.1
		c-0.8-1.8-0.1-0.3-1.3-1.5c-2.7-2.7-3.4-2-7-2c-1.7,1.9-3,4.3-4.8,5.4c-1.1,0.6-2.4,0.8-4.2,0c0.8,3.3,2.9,0.8,3.1,4.7
		c-1.4-0.3-2.1-1-3.5-0.5c-3,1.1-0.3,1-0.1,1.6c0,0,1.4,0.2,0,0.7c-1.6,0.6-0.2-0.3-3.3-2.1c0.4-0.8,0.9-1.6,1.3-2.4
		c-2.5,0.8-5.6,2-8.4,3.4c-3.3,1.6-6.4,3.5-8.2,5.2c0,2.8,0.5,1,0.8,4.3c4.4,0.3,3,1.6,7.4,2.9c0.8,0.2,1.9,0.5,3.3,0.7
		c0,2.1-1.9,3.7-0.6,5.9c3.1,2.2,3.2-2.1,3.9-4.7c10.4-2.2,5.4-5.3,8.1-11c0.4-0.9,1-1.8,1.8-2.8c0.8,0,4.1,0.4,4.8,0.5
		c2.4,0.4,1.1,1,3.7,2.1c-0.1,2.1-1.1,4.7,1.9,4.2c2.3-0.4,1.8-2.2,4.6-2.7c1.3,3,0.9,4.3,1.5,7.9c6.8,2.7,3.8,4.8,2.5,9.8
		c0.9,0.4,1.8,0.8,2.7,1.2c0,1.4-0.1,2.9-0.1,4.3c-0.1,0-7.3-1.6-7.8-1.7c1.1-3.1,3.1-3.2,4.4-6.3c-2.6,0.5-2.4,1.3-4.2,1.8
		c-1.7,0.5-2.9,0.2-4.7,0.4c-0.6,2.1,0-1.8,0.1,0.8c0.1,1,0.6,0-0.1,1.1c-2.4-1.1-1.6-3.7-6-1.3c1,0.5,2,0.9,3,1.3
		c-0.1,2.9-0.4,0.7-1,2.7c-1.5,5,4.1,1.9,5.6,1.6c-0.4,2.6-2,2.6-4.3,3.3c-2.5,0.8-3.3,1.8-5.3,2.2c0-3.1-0.5-0.5,0.9-2.7
		c-2,0.2-3.5,1.1-5.4,1.9l-0.2,0.1c-2.4,1-2.8,1.1-3.1,4.3c-2.1,0.6-4.5,1.4-6,2.9c-1.5,1.4-2.9,2.8-4.4,4.2
		c-0.1,0.1-0.2,0.2-0.3,0.3c0.5,3.9,0,4-2.4,5.5c-2,1.3-2.7,1.3-4.5,2.9c-5.9,5.3-3.1,2.8-2.8,12c-1.2-0.4-2.4-0.8-3.6-1.2
		c-0.9-6.1,0.3-4.1-4.6-5.5c-5.3-1.5-4.6,1.1-6.7,1.5c-2.4,0.5-3.6-2.2-7.1,0.1c-1.9,1.3-3.8,2.2-4.3,4.6c-0.6,2.9-1.9,4.9-1.7,8.1
		c0.3,8.5,8.1,9,10.1,5.1c1.3-2.7,1-4.1,5.3-3.4c0.4,2.3-0.2,4-0.8,5.7c-0.4,1-1.4,2.9-0.9,4.3c3.1,1.3,3.2-1.1,7.3,1.3
		c0.3,4.1-1.8,8.6,1.3,11c2.4,1.8,2.6,0.2,4.7-0.2c2.4-0.4,1.9,1.1,4.1,1.4c1.2-1.5,0.7-0.6,1.5-2.4c1.4-3.2,1.8-1.7,5.2-3.7
		c0.3-0.2,0.6-0.4,0.9-0.6c0.4,0.8,0.8,1.6,1.2,2.3c2.5-2.9,2.8-0.1,5.6,0.7c1.2,0.3,2.1,0.5,2.8,0.5c2.1,0,2.3-1,5.1,0
		c0.3,0.2,0.8,0.3,1.1,0.4c0,0,0.2,0.1,0.2,0.2c0.1,0,0.2,0.1,0.2,0.2c0.5,0.5,0.5,1.1,0.9,1.6c1.9,1.9,3.9,3.7,5.8,5.5
		c3.7,1.5,3.7-1.3,8,2.8c1.8,1.7,1,1.7,2,3.9c0.1,0.3,0.4,0.7,0.6,1.1c0.4,1,0.8,2,1.2,3c1.9,2.5,4.6,1,7.3,3.6
		c1.6,1.5,0.4,1.1,3.8,1.7c5.4,0.9,3.3,0.4,7.4,3.5c1.6,1.1,1.9,0.5,3.4,1.5c2,2.8,1.5,5.9-0.2,8.4c-5.3,7.7-3.5,6.4-3.7,12.5
		c-0.2,3.5-1.2,10.7-4.5,11.6c-11.9,3.3-5,5.7-8.1,11.6c-0.9,1.7-1.6,2.1-2.1,3.4c-2.4,5.5-0.7,7.4-7.7,6.2c0.7,1.2,0.2,0.4,0.9,1.4
		c2.1,3.2,2.4,5.7-1.9,6.5c-3.6,0.7-2,0-2.4,3.9c-1.4,0.6-2,0-2.9,0.9c1.2,2.3,0.1,0.4,2.2,1.7c-0.4,1.3-0.7,2.5-1,3.7
		c-0.8,3-1,0.2-1.3,3.7c1.2,0.6,2.1,0.5,3.2,1.9c-0.1,1.1-1.3,4.3-1.6,6c1.8,2.6,3.2,5.4,6.9,5.7c0,2.2,0.5,2-1.4,2.4
		c-1.6,0.4-5-1.1-6.5-1.9c-2.5-1.3-4.7-3.1-6.4-5.6c-0.9-1.4-0.6-0.7-1.6-2.1c-1.8-2.3-1.1-3.4-1.6-4.9c-0.3-0.9-1.8-1.9-1.1-4.9
		c0.1-0.8,1.5-4.8-0.1-4.1c-1.6,0.6,1.2,0.4-1,1.4c-0.5-1.4-0.9-3.6-1.2-5.4c-0.6-3-1.3-3.1-1.6-4.9c-0.7-4.2,1.1-4.7-0.9-11.7
		c-1.3-4.7-0.8-15.7-2.2-21.3c-0.2-0.9-0.5-1.7-0.8-2.2c-1.3-2.1-4.4-3.1-6.9-4.8c-0.1,0-0.2-0.1-0.3-0.2c-3.5-2.4-6.7-12-9.5-15.5
		c-1.3-1.7-2.1-1-2.7-3.6c-0.6-2.5,0.3-2.1,1.1-4.1c-4.2-7.7,5.5-7.6,3.5-16.9c-0.4-1.7-1.7-4.1-2.7-4.9c-2,0.9-1,1.4-2.1,3
		c-1.6-0.9-3.2-1.8-4.8-2.7c-4.9-4.7-2.3-1.3-3.7-4.4c-2.9-6.5-5.7-2.8-9.3-6c-1.6-1.3-1.9-3.4-4.5-3c-3.9,0.5-1.8,1.1-5.8-0.8
		c-3.5-1.6-7.1-3.5-9.5-5.7c-0.1-3.4,1.1-3.6-1-6.8C589.5-896.5,589.1-897,588.7-897.5L588.7-897.5L588.7-897.5z M635.1-976.5
		L635.1-976.5c0.9-0.1,0.9-0.5,3.3-1.1c-0.2-0.8-0.3-0.8-0.5-1.1l-0.1-0.1C636.9-978.1,636-977.3,635.1-976.5L635.1-976.5z
		 M761.9-932.4L761.9-932.4L761.9-932.4c-0.4-0.3-0.8-0.5-1-0.8c-2.1-1.9-2.5-3.5-4.8-3.1c-0.1,1.8,0.2,1.8,1,3
		c3.2,4,2.2,2.7,4.7,4.1l0.1,0.1c0.6,0.3,1.3,0.8,2.2,1.5c-3.2,2.8-0.2,3.1-2.2,4.1l-0.1,0c-0.2,0.1-0.4,0.2-0.5,0.2
		c-0.7-1.7,0.8-0.9-0.9-3.3c-1-1.3-1.9-1.6-3.3-2.3c-3.7-1.7-3.2-3.1-5.5-5.4c-2.6,0.1-2,0.9-3.8,1.8c-2.2,1.1-1.8-0.2-4.4,0
		c-2.1,3.7,0.9,0.6-2.9,3.6c-4.6,3.5-0.8,7.2-8.1,8.3c-0.5,0.1-0.7,0-1.2,0.2c-1.4,0.5-0.6,0.1-1.4,0.9c0.6,1.4-0.2,1.2,2.2,1.6
		c4.5,0.6,5.1-2.2,8.4-2.9c1.6-0.3,11.7-0.8,12.4-0.6c2.2,2.4,0.4,4.1,0.4,6.2c2.4,1.3,5.7,1.6,7.1,2.8c1.6,1.5,0.8,1.3,1.6,1.5
		l0.1,0c0.3,0.1,0.7,0.2,1.4,0.5c1.9,0.6,1.8,1,3.8,1.2c1.9-6.2,0-5.5,8.9-2.7c9.3,3,5.1,0.3,9.1,0.7c1.9,0.2,1.4,0.8,4.1,0.5
		c0.5-1.1,4.4-10.7-0.6-9.5c-1.5,0.4-0.5,0.9-2.6,0.4c-2.2-0.6-0.1-1-2.5-0.6c-2.4,0.3-5.2,2.4-7.1-4.7c-0.7-2.6-2-4.8-4.9-0.9
		c0.8,1.3,1.3,1.4,2.1,2.7c-0.2,0.4-1,1.3-1.3,1.6c-1.6,1.6,0.7,0.8-1.9,1.2c-1.4-1.1-1.1-2.4-2.5-4.3c-2.4-3.5-0.9-1.9-2.1-5.3
		C764.9-931,763.3-931.6,761.9-932.4z M812.6-830.2L812.6-830.2c-2.1,1.1-2.4,3.5-3.9,4.9c-1.7,1.6-4,0.8-4.7,3.7
		c-0.9,3.6,1.4,2.5-1.1,7.2c-0.9,1.7-0.9,6.1,0.4,7.4c4.1,4,6.4-6.1,7.3-9.2c0.7-2.2,1.4-4.8,2.1-6.9
		C813.6-825.3,814.7-827.3,812.6-830.2L812.6-830.2L812.6-830.2z M805.8-936.1L805.8-936.1c0.3,4.6,3.1,6.4,5,8.5
		c-0.2,2.2-0.8,1.6-0.7,4.7c2.3,1.7,4,2.7,7.1,1.9c0.4-3.7-0.8-3.5-1.9-6.1c0.2-0.3,0.7-0.7,0.8-0.8c0.9-1.1,0.4,0.5,0.9-1.5
		c-2.2-0.7-5.8-3-6.1-6c1.1-0.9,0.8-0.3,1.6-0.9c1.8-1.1,0.4,0.6,1.5-1.3c-0.9-1.7-1.9-2.1-4.1-1.2
		C808.8-938.4,806.3-936.6,805.8-936.1z M786.4-934.9L786.4-934.9c-1.5-2.1-1.4-3.1-4.2-3.2c-1.1,1.2-2.5,3-3.1,4.9
		c-0.9,2.8-0.3,0.9-0.2,3.9c0,0.1,0,0.3,0,0.4c0,1.8-0.5-0.3-0.2,1.3c2.2-0.5,0.5-0.4,2.2-1c1.6-0.5,6.4-2,7.7-1.6
		c3.3,0.8,6,3.3,9.7,0.8c-0.2-3.3-4.2-4.6-6.9-6c0.1-3,0.9-0.6,0.8-3.6c-0.9,0-1.5-0.2-2.4,0.2c-2.1,0.9-1,1.2-1,1.6
		c0.1,1.6,2.1-0.3,0,1.7C788.1-935,787.1-935,786.4-934.9L786.4-934.9L786.4-934.9z M731-958L731-958c-0.1,5.3,1.8,3.5,3.5,6.2
		c-0.8,2.2-0.9,0.5-1.8,2.8c-0.8,1.9,0.2,0.2-0.3,3.6c1.4,0.1,3.4-0.4,5.2-0.6c2.6-0.2,2.5-0.5,3.4-3.1c-1.4-1.7-2.8-3.5-4.3-5.2
		c-1.9-2.8,0-0.9-0.6-3.2c-0.4-0.8-0.8-1.7-1.2-2.5C732.4-959.2,732.6-959.4,731-958L731-958z"/>
	<path class="st25" d="M832.7-1032.9l2.5,59.5c-56,57-156.9,50.9-203.6,1.8l-0.2-58.1l96.7,40.3L832.7-1032.9L832.7-1032.9
		L832.7-1032.9z"/>
	<path class="st20" d="M560.5-1043.6l167.5-58.5l167.5,58.5L728-985.1L560.5-1043.6z"/>
	<path class="st26" d="M729.9-1059.4l-112.5,30.5c-1.1,0.2-1.7,0.8-1.6,2l-0.6,50.1c3.6,1.4,6.3,5.1,6.3,9.5
		c0,5.6-4.2,10.1-9.4,10.1c-5.2,0-9.5-4.5-9.5-10.1c0-4.1,2.3-7.6,5.6-9.2l0.6-54.9c-0.1-1.7,0.6-3,2.7-3.7l114.2-30.5
		C729.7-1066.8,733.9-1062.2,729.9-1059.4L729.9-1059.4L729.9-1059.4z M615.1-970.6L615.1-970.6L615.1-970.6L615.1-970.6
		L615.1-970.6L615.1-970.6l-0.1-0.1l0,0l0,0l0,0l0,0l0,0l0,0l0,0l0,0l0,0l0,0l0,0l0,0l0,0l0,0l0,0l0,0l0,0l0,0l-0.1,0l0,0l0,0l0,0
		l0,0l0,0l0,0l0,0l0,0l0,0l0,0l0,0l0,0l0,0l0,0l0,0l0,0l0,0l0,0l0,0l-0.1,0l0,0l0,0l-0.1,0l0,0l0,0l-0.1,0l0,0l0,0l-0.1,0l0,0l0,0
		l-0.1,0l0,0l0,0l-0.1,0h0l0,0l-0.1,0l0,0l0,0l-0.1,0l0,0l0,0l-0.1,0l0,0l0,0l-0.1,0h0l-0.1,0l-0.1,0h0l-0.1,0l-0.1,0h0l-0.1,0
		l-0.1,0h0l-0.1,0l-0.1,0h0l-0.1,0l-0.1,0h0l-0.1,0l-0.1,0h0h-0.1l-0.1,0l0,0l-0.1,0H612l-0.1,0h0l-0.1,0h-0.1h0l-0.1,0h0l-0.1,0
		l0,0l0,0l-0.1,0h0l-0.1,0l0,0l-0.1,0l-0.1,0l0,0l-0.1,0l0,0l-0.1,0l0,0l0,0l-0.1,0l0,0l-0.1,0l0,0l-0.1,0l0,0l0,0l-0.1,0l-0.1,0
		l0,0l-0.1,0l0,0l0,0l-0.1,0h0l-0.1,0l0,0l0,0l-0.1,0l0,0l-0.1,0l0,0l-0.1,0l0,0l0,0l-0.1,0l0,0l-0.1,0l0,0l0,0l0,0l0,0l-0.1,0l0,0
		l-0.1,0l0,0l0,0l-0.1,0l0,0l-0.1,0.1l0,0l0,0l0,0l0,0l-0.1,0.1l0,0l-0.1,0.1l0,0l0,0l0,0l0,0l-0.1,0.1l0,0l0,0.1l0,0l0,0l0,0.1l0,0
		l-0.1,0.1l0,0l0,0.1l0,0l0,0l0,0.1l0,0l0,0.1l0,0.1l0,0l0,0l0,0.1l0,0l0,0.1l0,0.1l0,0.1l0,0l0,0.1l0,0l0,0.1l0,0l0,0l0,0.1l0,0
		l0,0.1l0,0l0,0c-0.3,0.6-0.4,1.3-0.4,2c0,2.6,2,4.7,4.4,4.7c2.4,0,4.4-2.1,4.4-4.7C616.4-968.6,615.9-969.8,615.1-970.6
		L615.1-970.6z"/>
	<path class="st27" d="M610.9-962.8l-12.8,81.7c-0.2,1.3,4.3,3.1,6.4,0.5c2.8,3.4,6.5,2,7.7-0.3c1.4,2.3,4.7,3.6,7.2,0.1
		c2.1,2.7,6.9,0.8,6.6-1.4l-12.7-80.6C613-964.1,611.1-963.8,610.9-962.8L610.9-962.8z"/>
</g>
<rect x="2263.9" y="-742.5" transform="matrix(-1.836970e-16 1 -1 -1.836970e-16 1693.4778 -3006.3818)" class="st28" width="172" height="172"/>
<rect x="2056.9" y="-742.5" transform="matrix(-1.836970e-16 1 -1 -1.836970e-16 1486.457 -2799.3613)" class="st29" width="172" height="172"/>
<rect x="1849.9" y="-742.5" transform="matrix(-1.836970e-16 1 -1 -1.836970e-16 1279.4363 -2592.3406)" class="st30" width="172" height="172"/>
<rect x="1642.9" y="-742.5" transform="matrix(-1.836970e-16 1 -1 -1.836970e-16 1072.4156 -2385.3198)" class="st31" width="172" height="172"/>
<rect x="1423.8" y="-742.5" transform="matrix(-1.836970e-16 1 -1 -1.836970e-16 853.3937 -2166.2979)" class="st32" width="172" height="172"/>
<image style="overflow:visible;" width="195" height="173" xlink:href="D72B7423.png"  transform="matrix(4.6118 0 0 4.6118 1531 -1780.7251)">
</image>
<image style="overflow:visible;" width="1500" height="1600" xlink:href="stock-vector-business-feedback-icons-462748960.jpg"  transform="matrix(0.6338 0 0 0.6338 3550 -1389.7251)">
</image>
<image style="overflow:visible;" width="177" height="181" xlink:href="stock-vector-set-of-universal-editable-icons-can-be-used-for-web-mobile-and-app-design-includes-icons-such-505720351.jpg"  transform="matrix(0.9061 0 0 0.9061 3085 -338.725)">
</image>
<g>
	<circle class="st32" cx="2935" cy="-464.7" r="4"/>
	<circle class="st32" cx="2917.5" cy="-464.7" r="4"/>
	<circle class="st32" cx="2900" cy="-464.7" r="4"/>
</g>
<g>
	<path class="st12" d="M2853-205.7c0,0,12,0,15,11s-3,30-15,30h-0.2c-12,0-18-19-15-30s15-11,15-11H2853z"/>
	<path class="st12" d="M2846.2-165.7c0,0,2,9-4,10s-19,5-20,10s-1,13-1,13"/>
	<path class="st12" d="M2858.5-165.7c0,0-2,9,4,10s19,5,20,10s1,13,1,13"/>
</g>
<g>
	<path class="st12" d="M2853-205.7c0,0,12,0,15,11s-3,30-15,30h-0.2c-12,0-18-19-15-30s15-11,15-11H2853z"/>
	<path class="st12" d="M2846.2-165.7c0,0,2,9-4,10s-19,5-20,10s-1,13-1,13"/>
	<path class="st12" d="M2858.5-165.7c0,0-2,9,4,10s19,5,20,10s1,13,1,13"/>
</g>
<path class="st33" d="M1222.7-302.7c-15.6-42.9,6.4-90.3,49.3-106c5.2-1.9,10.4-3.2,15.7-4"/>
<g>
	<path class="st32" d="M1352.3-415.9c-0.7-0.9-2.2-1.2-5.7-1.5l-12-0.8l-13.1-16c-0.3-0.4-0.8-0.7-1.1-0.7l-4.3-0.3
		c-0.3,0-0.4,0.4-0.1,0.9l7.9,15.3l-16.2-1.1l-6.5-10.2c-0.2-0.3-0.6-0.6-0.9-0.6l-3.3-0.2c-0.3,0-0.5,0.3-0.4,0.7l2.3,9.8l-1.9-0.1
		c-1.6-0.1-1.9,2.5-0.6,3.7c1.4,1.2,13.6,7.1,15.3,7.2l33.9,2.4c4.8,0.3,9.6-1.5,9.7-4.1C1355.6-413,1353-414.9,1352.3-415.9z"/>
</g>
<g>
	<path class="st34" d="M1358.3-331.8l0.1,21.6c-20.6,20.9-54.7,22.8-77.8,10.6c-5-2.6-9.5-5.9-13.2-9.8l-0.1-21.3l43.2,13.3
		L1358.3-331.8L1358.3-331.8L1358.3-331.8z"/>
	<path class="st35" d="M1235.7-341.6l74.8-26.1l74.8,26.1l-74.8,23.9L1235.7-341.6z"/>
	<path class="st9" d="M1311.4-348.7l-50.3,13.6c-0.5,0.1-0.8,0.4-0.7,0.9l-0.3,22.4c1.6,0.6,2.8,2.3,2.8,4.3c0,2.5-1.9,4.5-4.2,4.5
		s-4.2-2-4.2-4.5c0-1.8,1-3.4,2.5-4.1l0.3-24.5c0-0.8,0.3-1.4,1.2-1.6l51-13.6C1311.2-352,1313.1-349.9,1311.4-348.7L1311.4-348.7
		L1311.4-348.7z M1260.1-309L1260.1-309L1260.1-309L1260.1-309L1260.1-309L1260.1-309L1260.1-309L1260.1-309L1260.1-309L1260.1-309
		l-0.1-0.1l0,0l0,0l0,0l0,0l0,0l0,0l0,0l0,0l0,0l0,0l0,0l0,0l0,0l0,0l0,0l0,0l0,0l0,0l0,0l0,0l0,0l0,0l0,0l0,0l0,0l0,0l0,0l0,0l0,0
		l0,0l0,0l0,0l0,0l0,0l0,0l0,0l0,0l0,0l0,0l0,0l0,0l0,0l0,0l0,0l0,0l0,0l0,0l0,0l0,0l0,0h0l0,0l0,0l0,0l0,0l0,0l0,0l0,0l0,0l0,0l0,0
		l0,0h0l0,0l0,0h0l0,0l0,0h0l0,0l0,0h0l0,0l0,0h0l0,0l0,0h0l0,0l0,0h0h0l0,0l0,0l0,0h0l0,0h0l0,0h0h0l0,0h0l0,0l0,0l0,0l0,0h0l0,0
		l0,0l0,0l0,0l0,0l0,0l0,0l0,0l0,0l0,0l0,0l0,0l0,0l0,0l0,0l0,0l0,0l0,0l0,0l0,0l0,0l0,0l0,0l0,0h0l0,0l0,0l0,0l0,0l0,0l0,0l0,0l0,0
		l0,0l0,0l0,0l0,0l0,0l0,0l0,0l0,0l0,0l0,0l0,0l0,0l0,0l0,0l0,0l0,0l0,0l0,0l0,0l0,0l0,0l0,0l0,0l0,0l0,0l0,0l0,0l0,0l0,0l0,0l0,0
		l0,0l0,0l0,0l0,0l0,0l0,0l0,0l0,0l0,0l0,0l0,0l0,0l0,0l0,0l0,0l0,0l0,0l0,0l0,0l0,0l0,0l0,0l0,0l0,0l0,0l0,0l0,0l0,0l0,0l0,0l0,0
		c-0.1,0.3-0.2,0.6-0.2,0.9c0,1.2,0.9,2.1,2,2.1s2-0.9,2-2.1C1260.6-308.1,1260.4-308.6,1260.1-309L1260.1-309z"/>
	<path class="st11" d="M1258.2-310.5l-5.7,36.5c-0.1,0.6,1.9,1.4,2.9,0.2c1.3,1.5,2.9,0.9,3.4-0.2c0.6,1,2.1,1.6,3.2,0.1
		c1,1.2,3.1,0.4,2.9-0.6l-5.7-36C1259.1-311.1,1258.3-311,1258.2-310.5L1258.2-310.5z"/>
	<circle class="st9" cx="1259" cy="-307.7" r="4"/>
</g>
<path class="st9" d="M1783.7,403.5c0,0,6,0,7.5,5.5s-1.5,15-7.5,15h-0.1c-6,0-9-9.5-7.5-15s7.5-5.5,7.5-5.5H1783.7z"/>
<path class="st9" d="M1779.2,420.8l-5.4,5.9l-3.3,26.1l8.3,4c0,0,9.6-27.1,7.2-29.1s-5.5-2-5.5-2l3-4L1779.2,420.8z"/>
<path class="st9" d="M1771.6,451.8h8.6c0.2,0,0.4,0,0.6,0.1l20.8,9.5c0.5,0.2,0.9,0.8,0.8,1.4l-0.7,4.6c-0.1,0.8-0.8,1.3-1.6,1.1
	l-26.4-4.7c-0.1,0-0.3-0.1-0.4-0.1c-0.9-0.5-4.2-2.9-3-10.7C1770.4,452.3,1771,451.8,1771.6,451.8z"/>
<path class="st9" d="M1800,462.2c0.6-0.6,1.5-0.7,2.2-0.2c1.2,0.8,2.8,2.4,2.8,4.3c0,2.7-15.2,21.3-18.4,25.3
	c-0.5,0.6-1.3,0.8-2,0.4c-0.7-0.3-1.2-1.1-0.6-2.7C1786.6,482.1,1795,467.4,1800,462.2z"/>
<g>
	<g>
		<path class="st32" d="M2218-379.4c-1.1-2.9-2.4-5.7-3.8-8.4c-2.8-5.1-6.3-9.7-10.3-13.7c-0.1-0.1-0.2-0.2-0.3-0.3h0
			c-0.1-0.1-0.2-0.2-0.3-0.3l0,0c-0.3-0.3-0.7-0.7-1.1-1c-10.9-10.1-25.6-16.3-41.7-16.3c-9.3,0-18.2,2.1-26.1,5.8
			c-0.5,0.3-1.1,0.5-1.6,0.8c-5.8,2.9-11.1,6.8-15.6,11.4c-6.7,6.7-11.8,14.8-14.8,24c-0.2,0.5-0.3,0.9-0.4,1.4l0,0.1
			c-0.1,0.3-0.2,0.6-0.3,1c-0.2,0.8-0.4,1.5-0.6,2.3c-0.1,0.3-0.1,0.5-0.2,0.8c-1,4.4-1.6,9.1-1.6,13.8c0,16.9,6.9,32.3,18,43.4
			c6.2,6.2,13.8,11.1,22.3,14.3c0.3,0.1,0.5,0.2,0.8,0.3c1.6,0.6,3.3,1.1,4.9,1.5c0.3,0.1,0.6,0.1,0.9,0.2c4.6,1.1,9.5,1.7,14.4,1.7
			c16.9,0,32.3-6.9,43.4-18c2-2,3.9-4.2,5.6-6.5c7.7-10.3,12.3-23,12.3-36.9C2221.8-365.5,2220.4-372.7,2218-379.4z M2121.8-319.4
			c-9.9-9.9-16-23.5-16-38.6c0-2.8,0.2-5.5,0.6-8.2c1.9,1.3,5.3,3.1,5.3,3.1c0.1,0,0.3,0.1,0.5,0.1c0.3,0,0.6,0,0.9-0.1
			c0.4-0.1,0.7-0.1,1-0.1c0.1,0,0.2,0,0.2,0c0.1,0.1,0.3,0.5,0.4,0.8c0.2,0.5,0.5,1.1,0.9,1.3c0.4,0.2,1.4,0.3,2.8,0.5
			c0.5,0.1,0.9,0.1,1.2,0.1c0.1,0.2,0.2,0.6,0.3,0.9c0.2,0.8,0.4,1.6,1,2c0.5,0.3,2.2,1.9,3.1,2.8c0.1,0.1,0.3,0.2,0.4,0.2
			c0.1,0,0.2,0,0.3-0.1c0.1,0,1.7-1,2.2-1.3c0.1,0,0.3,0.2,0.5,0.3c0,0.9,0.1,3.8,0.1,4.4c-0.1,0.4-1.3,1.6-2.7,2.8
			c-0.1,0.1-0.2,0.3-0.2,0.4c0,0.2-0.2,4,0,5.6c0.2,1.6,2.7,4.6,3.4,5.4c0.3,0.8,1.1,2.9,1.4,3.4c0.3,0.5,3.4,2.8,5.4,4.3v9.2
			c0,1,0.4,1.7,0.7,2.2c0.2,0.3,0.3,0.6,0.3,0.8v6.4c0,0.8,0.2,1.5,0.6,2.1C2131.2-311.5,2126.2-315.1,2121.8-319.4z M2207.8-380.6
			c-1.1-0.8-2.7-1.1-2.7-1.1l-1.2-0.2c-0.6-1.2-0.3-4-2.4-3.4c-2.1,0.6-9.2,1.8-10.7,2.1c-1.5,0.3-3.4,2.7-4.6,4.6
			c-1.2,1.8-4.6,7.6-5.2,8.5c-0.6,0.9-0.9,6.7-0.9,8.2c0,1.5,6.7,7.9,8.9,8.2c2.1,0.3,7.9-1.2,9.5-1.5c1.5-0.3,2.4,1.8,3.7,1.8
			s2.7,0.6,1.5,2.4c-1.2,1.8-1.2,2.7,0,4c1.2,1.2,3.7,5.8,2.1,9.5c-1.5,3.7-0.3,5.5,0.6,7c0.2,0.3,0.4,0.7,0.6,1.2
			c-2.2,3.5-4.8,6.8-7.7,9.7c-9.9,9.9-23.5,16-38.6,16c-5,0-9.9-0.7-14.6-2c0-0.1,0-0.2,0.1-0.2c0.1-0.6-0.2-1-0.4-1.3
			c0.3-0.2,0.6-0.4,0.8-0.8c0.3-0.5,0.3-1.2,0.3-1.7l0.3,0c0.7,0,1.6-0.1,2.3-0.5c1.1-0.8,1.1-2.4,0.9-3.5c0.1,0,0.2,0.1,0.2,0.1
			c0.1,0,0.2,0,0.3,0c1,0,2.1-1.8,2.3-2.9c0.1-0.4,0.5-1.4,0.9-2.3c0.9-2.2,1.5-3.5,1.4-4.2c0-0.4,1.7-1.8,3.2-2.1
			c1.8-0.4,2.4-1,3.1-3.2c0.6-2.1,0.9-5.5,0.8-7c0-0.5,1-1.9,1.7-2.9c1.1-1.6,1.8-2.6,1.8-3.4c0-1.8-1.6-3.1-2.7-3.9
			c-1.2-0.8-3.2-1-4.5-1.1c-0.4,0-0.7-0.1-0.9-0.1c-0.1,0-0.4-0.3-0.6-0.5c-0.4-0.5-1-1.1-1.9-1.2c-0.1,0-0.2,0-0.3,0
			c-0.6,0-1.1,0.2-1.6,0.4c-0.5,0.2-0.9,0.3-1.3,0.3c-0.1,0-0.3,0-0.4,0c-0.2,0-0.3-0.1-0.3-0.1c0-0.1,0.2-0.4,0.7-0.8
			c0.5-0.3,0.9-1,0.4-2.5c-0.4-1.1-1-2.2-1.3-2.6c-1-1.4-2.7-1.4-3.3-1.4c-0.5,0-1,0.1-1.6,0.1l-0.1,0c-0.5,0-0.8-0.5-1.4-1.5
			c-0.3-0.6-0.7-1.2-1.3-1.8c-1.2-1.4-2.8-1.6-4.2-1.6c-0.2,0-0.4,0-0.6,0c-0.2,0-0.3,0-0.4,0c-0.2,0-0.4,0-0.5,0
			c-0.5-0.1-1.3-0.5-2-0.8c-0.8-0.4-1.5-0.8-2.1-0.9l-0.2,0c-0.9,0-1.9,1-3.3,2.6c-0.3,0.4-0.8,0.9-1,1.1c0-0.1-0.1-0.1-0.2-0.2
			c-0.3-0.3-0.6-0.8-1.2-1c-0.1,0-0.3-0.1-0.4-0.1c-0.5,0-0.8,0.3-1.2,0.5c-0.3,0.2-0.5,0.4-0.8,0.4c-0.2,0-0.4-0.1-0.6-0.2
			c-0.8-0.5-0.6-2.2-0.3-3.6c0.1-0.7,0.2-1.3,0.2-1.8c0-1.2-0.7-1.3-1-1.3c-0.3,0-0.6,0.1-0.9,0.2c-0.4,0.1-0.8,0.3-1.2,0.3
			c-0.2,0-0.4,0-0.6-0.1c-0.3-0.1-0.5-0.2-0.5-0.3c-0.1-0.2,0.4-0.9,0.7-1.4c0.2-0.2,0.3-0.5,0.5-0.7c0.6-1.1,1-1.8,0.6-2.4
			c-0.2-0.4-0.6-0.5-1.1-0.5c-0.2,0-0.5,0-0.7,0.1c-0.2,0-0.4,0.1-0.6,0.1c-0.3,0-0.5,0-0.6-0.1c-0.2,0-0.3-0.1-0.4-0.1
			c-0.8,0-0.9,0.8-1,1.2c-0.2,1.3-0.9,1.9-2.3,1.9c-0.1,0-0.2,0-0.3,0c-1.4-0.1-2-1.1-2-3.4c0-1,0.2-1.2,0.6-2
			c0.2-0.4,0.5-0.8,0.8-1.5c0.8-1.5,1.4-1.8,2.1-2.1c0.2-0.1,0.5-0.2,0.7-0.4c0.2-0.1,0.3-0.2,0.4-0.2c0.1,0,0.2,0,0.3,0.1
			c0.2,0.1,0.5,0.2,0.8,0.2c0.1,0,0.2,0,0.3,0c1.1-0.2,1.4-0.9,1.6-1.4c0-0.1,0-0.1,0.1-0.2c0.1,0,0.1,0,0.2,0
			c0.5,0.1,1.3,0.4,2.6,0.4c0.4,0,0.8,0,1,0c-0.2,0.8-0.2,2.4,1.5,4.3c0.5,0.6,1,0.9,1.5,0.9c1.6,0,1.7-2.6,1.7-5.6
			c0-1.8,0.7-2.3,2.7-3.7l0.1-0.1c1.1-0.8,1.7-1.7,2.3-2.6c0.7-0.9,1.3-1.8,2.5-2.6c1.1-0.7,2.9-1.5,4.5-2.2
			c1.9-0.9,3.8-1.7,4.6-2.4c1-0.8,0.8-2,0.6-3c-0.2-1.3-0.1-1.6,0.4-1.7c0.9-0.2,1.8-0.4,2.7-0.5c1.4-0.2,2.8-0.4,4.3-1
			c1.5-0.6,1.9-1.4,1.9-2c0.1-1-0.8-1.8-1.6-2.2c-0.3-0.2-0.4-1-0.4-1.7c0-0.9-0.1-1.9-0.7-2.4c-0.3-0.3-0.8-0.5-1.3-0.5
			c-0.6,0-1.3,0.3-2.1,0.6c-0.5,0.2-1.1,0.5-1.8,0.6c-0.1,0-0.1,0-0.2,0c-0.2,0-0.4-0.5-0.6-1.2c-0.3-1-0.8-2.6-2.5-2.6
			c-0.2,0-0.4,0-0.6,0.1c-2.2,0.4-2.7,2.7-3,4.4c-0.1,0.6-0.3,1.5-0.5,1.6c-1.3,0-1.7,0.8-2.1,1.6c-0.3,0.5-0.5,1.1-1.1,1.6
			c-0.3,0.3-0.6,0.4-0.6,0.4c-0.1-0.1-0.3-0.8,0.4-2.2c0.3-0.6,0.6-1.4,0.2-2c-0.5-0.8-1.5-0.8-2.8-0.9c-0.5,0-1,0-1.5-0.1
			c-1-0.1-1.3-0.4-1.3-0.4c0,0,0-0.2,0.3-0.5c8.2-4.9,17.7-7.6,27.9-7.6c12.4,0,23.7,4.1,32.9,11c-0.1,0.6-0.6,1.4-1,2.1
			c-0.6,1.1-0.3,1.7-0.3,1.7s2.9-0.5,3.5-0.8c0.2-0.1,0.4-0.4,0.6-0.8c0.3,0.3,0.6,0.5,0.9,0.8c-0.7,0.7-1.5,1.3-1.8,1.5
			c-0.5,0.3-2,0.8-2.6,1.1c-0.6,0.3,1.8,1.4,1.8,1.8c0,0.5,0,2.6-0.9,2.7c-0.9,0.2-5.2,0.2-5.2,0.2s-1.4,4.9-1.1,5.3
			c0.3,0.5,2.3,1.5,3.5,1.4c1.2-0.2,4-1.5,4-1.5l1.2-2.7l2.4-2.6c0,0,1.8,0.8,2.4,0.2c0.6-0.6,1.8-1.2,1.8-1.2s1.2,2.3,2,2.6
			l0.1,0.1l0,0c0.9,1.2,1.7,2.5,2.5,3.8l0,0v0l0,0c0,0.1,0.1,0.2,0.1,0.2c1.3,2.1,2.4,4.3,3.3,6.6
			C2209.8-379.3,2208.7-380,2207.8-380.6z"/>
	</g>
	<path class="st33" d="M2113.1-381.7c0,0,2.2-46.3,37.7-50.6c35.5-4.3,48.7,29.1,48.7,29.1"/>
	<path class="st9" d="M2126.9-427c-6.2-10.2-21.1-10.3-27.2,0.1c-3.1,5.4-2.6,10.5,0,15.7c2.3,4.5,4.4,9.1,6.7,13.7l5,10.3
		c0.4,0.8,1.2,2.4,1.6,3.3h0.7c0.2-1.1,12.9-26.5,13.3-27.3C2129.6-416.5,2130.1-421.7,2126.9-427z M2113.2-412.3
		c-3.2,0-5.9-2.6-5.9-5.9c0-3.2,2.6-5.9,5.9-5.9c3.2,0,5.9,2.6,5.9,5.9C2119-415,2116.4-412.3,2113.2-412.3z"/>
	<g>
		<path class="st11" d="M2210.7-424.4c-3.6-6-12.5-6.1-16,0.1c-1.8,3.2-1.6,6.2,0,9.3c1.3,2.7,2.6,5.4,4,8.1l3,6.1
			c0.2,0.5,0.7,1.4,0.9,2h0.4c0.1-0.6,7.6-15.6,7.9-16.1C2212.3-418.2,2212.6-421.3,2210.7-424.4z M2202.5-416.4
			c-1.8,0-3.3-1.5-3.3-3.3c0-1.8,1.5-3.3,3.3-3.3c1.8,0,3.3,1.5,3.3,3.3C2205.8-417.9,2204.3-416.4,2202.5-416.4z"/>
		<rect x="2202.9" y="-399" class="st11" width="0" height="0"/>
	</g>
</g>
<g>
	<g>
		<path class="st34" d="M1604.2-310.9l60-38.1c7.2-2.3,12.7,12.1,8.2,14.6l-58.3,38.3c-3.3,2.2-8.2-2.8-9.8-8.5
			C1603.4-307.5,1604.2-310.9,1604.2-310.9z"/>
	</g>
	<path class="st9" d="M1643.4-337.7c5.7-0.4,12.3,12.9,10.4,17.4l-8.6,5.5c0.4-6.5-5.9-16.4-11.7-16.4L1643.4-337.7L1643.4-337.7z"
		/>
	<path class="st9" d="M1666.3-314.5l-13-6.2l-8.4,6l12,9.2l0.3-8L1666.3-314.5L1666.3-314.5z"/>
	<path class="st33" d="M1524.7-321.6c-15.6-42.9,6.4-90.3,49.3-106c5.2-1.9,10.4-3.2,15.7-4"/>
	<g>
		<path class="st32" d="M1650.3-434.8c-0.7-0.9-2.2-1.2-5.7-1.5l-12-0.8l-13.1-16c-0.3-0.4-0.8-0.7-1.1-0.7l-4.3-0.3
			c-0.3,0-0.4,0.4-0.1,0.9l7.9,15.3l-16.2-1.1l-6.5-10.2c-0.2-0.3-0.6-0.6-0.9-0.6l-3.3-0.2c-0.3,0-0.5,0.3-0.4,0.7l2.3,9.8
			l-1.9-0.1c-1.6-0.1-1.9,2.5-0.6,3.7c1.4,1.2,13.6,7.1,15.3,7.2l33.9,2.4c4.8,0.3,9.6-1.5,9.7-4.1
			C1653.6-431.9,1651-433.8,1650.3-434.8z"/>
	</g>
	<g>
		<path class="st35" d="M1605.6-360.9l4.9,21c-15.5,24.9-48.4,34.2-73.6,27.4c-5.4-1.5-10.5-3.7-15-6.7l-4.8-20.8l45,3.6
			L1605.6-360.9L1605.6-360.9L1605.6-360.9z"/>
		<path class="st35" d="M1483.9-343.6l67.3-41.9l78.7,9.1l-67.8,39.7L1483.9-343.6z"/>
		<path class="st9" d="M1556.2-367l-46.1,24.3c-0.5,0.2-0.7,0.5-0.5,1l4.6,21.9c1.7,0.3,3.2,1.6,3.7,3.5c0.5,2.4-0.9,4.8-3.1,5.3
			c-2.3,0.5-4.6-1.1-5.1-3.5c-0.4-1.8,0.2-3.5,1.5-4.6l-5.1-24c-0.2-0.7,0-1.4,0.8-1.9l46.8-24.4
			C1555.3-370.3,1557.7-368.7,1556.2-367L1556.2-367L1556.2-367z M1514.8-317.1L1514.8-317.1L1514.8-317.1L1514.8-317.1
			L1514.8-317.1L1514.8-317.1L1514.8-317.1L1514.8-317.1L1514.8-317.1l-0.1-0.1l0,0l0,0l0,0l0,0l0,0l0,0l0,0l0,0l0,0l0,0l0,0l0,0
			l0,0l0,0l0,0l0,0l0,0l0,0l0,0l0,0l0,0l0,0l0,0l0,0l0,0l0,0l0,0l0,0l0,0l0,0l0,0l0,0l0,0l0,0l0,0l0,0l0,0l0,0l0,0l0,0l0,0l0,0l0,0
			l0,0l0,0l0,0l0,0l0,0l0,0l0,0l0,0l0,0l0,0l0,0l0,0l0,0l0,0l0,0l0,0l0,0l0,0l0,0l0,0l0,0l0,0l0,0l0,0l0,0l0,0l0,0l0,0l0,0l0,0l0,0
			l0,0l0,0l0,0l0,0l0,0l0,0l0,0l0,0l0,0l0,0l0,0l0,0l0,0l0,0l0,0l0,0l0,0l0,0l0,0l0,0l0,0l0,0l0,0l0,0l0,0l0,0l0,0l0,0l0,0l0,0l0,0
			l0,0l0,0l0,0l0,0l0,0l0,0l0,0l0,0l0,0l0,0l0,0l0,0l0,0l0,0l0,0l0,0l0,0l0,0l0,0l0,0l0,0l0,0l0,0l0,0l0,0l0,0l0,0l0,0l0,0l0,0l0,0
			l0,0l0,0l0,0l0,0l0,0l0,0l0,0l0,0l0,0l0,0l0,0l0,0l0,0l0,0l0,0l0,0l0,0l0,0l0,0l0,0l0,0l0,0l0,0l0,0l0,0l0,0l0,0l0,0l0,0l0,0l0,0
			l0,0l0,0l0,0l0,0l0,0l0,0l0,0l0,0l0,0l0,0l0,0l0,0l0,0l0,0l0,0l0,0l0,0l0,0l0,0l0,0l0,0l0,0l0,0l0,0l0,0l0,0l0,0
			c-0.1,0.3-0.1,0.6,0,0.9c0.3,1.1,1.3,1.9,2.4,1.6s1.7-1.3,1.5-2.5C1515.6-316.4,1515.2-316.9,1514.8-317.1L1514.8-317.1z"/>
		<path class="st11" d="M1512.7-318.2l2.4,36.9c0,0.6,2.2,0.9,2.8-0.4c1.6,1.2,3,0.2,3.3-0.9c0.8,0.9,2.4,1.1,3.1-0.6
			c1.2,1,3.1-0.3,2.7-1.3l-13.4-33.9C1513.4-318.9,1512.6-318.7,1512.7-318.2L1512.7-318.2z"/>
		<ellipse transform="matrix(0.9758 -0.2187 0.2187 0.9758 105.6918 323.5004)" class="st9" cx="1514" cy="-315.6" rx="4" ry="4"/>
	</g>
	<path class="st36" d="M1517.5-325.3c0,0,22,17,53,8c24-7,37-20,43-33"/>
	<polyline class="st36" points="1512.5,-337.3 1562.5,-333.3 1611.5,-361.3 	"/>
</g>
<g>
	<path class="st0" d="M1809.3-332.8c5.6-2.5,12,0.4,14.5,6c2.5,5.6-0.4,12-6,14.5c-5.6,2.1-30,0.4-30,0.4S1803.7-330.7,1809.3-332.8
		z"/>
	<g>
		<path class="st11" d="M1817.7-329.1c2.8-1.1,5.6,0,7.1,2.8c1.1,2.8,0,5.6-2.8,7.1c-2.8,1.1-14.5,0.4-14.5,0.4
			S1814.9-327.7,1817.7-329.1z"/>
		<path class="st37" d="M1824.5-344.1l22.9-10.6c-9.5-12-27.2-14.8-39.9-6c-3.5,2.5-6.4,5.6-8.5,9.2
			C1808.3-353.3,1817.8-350.5,1824.5-344.1z"/>
		<path class="st37" d="M1838-315.2l22.9-10.6c2.8,15.2-6.4,30-21.5,34.2c-4.2,1.1-8.5,1.4-12.4,0.7
			C1834.1-296.8,1838.3-305.7,1838-315.2z"/>
	</g>
	<path class="st38" d="M1821.4-344.5l14.8,32.1c56.5-16.2,71.9-17.4,100.1-44.2c-0.4-13.8-6.9-25.3-17.1-35.2
		C1880.7-387.9,1870.4-376.6,1821.4-344.5z"/>
	<path class="st39" d="M1919.2-391.8c9.9,9.9,16.6,21.5,16.9,35.3l24-32.5L1919.2-391.8z"/>
	<path class="st38" d="M1815.7-343.8l16.2,35.3c1.4-1.1,2.8-2.5,4.2-3.9l-14.8-32.1C1819.6-344.5,1817.5-344.1,1815.7-343.8z"/>
	<circle class="st40" cx="1901.1" cy="-364.3" r="10.8"/>
	<path class="st9" d="M1899.1-419.7l-37.9,14.8c-2.2-0.9-4.2-0.9-4.2-0.9l1.8-2.4c0.6,0.2,1.2,0.3,1.9,0.3h0.1
		c7.3,0,10.9-11.5,9.1-18.1c-1.8-6.6-9.1-6.6-9.1-6.6h-0.1c0,0-7.2,0-9.1,6.6c-1.2,4.5,0,11.1,3.1,14.9l-3.8,4.2
		c-0.4,0-0.8,0.1-1.2,0.3l-18.7,10.4c-0.7,0.4-1.2,1.2-1.3,2l0,0.3l-4.4,21.9c-0.2,1,0.4,1.9,1.3,2.2c1.1,0.4,2.2-0.3,2.5-1.3
		l5-18.4c0.1-0.1,0.1-0.2,0.2-0.4c0.2-0.6,0.6-1.1,1.2-1.4l11.1-5.6l-6.5,23c-0.2,0.2-0.3,0.4-0.3,0.7c-1.5,9.4,2.6,12.3,3.6,12.9
		c0.1,0.1,0.3,0.1,0.5,0.2l31.3,4.7c-5.5,8-11.7,19.5-14.1,26c-0.7,1.9,0,2.8,0.8,3.2c0.8,0.4,1.8,0.2,2.4-0.5
		c3.9-4.8,22.2-27.2,22.2-30.4c0-2.3-1.9-4.1-3.3-5.1c-0.2-0.4-0.4-0.7-0.8-0.8l-25.1-11.4c-0.1-0.1-0.2-0.1-0.4-0.1
		c2.3-6.7,5.7-17.6,6.8-24l37.1-17c0.8-0.4,1.3-1.2,1.3-2.1C1902.3-419.2,1900.7-420.3,1899.1-419.7z"/>
	<path class="st11" d="M1916.6-410.4h-10.2v-2.1c0-1.8-1.4-3.2-3.2-3.2h-7.8c-1.8,0-3.2,1.4-3.2,3.2v2.1h-9.9
		c-1.1,0-1.8,0.7-1.8,1.8v24c0,1.1,0.7,1.8,1.8,1.8h33.8c1.1,0,1.8-0.7,1.8-1.8v-24C1918-409.7,1917.3-410.4,1916.6-410.4z
		 M1895.1-412.5c0-0.4,0.4-0.4,0.4-0.4h7.8c0.4,0,0.4,0.4,0.4,0.4v2.2h-8.5V-412.5z"/>
	<rect x="1885.6" y="-410.4" class="st16" width="4.2" height="27.5"/>
	<rect x="1908.8" y="-410.4" class="st16" width="4.2" height="27.5"/>
</g>
<g>
	<g>
		<path class="st41" d="M2381.7-421.3c-15.8,3.3-25.8,18.8-22.5,34.5c2,9.7,8.7,17.2,17.1,20.8l0.2,7.3l5.2-5.6
			c3.9,0.8,7.9,0.9,12,0c15.8-3.3,25.8-18.8,22.5-34.5C2412.9-414.6,2397.4-424.7,2381.7-421.3z"/>
		<g>
			<path class="st11" d="M2456.6-352.7c0,0,8.5,0,10.7,7.8c2.1,7.8-2.1,21.3-10.7,21.3h-0.2c-8.6,0-12.8-13.5-10.7-21.3
				c2.1-7.8,10.7-7.8,10.7-7.8H2456.6z"/>
			<path class="st11" d="M2451.8-327.2c0,0,1.4,6.4-2.8,7.1c-4.3,0.7-13.5,3.6-14.2,7.1c-0.7,3.6-0.7,9.2-0.7,9.2h44.3
				c0,0,0-5.7-0.7-9.2c-0.7-3.6-9.9-6.4-14.2-7.1c-4.3-0.7-2.8-7.1-2.8-7.1"/>
		</g>
		<path class="st12" d="M2438.4-423.8c17,1.8,29.4,17.1,27.5,34.1c-1.1,10.5-7.3,19.2-15.9,23.9l0.6,7.8l-6.1-5.4
			c-4,1.3-8.3,1.8-12.7,1.3c-17-1.8-29.4-17.1-27.5-34.1C2406.1-413.3,2421.4-425.6,2438.4-423.8z"/>
		<g>
			<path class="st9" d="M2375.4-350.2c0,0,7.9,0,9.9,7.3c2,7.3-1.9,19.8-9.9,19.8h-0.2c-7.9,0-11.9-12.5-9.9-19.8
				c2-7.3,9.9-7.3,9.9-7.3H2375.4z"/>
			<path class="st9" d="M2370.9-325.5c0,0,1.3,5.9-2.6,6.6c-4,0.7-12.5,3.3-13.2,6.6s-0.7,8.6-0.7,8.6h41.1c0,0,0-5.3-0.7-8.6
				s-9.2-5.9-13.2-6.6c-4-0.7-2.6-6.6-2.6-6.6"/>
		</g>
		<g>
			<circle class="st16" cx="2401.7" cy="-391.7" r="3.3"/>
			<circle class="st16" cx="2387.5" cy="-391.7" r="3.3"/>
			<circle class="st16" cx="2373.3" cy="-391.7" r="3.3"/>
		</g>
	</g>
	<path class="st12" d="M2478-394.7c0,0,4,21-14,32"/>
	<path class="st12" d="M2485-378.7c0,0-1,14-14,20"/>
	<path class="st12" d="M2375.1-431.4c0,0-21.1,3.7-25,24.4"/>
</g>
<g>
	<g>
		<g>
			<path class="st42" d="M125.3,156.5l60-38.1c7.2-2.3,12.7,12.1,8.2,14.6l-58.3,38.3c-3.3,2.2-8.2-2.8-9.8-8.5
				C124.5,159.9,125.3,156.5,125.3,156.5z"/>
		</g>
		<path class="st9" d="M164.5,129.7c5.7-0.4,12.3,12.9,10.4,17.4l-8.6,5.5c0.4-6.5-5.9-16.4-11.7-16.4L164.5,129.7L164.5,129.7z"/>
		<path class="st9" d="M187.4,152.9l-13-6.2l-8.4,6l12,9.2l0.3-8L187.4,152.9L187.4,152.9z"/>
		<path class="st33" d="M45.8,145.8c-15.6-42.9,6.4-90.3,49.3-106c5.2-1.9,10.4-3.2,15.7-4"/>
		<g>
			<path class="st32" d="M171.4,32.7c-0.7-0.9-2.2-1.2-5.7-1.5l-12-0.8l-13.1-16c-0.3-0.4-0.8-0.7-1.1-0.7l-4.3-0.3
				c-0.3,0-0.4,0.4-0.1,0.9l7.9,15.3l-16.2-1.1l-6.5-10.2c-0.2-0.3-0.6-0.6-0.9-0.6l-3.3-0.2c-0.3,0-0.5,0.3-0.4,0.7l2.3,9.8
				l-1.9-0.1c-1.6-0.1-1.9,2.5-0.6,3.7c1.4,1.2,13.6,7.1,15.3,7.2l33.9,2.4c4.8,0.3,9.6-1.5,9.7-4.1
				C174.7,35.5,172.1,33.6,171.4,32.7z"/>
		</g>
		<g>
			<path class="st35" d="M126.7,106.6l4.9,21C116.1,152.5,83.2,161.8,58,155c-5.4-1.5-10.5-3.7-15-6.7l-4.8-20.8l45,3.6L126.7,106.6
				L126.7,106.6L126.7,106.6z"/>
			<path class="st35" d="M4.9,123.8L72.2,82l78.7,9.1l-67.8,39.7L4.9,123.8z"/>
			<path class="st9" d="M77.2,100.4l-46.1,24.3c-0.5,0.2-0.7,0.5-0.5,1l4.6,21.9c1.7,0.3,3.2,1.6,3.7,3.5c0.5,2.4-0.9,4.8-3.1,5.3
				s-4.6-1.1-5.1-3.5c-0.4-1.8,0.2-3.5,1.5-4.6l-5.1-24c-0.2-0.7,0-1.4,0.8-1.9l46.8-24.4C76.4,97.2,78.7,98.8,77.2,100.4
				L77.2,100.4L77.2,100.4z M35.9,150.3L35.9,150.3L35.9,150.3L35.9,150.3L35.9,150.3L35.9,150.3L35.9,150.3L35.9,150.3L35.9,150.3
				l-0.1-0.1l0,0l0,0l0,0l0,0l0,0l0,0l0,0l0,0l0,0l0,0l0,0l0,0l0,0l0,0l0,0l0,0l0,0l0,0l0,0l0,0l0,0l0,0l0,0l0,0l0,0l0,0l0,0l0,0
				l0,0l0,0l0,0l0,0l0,0l0,0l0,0l0,0l0,0l0,0l0,0l0,0l0,0l0,0l0,0l0,0l0,0l0,0l0,0l0,0l0,0l0,0l0,0l0,0l0,0l0,0l0,0l0,0l0,0l0,0l0,0
				l0,0l0,0l0,0l0,0l0,0l0,0l0,0l0,0l0,0l0,0l0,0l0,0l0,0l0,0l0,0l0,0l0,0l0,0l0,0l0,0l0,0l0,0l0,0l0,0l0,0l0,0l0,0l0,0l0,0l0,0l0,0
				l0,0l0,0l0,0l0,0l0,0l0,0l0,0l0,0l0,0l0,0l0,0l0,0l0,0l0,0l0,0l0,0l0,0l0,0l0,0l0,0l0,0l0,0l0,0l0,0l0,0l0,0l0,0l0,0l0,0l0,0l0,0
				l0,0l0,0l0,0l0,0l0,0l0,0l0,0l0,0l0,0l0,0l0,0l0,0l0,0l0,0l0,0l0,0l0,0l0,0l0,0l0,0l0,0l0,0l0,0l0,0l0,0l0,0l0,0l0,0l0,0l0,0l0,0
				l0,0l0,0l0,0l0,0l0,0l0,0l0,0l0,0l0,0l0,0l0,0l0,0l0,0l0,0l0,0l0,0l0,0l0,0l0,0l0,0l0,0l0,0l0,0l0,0l0,0l0,0l0,0l0,0l0,0l0,0l0,0
				l0,0l0,0l0,0l0,0l0,0l0,0l0,0l0,0l0,0l0,0l0,0c-0.1,0.3-0.1,0.6,0,0.9c0.3,1.1,1.3,1.9,2.4,1.6c1.1-0.2,1.7-1.3,1.5-2.5
				C36.6,151,36.3,150.6,35.9,150.3L35.9,150.3z"/>
			<path class="st11" d="M33.7,149.2l2.4,36.9c0,0.6,2.2,0.9,2.8-0.4c1.6,1.2,3,0.2,3.3-0.9c0.8,0.9,2.4,1.1,3.1-0.6
				c1.2,1,3.1-0.3,2.7-1.3L34.7,149C34.5,148.5,33.7,148.8,33.7,149.2L33.7,149.2z"/>
			<ellipse transform="matrix(0.9758 -0.2187 0.2187 0.9758 -32.3473 11.3525)" class="st9" cx="35.1" cy="151.8" rx="4" ry="4"/>
		</g>
		<path class="st36" d="M38.6,142.2c0,0,22,17,53,8c24-7,37-20,43-33"/>
		<polyline class="st36" points="33.6,130.2 83.6,134.2 132.6,106.2 		"/>
	</g>
	<rect class="st43" width="200" height="200"/>
</g>
<g>
	<g>
		<path class="st0" d="M341.6,128.7c5.6-2.5,12,0.4,14.5,6c2.5,5.6-0.4,12-6,14.5c-5.6,2.1-30,0.4-30,0.4S336,130.9,341.6,128.7z"/>
		<g>
			<path class="st11" d="M350,132.5c2.8-1.1,5.6,0,7.1,2.8c1.1,2.8,0,5.6-2.8,7.1c-2.8,1.1-14.5,0.4-14.5,0.4S347.1,133.9,350,132.5
				z"/>
			<path class="st37" d="M356.8,117.4l22.9-10.6c-9.5-12-27.2-14.8-39.9-6c-3.5,2.5-6.4,5.6-8.5,9.2
				C340.6,108.3,350.1,111.1,356.8,117.4z"/>
			<path class="st37" d="M370.2,146.4l22.9-10.6c2.8,15.2-6.4,30-21.5,34.2c-4.2,1.1-8.5,1.4-12.4,0.7
				C366.3,164.8,370.6,155.9,370.2,146.4z"/>
		</g>
		<path class="st38" d="M353.6,117.1l14.8,32.1C425,133,440.4,131.9,468.6,105c-0.4-13.8-6.9-25.3-17.1-35.2
			C413,73.7,402.7,85,353.6,117.1z"/>
		<path class="st39" d="M451.5,69.8c9.9,9.9,16.6,21.5,16.9,35.3l24-32.5L451.5,69.8z"/>
		<path class="st38" d="M348,117.8l16.2,35.3c1.4-1.1,2.8-2.5,4.2-3.9l-14.8-32.1C351.9,117.1,349.8,117.4,348,117.8z"/>
		<circle class="st40" cx="433.3" cy="97.3" r="10.8"/>
		<path class="st9" d="M431.4,41.9l-37.9,14.8c-2.2-0.9-4.2-0.9-4.2-0.9l1.8-2.4c0.6,0.2,1.2,0.3,1.9,0.3h0.1
			c7.3,0,10.9-11.5,9.1-18.1c-1.8-6.6-9.1-6.6-9.1-6.6h-0.1c0,0-7.2,0-9.1,6.6c-1.2,4.5,0,11.1,3.1,14.9l-3.8,4.2
			c-0.4,0-0.8,0.1-1.2,0.3l-18.7,10.4c-0.7,0.4-1.2,1.2-1.3,2l0,0.3l-4.4,21.9c-0.2,1,0.4,1.9,1.3,2.2c1.1,0.4,2.2-0.3,2.5-1.3
			l5-18.4c0.1-0.1,0.1-0.2,0.2-0.4c0.2-0.6,0.6-1.1,1.2-1.4l11.1-5.6l-6.5,23c-0.2,0.2-0.3,0.4-0.3,0.7c-1.5,9.4,2.6,12.3,3.6,12.9
			c0.1,0.1,0.3,0.1,0.5,0.2l31.3,4.7c-5.5,8-11.7,19.5-14.1,26c-0.7,1.9,0,2.8,0.8,3.2c0.8,0.4,1.8,0.2,2.4-0.5
			c3.9-4.8,22.2-27.2,22.2-30.4c0-2.3-1.9-4.1-3.3-5.1c-0.2-0.4-0.4-0.7-0.8-0.8l-25.1-11.4c-0.1-0.1-0.2-0.1-0.4-0.1
			c2.3-6.7,5.7-17.6,6.8-24l37.1-17c0.8-0.4,1.3-1.2,1.3-2.1C434.6,42.4,432.9,41.3,431.4,41.9z"/>
		<path class="st11" d="M448.9,51.2h-10.2V49c0-1.8-1.4-3.2-3.2-3.2h-7.8c-1.8,0-3.2,1.4-3.2,3.2v2.1h-9.9c-1.1,0-1.8,0.7-1.8,1.8
			v24c0,1.1,0.7,1.8,1.8,1.8h33.8c1.1,0,1.8-0.7,1.8-1.8v-24C450.3,51.9,449.6,51.2,448.9,51.2z M427.4,49.1c0-0.4,0.4-0.4,0.4-0.4
			h7.8c0.4,0,0.4,0.4,0.4,0.4v2.2h-8.5V49.1z"/>
		<rect x="417.8" y="51.2" class="st16" width="4.2" height="27.5"/>
		<rect x="441.1" y="51.2" class="st16" width="4.2" height="27.5"/>
	</g>
	<rect x="306.2" class="st43" width="200" height="200"/>
</g>
<g>
	<g>
		<path class="st16" d="M692.4,165.5L692.4,165.5c-31.9,0-58-26.1-58-58v0c0-31.9,26.1-58,58-58h0c31.9,0,58,26.1,58,58v0
			C750.4,139.4,724.3,165.5,692.4,165.5z"/>
		<g>
			<path class="st32" d="M749.9,86.4c-1.1-2.9-2.4-5.7-3.8-8.4c-2.8-5.1-6.3-9.7-10.3-13.7c-0.1-0.1-0.2-0.2-0.3-0.3h0
				c-0.1-0.1-0.2-0.2-0.3-0.3l0,0c-0.3-0.3-0.7-0.7-1.1-1c-10.9-10.1-25.6-16.3-41.7-16.3c-9.3,0-18.2,2.1-26.1,5.8
				c-0.5,0.3-1.1,0.5-1.6,0.8c-5.8,2.9-11.1,6.8-15.6,11.4c-6.7,6.7-11.8,14.8-14.8,24c-0.2,0.5-0.3,0.9-0.4,1.4l0,0.1
				c-0.1,0.3-0.2,0.6-0.3,1c-0.2,0.8-0.4,1.5-0.6,2.3c-0.1,0.3-0.1,0.5-0.2,0.8c-1,4.4-1.6,9.1-1.6,13.8c0,16.9,6.9,32.3,18,43.4
				c6.2,6.2,13.8,11.1,22.3,14.3c0.3,0.1,0.5,0.2,0.8,0.3c1.6,0.6,3.3,1.1,4.9,1.5c0.3,0.1,0.6,0.1,0.9,0.2
				c4.6,1.1,9.5,1.7,14.4,1.7c16.9,0,32.3-6.9,43.4-18c2-2,3.9-4.2,5.6-6.5c7.7-10.3,12.3-23,12.3-36.9
				C753.7,100.2,752.4,93,749.9,86.4z M653.7,146.3c-9.9-9.9-16-23.5-16-38.6c0-2.8,0.2-5.5,0.6-8.2c1.9,1.3,5.3,3.1,5.3,3.1
				c0.1,0,0.3,0.1,0.5,0.1c0.3,0,0.6,0,0.9-0.1c0.4-0.1,0.7-0.1,1-0.1c0.1,0,0.2,0,0.2,0c0.1,0.1,0.3,0.5,0.4,0.8
				c0.2,0.5,0.5,1.1,0.9,1.3c0.4,0.2,1.4,0.3,2.8,0.5c0.5,0.1,0.9,0.1,1.2,0.1c0.1,0.2,0.2,0.6,0.3,0.9c0.2,0.8,0.4,1.6,1,2
				c0.5,0.3,2.2,1.9,3.1,2.8c0.1,0.1,0.3,0.2,0.4,0.2c0.1,0,0.2,0,0.3-0.1c0.1,0,1.7-1,2.2-1.3c0.1,0,0.3,0.2,0.5,0.3
				c0,0.9,0.1,3.8,0.1,4.4c-0.1,0.4-1.3,1.6-2.7,2.8c-0.1,0.1-0.2,0.3-0.2,0.4c0,0.2-0.2,4,0,5.6c0.2,1.6,2.7,4.6,3.4,5.4
				c0.3,0.8,1.1,2.9,1.4,3.4c0.3,0.5,3.4,2.8,5.4,4.3v9.2c0,1,0.4,1.7,0.7,2.2c0.2,0.3,0.3,0.6,0.3,0.8v6.4c0,0.8,0.2,1.5,0.6,2.1
				C663.1,154.2,658.1,150.6,653.7,146.3z M739.7,85.1c-1.1-0.8-2.7-1.1-2.7-1.1l-1.2-0.2c-0.6-1.2-0.3-4-2.4-3.4
				c-2.1,0.6-9.2,1.8-10.7,2.1c-1.5,0.3-3.4,2.7-4.6,4.6c-1.2,1.8-4.6,7.6-5.2,8.5c-0.6,0.9-0.9,6.7-0.9,8.2c0,1.5,6.7,7.9,8.9,8.2
				c2.1,0.3,7.9-1.2,9.5-1.5c1.5-0.3,2.4,1.8,3.7,1.8c1.2,0,2.7,0.6,1.5,2.4c-1.2,1.8-1.2,2.7,0,4c1.2,1.2,3.7,5.8,2.1,9.5
				c-1.5,3.7-0.3,5.5,0.6,7c0.2,0.3,0.4,0.7,0.6,1.2c-2.2,3.5-4.8,6.8-7.7,9.7c-9.9,9.9-23.5,16-38.6,16c-5,0-9.9-0.7-14.6-2
				c0-0.1,0-0.2,0.1-0.2c0.1-0.6-0.2-1-0.4-1.3c0.3-0.2,0.6-0.4,0.8-0.8c0.3-0.5,0.3-1.2,0.3-1.7l0.3,0c0.7,0,1.6-0.1,2.3-0.5
				c1.1-0.8,1.1-2.4,0.9-3.5c0.1,0,0.2,0.1,0.2,0.1c0.1,0,0.2,0,0.3,0c1,0,2.1-1.8,2.3-2.9c0.1-0.4,0.5-1.4,0.9-2.3
				c0.9-2.2,1.5-3.5,1.4-4.2c0-0.4,1.7-1.8,3.2-2.1c1.8-0.4,2.4-1,3.1-3.2c0.6-2.1,0.9-5.5,0.8-7c0-0.5,1-1.9,1.7-2.9
				c1.1-1.6,1.8-2.6,1.8-3.4c0-1.8-1.6-3.1-2.7-3.9c-1.2-0.8-3.2-1-4.5-1.1c-0.4,0-0.7-0.1-0.9-0.1c-0.1,0-0.4-0.3-0.6-0.5
				c-0.4-0.5-1-1.1-1.9-1.2c-0.1,0-0.2,0-0.3,0c-0.6,0-1.1,0.2-1.6,0.4c-0.5,0.2-0.9,0.3-1.3,0.3c-0.1,0-0.3,0-0.4,0
				c-0.2,0-0.3-0.1-0.3-0.1c0-0.1,0.2-0.4,0.7-0.8c0.5-0.3,0.9-1,0.4-2.5c-0.4-1.1-1-2.2-1.3-2.6c-1-1.4-2.7-1.4-3.3-1.4
				c-0.5,0-1,0.1-1.6,0.1l-0.1,0c-0.5,0-0.8-0.5-1.4-1.5c-0.3-0.6-0.7-1.2-1.3-1.8c-1.2-1.4-2.8-1.6-4.2-1.6c-0.2,0-0.4,0-0.6,0
				c-0.2,0-0.3,0-0.4,0c-0.2,0-0.4,0-0.5,0c-0.5-0.1-1.3-0.5-2-0.8c-0.8-0.4-1.5-0.8-2.1-0.9l-0.2,0c-0.9,0-1.9,1-3.3,2.6
				c-0.3,0.4-0.8,0.9-1,1.1c0-0.1-0.1-0.1-0.2-0.2c-0.3-0.3-0.6-0.8-1.2-1c-0.1,0-0.3-0.1-0.4-0.1c-0.5,0-0.8,0.3-1.2,0.5
				c-0.3,0.2-0.5,0.4-0.8,0.4c-0.2,0-0.4-0.1-0.6-0.2c-0.8-0.5-0.6-2.2-0.3-3.6c0.1-0.7,0.2-1.3,0.2-1.8c0-1.2-0.7-1.3-1-1.3
				c-0.3,0-0.6,0.1-0.9,0.2c-0.4,0.1-0.8,0.3-1.2,0.3c-0.2,0-0.4,0-0.6-0.1c-0.3-0.1-0.5-0.2-0.5-0.3c-0.1-0.2,0.4-0.9,0.7-1.4
				c0.2-0.2,0.3-0.5,0.5-0.7c0.6-1.1,1-1.8,0.6-2.4c-0.2-0.4-0.6-0.5-1.1-0.5c-0.2,0-0.5,0-0.7,0.1c-0.2,0-0.4,0.1-0.6,0.1
				c-0.3,0-0.5,0-0.6-0.1c-0.2,0-0.3-0.1-0.4-0.1c-0.8,0-0.9,0.8-1,1.2c-0.2,1.3-0.9,1.9-2.3,1.9c-0.1,0-0.2,0-0.3,0
				c-1.4-0.1-2-1.1-2-3.4c0-1,0.2-1.2,0.6-2c0.2-0.4,0.5-0.8,0.8-1.5c0.8-1.5,1.4-1.8,2.1-2.1c0.2-0.1,0.5-0.2,0.7-0.4
				c0.2-0.1,0.3-0.2,0.4-0.2c0.1,0,0.2,0,0.3,0.1c0.2,0.1,0.5,0.2,0.8,0.2c0.1,0,0.2,0,0.3,0c1.1-0.2,1.4-0.9,1.6-1.4
				c0-0.1,0-0.1,0.1-0.2c0.1,0,0.1,0,0.2,0c0.5,0.1,1.3,0.4,2.6,0.4c0.4,0,0.8,0,1,0c-0.2,0.8-0.2,2.4,1.5,4.3
				c0.5,0.6,1,0.9,1.5,0.9c1.6,0,1.7-2.6,1.7-5.6c0-1.8,0.7-2.3,2.7-3.7l0.1-0.1c1.1-0.8,1.7-1.7,2.3-2.6c0.7-0.9,1.3-1.8,2.5-2.6
				c1.1-0.7,2.9-1.5,4.5-2.2c1.9-0.9,3.8-1.7,4.6-2.4c1-0.8,0.8-2,0.6-3c-0.2-1.3-0.1-1.6,0.4-1.7c0.9-0.2,1.8-0.4,2.7-0.5
				c1.4-0.2,2.8-0.4,4.3-1c1.5-0.6,1.9-1.4,1.9-2c0.1-1-0.8-1.8-1.6-2.2c-0.3-0.2-0.4-1-0.4-1.7c0-0.9-0.1-1.9-0.7-2.4
				c-0.3-0.3-0.8-0.5-1.3-0.5c-0.6,0-1.3,0.3-2.1,0.6c-0.5,0.2-1.1,0.5-1.8,0.6c-0.1,0-0.1,0-0.2,0c-0.2,0-0.4-0.5-0.6-1.2
				c-0.3-1-0.8-2.6-2.5-2.6c-0.2,0-0.4,0-0.6,0.1c-2.2,0.4-2.7,2.7-3,4.4c-0.1,0.6-0.3,1.5-0.5,1.6c-1.3,0-1.7,0.8-2.1,1.6
				c-0.3,0.5-0.5,1.1-1.1,1.6c-0.3,0.3-0.6,0.4-0.6,0.4c-0.1-0.1-0.3-0.8,0.4-2.2c0.3-0.6,0.6-1.4,0.2-2c-0.5-0.8-1.5-0.8-2.8-0.9
				c-0.5,0-1,0-1.5-0.1c-1-0.1-1.3-0.4-1.3-0.4c0,0,0-0.2,0.3-0.5c8.2-4.9,17.7-7.6,27.9-7.6c12.4,0,23.7,4.1,32.9,11
				c-0.1,0.6-0.6,1.4-1,2.1c-0.6,1.1-0.3,1.7-0.3,1.7s2.9-0.5,3.5-0.8c0.2-0.1,0.4-0.4,0.6-0.8c0.3,0.3,0.6,0.5,0.9,0.8
				c-0.7,0.7-1.5,1.3-1.8,1.5c-0.5,0.3-2,0.8-2.6,1.1c-0.6,0.3,1.8,1.4,1.8,1.8c0,0.5,0,2.6-0.9,2.7c-0.9,0.2-5.2,0.2-5.2,0.2
				s-1.4,4.9-1.1,5.3c0.3,0.5,2.3,1.5,3.5,1.4c1.2-0.2,4-1.5,4-1.5l1.2-2.7l2.4-2.6c0,0,1.8,0.8,2.4,0.2c0.6-0.6,1.8-1.2,1.8-1.2
				s1.2,2.3,2,2.6l0.1,0.1l0,0c0.9,1.2,1.7,2.5,2.5,3.8l0,0v0l0,0c0,0.1,0.1,0.2,0.1,0.2c1.3,2.1,2.4,4.3,3.3,6.6
				C741.7,86.4,740.6,85.7,739.7,85.1z"/>
		</g>
		<path class="st33" d="M645,84c0,0,2.2-46.3,37.7-50.6c35.5-4.3,48.7,29.1,48.7,29.1"/>
		<path class="st9" d="M658.8,38.7c-6.2-10.2-21.1-10.3-27.2,0.1c-3.1,5.4-2.6,10.5,0,15.7c2.3,4.5,4.4,9.1,6.7,13.7l5,10.3
			c0.4,0.8,1.2,2.4,1.6,3.3h0.7c0.2-1.1,12.9-26.5,13.3-27.3C661.6,49.2,662,44,658.8,38.7z M645.1,53.4c-3.2,0-5.9-2.6-5.9-5.9
			c0-3.2,2.6-5.9,5.9-5.9c3.2,0,5.9,2.6,5.9,5.9C650.9,50.8,648.3,53.4,645.1,53.4z"/>
		<g>
			<path class="st11" d="M742.6,41.3c-3.6-6-12.5-6.1-16,0.1c-1.8,3.2-1.6,6.2,0,9.3c1.3,2.7,2.6,5.4,4,8.1l3,6.1
				c0.2,0.5,0.7,1.4,0.9,2h0.4c0.1-0.6,7.6-15.6,7.9-16.1C744.3,47.5,744.5,44.5,742.6,41.3z M734.4,49.3c-1.8,0-3.3-1.5-3.3-3.3
				c0-1.8,1.5-3.3,3.3-3.3s3.3,1.5,3.3,3.3C737.7,47.8,736.2,49.3,734.4,49.3z"/>
			<rect x="734.8" y="66.8" class="st11" width="0" height="0"/>
		</g>
	</g>
	<rect x="591.6" class="st43" width="200" height="200"/>
</g>
<g>
	<g>
		<g>
			<path class="st38" d="M993.4,43.8c17,1.8,29.4,17.1,27.5,34.1c-1.1,10.5-7.3,19.2-15.9,23.9l0.6,7.8l-6.1-5.4
				c-4,1.3-8.3,1.8-12.7,1.3c-17-1.8-29.4-17.1-27.5-34.1S976.3,41.9,993.4,43.8z"/>
			<path class="st41" d="M936.6,46.2c-15.8,3.3-25.8,18.8-22.5,34.5c2,9.7,8.7,17.2,17.1,20.8l0.2,7.3l5.2-5.6c3.9,0.8,7.9,0.9,12,0
				c15.8-3.3,25.8-18.8,22.5-34.5C967.8,53,952.4,42.9,936.6,46.2z"/>
			<g>
				<path class="st11" d="M1011.5,114.8c0,0,8.5,0,10.7,7.8c2.1,7.8-2.1,21.3-10.7,21.3h-0.2c-8.6,0-12.8-13.5-10.7-21.3
					c2.1-7.8,10.7-7.8,10.7-7.8H1011.5z"/>
				<path class="st11" d="M1006.7,140.4c0,0,1.4,6.4-2.8,7.1s-13.5,3.6-14.2,7.1c-0.7,3.6-0.7,9.2-0.7,9.2h44.3c0,0,0-5.7-0.7-9.2
					c-0.7-3.6-9.9-6.4-14.2-7.1s-2.8-7.1-2.8-7.1"/>
			</g>
			<g>
				<path class="st9" d="M930.3,117.3c0,0,7.9,0,9.9,7.3c2,7.3-2,19.8-9.9,19.8h-0.2c-7.9,0-11.9-12.5-9.9-19.8
					c2-7.3,9.9-7.3,9.9-7.3H930.3z"/>
				<path class="st9" d="M925.9,142.1c0,0,1.3,5.9-2.6,6.6c-4,0.7-12.5,3.3-13.2,6.6s-0.7,8.6-0.7,8.6h41.1c0,0,0-5.3-0.7-8.6
					c-0.7-3.3-9.2-5.9-13.2-6.6c-4-0.7-2.6-6.6-2.6-6.6"/>
			</g>
			<g>
				<circle class="st16" cx="956.7" cy="75.8" r="3.3"/>
				<circle class="st16" cx="942.5" cy="75.8" r="3.3"/>
				<circle class="st16" cx="928.2" cy="75.8" r="3.3"/>
			</g>
		</g>
		<path class="st12" d="M1033,72.8c0,0,4,21-14,32"/>
		<path class="st12" d="M1040,88.8c0,0-1,14-14,20"/>
		<path class="st12" d="M930.1,36.2c0,0-21.1,3.7-25,24.4"/>
	</g>
	<rect x="872.5" class="st43" width="200" height="200"/>
</g>
</svg>
